<svg xmlns="http://www.w3.org/2000/svg" xmlns:xlink="http://www.w3.org/1999/xlink" width="150" zoomAndPan="magnify" viewBox="0 0 112.5 112.499997" height="150" preserveAspectRatio="xMidYMid meet" version="1.0"><defs><clipPath id="f42e386b4b"><path d="M 0 0 L 112.003906 0 L 112.003906 112.003906 L 0 112.003906 Z M 0 0 " clip-rule="nonzero"/></clipPath><clipPath id="3d3cc537bd"><path d="M 73 8 L 112.003906 8 L 112.003906 94 L 73 94 Z M 73 8 " clip-rule="nonzero"/></clipPath></defs><g clip-path="url(#f42e386b4b)"><path fill="#88c6e7" d="M 112.5 56.253906 C 112.5 70.464844 107.226562 83.441406 98.535156 93.34375 C 95.53125 96.765625 92.117188 99.820312 88.371094 102.429688 C 79.265625 108.78125 68.195312 112.503906 56.25 112.503906 C 52.863281 112.503906 49.539062 112.203125 46.3125 111.628906 C 44.453125 111.296875 42.628906 110.871094 40.835938 110.363281 C 17.265625 103.660156 0.00390625 81.972656 0.00390625 56.253906 C 0.00390625 55.597656 0.0117188 54.941406 0.0390625 54.292969 C 0.796875 32.109375 14.398438 13.191406 33.640625 4.742188 C 39.058594 2.355469 44.921875 0.804688 51.074219 0.242188 C 52.78125 0.0859375 54.507812 0.0078125 56.25 0.0078125 C 67.457031 0.0078125 77.902344 3.285156 86.667969 8.933594 C 102.207031 18.941406 112.5 36.394531 112.5 56.253906 " fill-opacity="1" fill-rule="nonzero"/></g><path fill="#bbe8db" d="M 17.640625 63.472656 C 17.492188 64.273438 17.347656 65.125 17.652344 65.878906 C 18.039062 66.859375 19.058594 67.40625 19.832031 68.121094 C 20.839844 69.0625 21.453125 70.34375 22.316406 71.421875 C 23.179688 72.5 24.484375 73.421875 25.84375 73.175781 C 26.542969 73.046875 27.152344 72.625 27.746094 72.230469 C 29.632812 70.992188 31.671875 69.976562 33.796875 69.207031 C 36.5625 68.203125 39.488281 67.613281 42.429688 67.480469 C 43.363281 67.4375 44.34375 67.453125 45.183594 67.867188 C 45.988281 68.265625 46.59375 69.003906 46.980469 69.816406 C 48.53125 73.046875 46.863281 76.855469 45.039062 79.9375 C 44.359375 81.089844 43.640625 82.28125 43.046875 83.507812 C 42.042969 85.574219 41.386719 87.734375 41.847656 89.9375 C 42.515625 93.128906 45.394531 95.503906 46.074219 98.695312 C 46.445312 100.433594 46.121094 102.25 46.355469 104.007812 C 46.570312 105.613281 47.242188 107.148438 47.285156 108.765625 C 47.316406 109.785156 46.972656 110.894531 46.3125 111.628906 C 44.453125 111.292969 42.628906 110.871094 40.835938 110.363281 C 37.027344 107.140625 33.21875 103.917969 29.410156 100.695312 C 27.351562 98.953125 25.246094 97.15625 23.953125 94.78125 C 21.390625 90.085938 22.554688 84.34375 22.382812 78.992188 C 22.335938 77.648438 22.175781 76.230469 21.367188 75.15625 C 20.832031 74.445312 20.058594 73.949219 19.386719 73.371094 C 17.574219 71.824219 16.4375 69.664062 15.230469 67.613281 C 12.949219 63.746094 9.875 59.835938 5.488281 58.882812 C 4.34375 58.636719 3.105469 58.582031 2.144531 57.914062 C 0.972656 57.09375 0.578125 55.65625 0.0390625 54.292969 C 0.796875 32.109375 14.398438 13.191406 33.640625 4.738281 C 33.46875 5.011719 33.273438 5.261719 33.074219 5.492188 C 31.207031 7.597656 28.933594 8.738281 28.011719 11.628906 C 26.914062 15.074219 28.203125 19.289062 31.996094 20.269531 C 33.152344 20.5625 34.292969 20.53125 35.425781 20.335938 C 38.511719 19.808594 41.5625 18.101562 44.71875 18.582031 C 48.304688 19.117188 51.035156 22.664062 51.078125 26.285156 C 51.121094 29.914062 48.753906 33.335938 45.542969 35.007812 C 42.492188 36.589844 38.660156 36.855469 36.296875 39.351562 C 34.660156 41.078125 34.066406 43.5625 32.550781 45.394531 C 31.585938 46.558594 30.332031 47.371094 28.992188 48.078125 C 26.917969 49.175781 24.628906 50.019531 22.839844 51.535156 C 19.460938 54.402344 18.453125 59.117188 17.640625 63.472656 " fill-opacity="1" fill-rule="nonzero"/><g clip-path="url(#3d3cc537bd)"><path fill="#bbe8db" d="M 112.5 56.253906 C 112.5 70.464844 107.226562 83.441406 98.535156 93.34375 C 98.125 93.238281 97.738281 93.078125 97.378906 92.847656 C 94.738281 91.160156 95.167969 87.300781 94.960938 84.171875 C 94.738281 80.789062 93.355469 77.492188 91.101562 74.960938 C 88.421875 71.957031 84.601562 70.042969 82.34375 66.710938 C 79.171875 62.035156 80.183594 55.003906 84.546875 51.40625 C 87.78125 48.734375 91.679688 48.054688 95.746094 47.710938 C 98.5625 47.472656 103.617188 47.03125 105.332031 44.242188 C 105.644531 43.730469 105.691406 43.011719 105.292969 42.566406 C 104.816406 42.039062 104 42.089844 103.292969 42.03125 C 101.210938 41.863281 99.503906 40.398438 97.742188 39.269531 C 95.980469 38.144531 93.628906 37.332031 91.871094 38.460938 C 90.300781 39.472656 90.578125 40.742188 90.125 42.316406 C 89.789062 43.484375 88.390625 44.570312 87.382812 43.316406 C 86.578125 42.316406 87.574219 40.617188 87.945312 39.632812 C 88.699219 37.632812 89.328125 34.367188 87.921875 32.480469 C 86.476562 30.539062 84.398438 30.96875 83.644531 33.347656 C 83.394531 34.117188 83.195312 34.941406 82.648438 35.539062 C 81.59375 36.699219 79.59375 36.515625 78.402344 35.503906 C 77.207031 34.484375 76.671875 32.898438 76.390625 31.351562 C 75.597656 26.945312 75.398438 23.125 74.03125 18.800781 C 73.308594 16.503906 72.660156 13.765625 74.152344 11.878906 C 75.40625 10.296875 77.667969 10.007812 79.683594 10.042969 C 81.699219 10.082031 83.835938 10.304688 85.625 9.363281 C 85.945312 9.199219 86.253906 8.992188 86.609375 8.9375 C 86.628906 8.929688 86.652344 8.929688 86.671875 8.929688 C 102.210938 18.941406 112.5 36.394531 112.5 56.253906 " fill-opacity="1" fill-rule="nonzero"/></g><path fill="#bbe8db" d="M 55.292969 7.648438 C 54.777344 7.894531 54.15625 8.15625 54.035156 8.710938 C 53.9375 9.179688 54.273438 9.648438 54.6875 9.882812 C 55.527344 10.355469 56.605469 10.113281 57.433594 9.621094 C 58.261719 9.128906 58.9375 8.421875 59.742188 7.886719 C 60.886719 7.128906 62.460938 6.457031 62.511719 5.082031 C 62.542969 4.242188 61.886719 3.480469 61.09375 3.195312 C 59.84375 2.746094 58.617188 3.917969 57.972656 4.863281 C 57.164062 6.046875 56.6875 6.980469 55.292969 7.648438 " fill-opacity="1" fill-rule="nonzero"/><path fill="#bbe8db" d="M 69.886719 21.730469 C 69.8125 20.882812 68.382812 20.835938 67.976562 21.585938 C 67.570312 22.339844 67.945312 23.285156 68.496094 23.941406 C 69.136719 24.707031 70.394531 25.242188 71.070312 24.511719 C 71.800781 23.71875 71.039062 22.484375 70.296875 21.707031 " fill-opacity="1" fill-rule="nonzero"/><path fill="#bbe8db" d="M 27.4375 64.257812 C 27.210938 63.832031 26.660156 63.648438 26.191406 63.761719 C 25.9375 63.820312 25.703125 63.949219 25.441406 63.957031 C 24.332031 63.988281 24.441406 61.847656 23.449219 61.894531 C 22.964844 61.914062 22.109375 63.328125 22.105469 63.757812 C 22.101562 64.765625 23.324219 65.507812 24.21875 65.484375 C 24.820312 65.464844 25.410156 65.191406 26.007812 65.28125 C 26.332031 65.332031 26.652344 65.492188 26.972656 65.417969 C 27.441406 65.308594 27.664062 64.683594 27.4375 64.257812 " fill-opacity="1" fill-rule="nonzero"/><path fill="#d31e3c" d="M 34.734375 54.644531 L 34.734375 78.78125 L 33.097656 78.78125 L 32.175781 59.191406 L 31.960938 54.644531 L 34.734375 54.644531 " fill-opacity="1" fill-rule="nonzero"/><path fill="#d31e3c" d="M 34.734375 54.644531 L 34.734375 59.394531 C 33.886719 59.328125 33.007812 59.261719 32.175781 59.191406 L 31.960938 54.644531 L 34.734375 54.644531 " fill-opacity="1" fill-rule="nonzero"/><path fill="#7c1427" d="M 34.734375 54.644531 L 34.734375 59.394531 C 33.886719 59.328125 33.007812 59.261719 32.175781 59.191406 L 31.960938 54.644531 L 34.734375 54.644531 " fill-opacity="1" fill-rule="nonzero"/><path fill="#d31e3c" d="M 10.207031 56.964844 L 53.960938 56.964844 L 54.1875 30.96875 L 10.207031 29.109375 L 10.207031 56.964844 " fill-opacity="1" fill-rule="nonzero"/><path fill="#bfd0ee" d="M 12.488281 55.1875 L 51.871094 56.035156 L 53.1875 32.203125 L 11.714844 32.203125 L 12.488281 55.1875 " fill-opacity="1" fill-rule="nonzero"/><path fill="#f14a60" d="M 26.496094 40.019531 C 26.265625 40.089844 26.132812 40.335938 26.199219 40.566406 C 26.238281 40.6875 26.320312 40.777344 26.421875 40.832031 C 26.195312 41.976562 25.867188 42.144531 25.867188 42.144531 L 25.890625 42.152344 C 25.59375 42.097656 25.289062 42.070312 24.976562 42.070312 C 24.863281 42.070312 24.753906 42.074219 24.640625 42.082031 C 24.554688 41.769531 24.492188 41.386719 24.453125 41.109375 C 24.476562 41.097656 24.503906 41.085938 24.527344 41.070312 C 24.730469 40.9375 24.785156 40.664062 24.652344 40.460938 C 24.519531 40.257812 24.246094 40.199219 24.042969 40.335938 C 23.839844 40.46875 23.78125 40.742188 23.914062 40.945312 C 23.984375 41.046875 24.089844 41.113281 24.203125 41.136719 C 24.246094 41.59375 24.234375 41.914062 24.199219 42.128906 C 23.9375 42.167969 23.683594 42.230469 23.4375 42.308594 C 23.179688 42.125 22.824219 41.496094 22.613281 41.101562 C 22.636719 41.082031 22.65625 41.0625 22.671875 41.039062 C 22.816406 40.84375 22.78125 40.570312 22.585938 40.421875 C 22.390625 40.277344 22.113281 40.316406 21.96875 40.511719 C 21.820312 40.703125 21.859375 40.980469 22.054688 41.128906 C 22.152344 41.203125 22.273438 41.226562 22.390625 41.210938 C 22.886719 42.265625 22.722656 42.59375 22.722656 42.59375 L 22.734375 42.589844 C 22.359375 42.773438 22.011719 43.003906 21.699219 43.269531 C 21.441406 43.070312 21.164062 42.800781 20.96875 42.601562 C 20.984375 42.578125 20.996094 42.554688 21.003906 42.527344 C 21.089844 42.296875 20.972656 42.042969 20.746094 41.960938 C 20.515625 41.875 20.261719 41.992188 20.179688 42.222656 C 20.09375 42.449219 20.210938 42.703125 20.441406 42.789062 C 20.554688 42.832031 20.679688 42.820312 20.78125 42.769531 C 21.09375 43.113281 21.269531 43.378906 21.371094 43.570312 C 21.183594 43.761719 21.011719 43.96875 20.855469 44.183594 L 20.863281 44.167969 C 20.546875 44.175781 19.886719 43.878906 19.488281 43.6875 C 19.492188 43.660156 19.496094 43.632812 19.496094 43.601562 C 19.496094 43.359375 19.300781 43.160156 19.058594 43.15625 C 18.816406 43.15625 18.617188 43.351562 18.613281 43.59375 C 18.613281 43.839844 18.808594 44.035156 19.050781 44.039062 C 19.175781 44.039062 19.289062 43.988281 19.367188 43.90625 C 20.394531 44.460938 20.460938 44.824219 20.460938 44.824219 L 20.46875 44.804688 C 20.335938 45.0625 20.222656 45.335938 20.132812 45.617188 C 19.8125 45.582031 19.433594 45.5 19.164062 45.4375 C 19.160156 45.410156 19.160156 45.382812 19.152344 45.355469 C 19.101562 45.117188 18.867188 44.964844 18.628906 45.015625 C 18.394531 45.066406 18.242188 45.300781 18.292969 45.535156 C 18.339844 45.773438 18.574219 45.925781 18.8125 45.878906 C 18.933594 45.851562 19.035156 45.777344 19.09375 45.679688 C 19.539062 45.804688 19.832031 45.933594 20.019531 46.042969 C 19.960938 46.300781 19.925781 46.566406 19.90625 46.835938 L 19.90625 46.820312 C 19.644531 46.992188 18.929688 47.09375 18.484375 47.144531 C 18.476562 47.121094 18.464844 47.09375 18.449219 47.070312 C 18.320312 46.863281 18.050781 46.796875 17.84375 46.925781 C 17.636719 47.054688 17.570312 47.324219 17.699219 47.53125 C 17.828125 47.738281 18.097656 47.804688 18.304688 47.675781 C 18.410156 47.609375 18.480469 47.507812 18.503906 47.394531 C 19.667969 47.316406 19.914062 47.589844 19.914062 47.589844 L 19.914062 47.554688 C 19.949219 47.984375 20.035156 48.398438 20.171875 48.789062 C 19.890625 48.953125 19.539062 49.113281 19.28125 49.226562 C 19.265625 49.203125 19.246094 49.183594 19.226562 49.164062 C 19.042969 49.003906 18.765625 49.019531 18.601562 49.199219 C 18.441406 49.382812 18.457031 49.660156 18.640625 49.824219 C 18.820312 49.984375 19.101562 49.96875 19.261719 49.785156 C 19.34375 49.691406 19.378906 49.574219 19.371094 49.460938 C 19.804688 49.296875 20.113281 49.226562 20.332031 49.203125 C 20.441406 49.449219 20.566406 49.683594 20.710938 49.90625 L 20.703125 49.894531 C 20.59375 50.191406 20.078125 50.699219 19.75 51 C 19.726562 50.984375 19.703125 50.972656 19.675781 50.960938 C 19.453125 50.871094 19.195312 50.980469 19.105469 51.207031 C 19.011719 51.433594 19.121094 51.6875 19.347656 51.78125 C 19.574219 51.871094 19.832031 51.761719 19.921875 51.535156 C 19.96875 51.417969 19.960938 51.296875 19.914062 51.191406 C 20.804688 50.4375 21.164062 50.507812 21.164062 50.507812 L 21.144531 50.480469 C 21.421875 50.800781 21.738281 51.082031 22.085938 51.324219 C 21.957031 51.621094 21.769531 51.960938 21.628906 52.203125 C 21.601562 52.195312 21.574219 52.1875 21.546875 52.183594 C 21.304688 52.164062 21.089844 52.34375 21.066406 52.585938 C 21.042969 52.828125 21.222656 53.039062 21.464844 53.0625 C 21.707031 53.085938 21.921875 52.90625 21.945312 52.664062 C 21.957031 52.539062 21.914062 52.425781 21.839844 52.335938 C 22.089844 51.949219 22.300781 51.707031 22.460938 51.5625 C 22.6875 51.691406 22.921875 51.804688 23.171875 51.898438 L 23.167969 51.894531 C 23.253906 52.199219 23.144531 52.914062 23.058594 53.351562 C 23.03125 53.351562 23.003906 53.355469 22.976562 53.363281 C 22.742188 53.425781 22.597656 53.664062 22.660156 53.902344 C 22.722656 54.136719 22.960938 54.277344 23.199219 54.21875 C 23.433594 54.15625 23.574219 53.914062 23.511719 53.679688 C 23.480469 53.558594 23.402344 53.464844 23.304688 53.40625 C 23.570312 52.273438 23.902344 52.117188 23.902344 52.117188 L 23.886719 52.109375 C 24.238281 52.1875 24.605469 52.230469 24.976562 52.230469 C 25.027344 52.230469 25.078125 52.226562 25.128906 52.226562 C 25.203125 52.539062 25.253906 52.925781 25.28125 53.203125 C 25.257812 53.214844 25.230469 53.226562 25.207031 53.238281 C 24.996094 53.367188 24.929688 53.636719 25.058594 53.84375 C 25.183594 54.054688 25.453125 54.121094 25.664062 53.992188 C 25.871094 53.867188 25.9375 53.597656 25.8125 53.386719 C 25.746094 53.28125 25.644531 53.214844 25.53125 53.1875 C 25.503906 52.726562 25.53125 52.40625 25.570312 52.195312 C 25.835938 52.164062 26.097656 52.113281 26.347656 52.042969 L 26.339844 52.042969 C 26.589844 52.234375 26.925781 52.878906 27.117188 53.277344 C 27.09375 53.296875 27.074219 53.316406 27.058594 53.339844 C 26.90625 53.527344 26.933594 53.804688 27.121094 53.957031 C 27.3125 54.113281 27.589844 54.082031 27.742188 53.894531 C 27.894531 53.707031 27.867188 53.429688 27.675781 53.273438 C 27.582031 53.195312 27.460938 53.164062 27.347656 53.179688 C 26.890625 52.109375 27.0625 51.785156 27.0625 51.785156 L 27.046875 51.789062 C 27.429688 51.617188 27.789062 51.402344 28.113281 51.144531 C 28.359375 51.355469 28.628906 51.632812 28.816406 51.839844 C 28.800781 51.863281 28.789062 51.886719 28.777344 51.914062 C 28.683594 52.140625 28.792969 52.398438 29.019531 52.488281 C 29.242188 52.582031 29.5 52.476562 29.59375 52.25 C 29.6875 52.023438 29.578125 51.765625 29.351562 51.675781 C 29.238281 51.628906 29.113281 51.632812 29.007812 51.679688 C 28.710938 51.324219 28.542969 51.054688 28.449219 50.855469 C 28.648438 50.671875 28.828125 50.472656 28.992188 50.261719 L 28.980469 50.28125 C 29.296875 50.285156 29.945312 50.605469 30.339844 50.8125 C 30.332031 50.839844 30.328125 50.867188 30.328125 50.894531 C 30.316406 51.136719 30.503906 51.34375 30.746094 51.355469 C 30.988281 51.367188 31.195312 51.179688 31.207031 50.933594 C 31.21875 50.691406 31.03125 50.484375 30.789062 50.476562 C 30.664062 50.46875 30.546875 50.515625 30.464844 50.59375 C 29.460938 50.003906 29.40625 49.640625 29.40625 49.640625 L 29.394531 49.660156 C 29.601562 49.296875 29.761719 48.910156 29.875 48.503906 C 30.199219 48.523438 30.578125 48.589844 30.851562 48.644531 C 30.855469 48.671875 30.859375 48.699219 30.867188 48.726562 C 30.925781 48.964844 31.164062 49.105469 31.398438 49.046875 C 31.636719 48.988281 31.78125 48.75 31.71875 48.511719 C 31.660156 48.277344 31.421875 48.132812 31.1875 48.191406 C 31.066406 48.222656 30.96875 48.300781 30.910156 48.402344 C 30.460938 48.292969 30.167969 48.171875 29.972656 48.070312 C 30.023438 47.808594 30.050781 47.539062 30.054688 47.265625 L 30.058594 47.292969 C 30.3125 47.109375 31.027344 46.980469 31.464844 46.914062 C 31.476562 46.9375 31.488281 46.964844 31.503906 46.988281 C 31.640625 47.191406 31.914062 47.246094 32.117188 47.109375 C 32.320312 46.972656 32.375 46.699219 32.238281 46.496094 C 32.101562 46.296875 31.828125 46.242188 31.628906 46.375 C 31.523438 46.445312 31.460938 46.550781 31.4375 46.664062 C 30.28125 46.785156 30.019531 46.523438 30.019531 46.523438 L 30.023438 46.550781 C 29.972656 46.125 29.871094 45.71875 29.722656 45.332031 C 29.996094 45.15625 30.339844 44.984375 30.59375 44.863281 C 30.609375 44.886719 30.628906 44.90625 30.652344 44.921875 C 30.839844 45.078125 31.117188 45.050781 31.273438 44.863281 C 31.429688 44.675781 31.402344 44.398438 31.214844 44.242188 C 31.027344 44.089844 30.746094 44.117188 30.59375 44.304688 C 30.515625 44.398438 30.484375 44.519531 30.496094 44.632812 C 30.070312 44.8125 29.761719 44.890625 29.546875 44.921875 C 29.429688 44.683594 29.292969 44.453125 29.136719 44.234375 L 29.148438 44.25 C 29.25 43.949219 29.742188 43.421875 30.058594 43.105469 C 30.082031 43.121094 30.109375 43.132812 30.136719 43.144531 C 30.363281 43.226562 30.617188 43.105469 30.699219 42.878906 C 30.78125 42.648438 30.664062 42.398438 30.433594 42.316406 C 30.203125 42.230469 29.953125 42.351562 29.871094 42.578125 C 29.828125 42.695312 29.839844 42.820312 29.890625 42.921875 C 29.027344 43.710938 28.664062 43.652344 28.664062 43.652344 L 28.683594 43.675781 C 28.398438 43.371094 28.070312 43.097656 27.714844 42.871094 C 27.832031 42.570312 28.007812 42.222656 28.140625 41.976562 C 28.167969 41.984375 28.195312 41.988281 28.222656 41.988281 C 28.464844 42.003906 28.671875 41.816406 28.6875 41.574219 C 28.699219 41.332031 28.515625 41.121094 28.269531 41.109375 C 28.027344 41.097656 27.820312 41.28125 27.808594 41.527344 C 27.800781 41.648438 27.847656 41.765625 27.925781 41.847656 C 27.6875 42.246094 27.488281 42.492188 27.332031 42.648438 C 27.101562 42.523438 26.855469 42.421875 26.605469 42.335938 L 26.613281 42.339844 C 26.515625 42.039062 26.601562 41.320312 26.667969 40.878906 C 26.695312 40.878906 26.722656 40.871094 26.75 40.863281 C 26.984375 40.792969 27.117188 40.550781 27.046875 40.316406 C 26.976562 40.082031 26.730469 39.949219 26.496094 40.019531 " fill-opacity="1" fill-rule="nonzero"/><path fill="#f14a60" d="M 36.890625 36.851562 C 36.789062 36.882812 36.730469 36.988281 36.757812 37.09375 C 36.773438 37.148438 36.8125 37.1875 36.855469 37.210938 C 36.757812 37.71875 36.613281 37.792969 36.613281 37.792969 L 36.621094 37.796875 C 36.492188 37.773438 36.355469 37.761719 36.214844 37.761719 C 36.167969 37.761719 36.117188 37.761719 36.066406 37.765625 C 36.027344 37.628906 36 37.457031 35.984375 37.335938 C 35.992188 37.328125 36.003906 37.324219 36.015625 37.316406 C 36.105469 37.257812 36.132812 37.136719 36.070312 37.046875 C 36.011719 36.957031 35.890625 36.929688 35.800781 36.988281 C 35.710938 37.050781 35.683594 37.171875 35.746094 37.261719 C 35.773438 37.308594 35.820312 37.335938 35.871094 37.34375 C 35.890625 37.550781 35.886719 37.691406 35.871094 37.785156 C 35.753906 37.804688 35.640625 37.832031 35.53125 37.867188 C 35.417969 37.785156 35.257812 37.507812 35.167969 37.332031 C 35.175781 37.324219 35.183594 37.3125 35.191406 37.304688 C 35.257812 37.21875 35.242188 37.09375 35.152344 37.027344 C 35.066406 36.964844 34.945312 36.980469 34.878906 37.066406 C 34.816406 37.15625 34.832031 37.277344 34.917969 37.34375 C 34.960938 37.375 35.015625 37.386719 35.066406 37.378906 C 35.289062 37.847656 35.214844 37.992188 35.214844 37.992188 L 35.21875 37.992188 C 35.054688 38.074219 34.898438 38.175781 34.761719 38.292969 C 34.648438 38.207031 34.523438 38.085938 34.4375 37.996094 C 34.441406 37.988281 34.449219 37.976562 34.453125 37.964844 C 34.488281 37.863281 34.4375 37.75 34.335938 37.710938 C 34.234375 37.675781 34.121094 37.726562 34.085938 37.828125 C 34.046875 37.929688 34.101562 38.042969 34.203125 38.078125 C 34.253906 38.097656 34.308594 38.09375 34.355469 38.070312 C 34.492188 38.222656 34.570312 38.339844 34.613281 38.425781 C 34.53125 38.511719 34.453125 38.601562 34.386719 38.699219 L 34.390625 38.691406 C 34.25 38.695312 33.957031 38.566406 33.777344 38.480469 C 33.78125 38.464844 33.78125 38.453125 33.78125 38.441406 C 33.78125 38.332031 33.695312 38.246094 33.589844 38.242188 C 33.480469 38.242188 33.390625 38.328125 33.390625 38.4375 C 33.390625 38.546875 33.476562 38.632812 33.585938 38.636719 C 33.640625 38.636719 33.691406 38.613281 33.726562 38.578125 C 34.179688 38.820312 34.210938 38.984375 34.210938 38.984375 L 34.214844 38.976562 C 34.15625 39.089844 34.105469 39.210938 34.066406 39.335938 C 33.921875 39.320312 33.753906 39.285156 33.632812 39.257812 C 33.632812 39.242188 33.632812 39.230469 33.628906 39.21875 C 33.609375 39.113281 33.503906 39.046875 33.398438 39.066406 C 33.292969 39.089844 33.226562 39.195312 33.246094 39.300781 C 33.269531 39.40625 33.375 39.472656 33.480469 39.449219 C 33.535156 39.441406 33.578125 39.40625 33.605469 39.363281 C 33.800781 39.417969 33.929688 39.476562 34.015625 39.523438 C 33.988281 39.640625 33.972656 39.757812 33.964844 39.875 L 33.964844 39.867188 C 33.847656 39.945312 33.53125 39.992188 33.332031 40.015625 C 33.328125 40.003906 33.324219 39.992188 33.316406 39.980469 C 33.261719 39.886719 33.140625 39.859375 33.046875 39.917969 C 32.957031 39.972656 32.929688 40.09375 32.984375 40.183594 C 33.042969 40.277344 33.160156 40.304688 33.253906 40.25 C 33.300781 40.21875 33.332031 40.175781 33.34375 40.125 C 33.859375 40.089844 33.96875 40.210938 33.96875 40.210938 L 33.96875 40.195312 C 33.984375 40.386719 34.023438 40.570312 34.082031 40.746094 C 33.957031 40.816406 33.800781 40.890625 33.6875 40.9375 C 33.679688 40.929688 33.671875 40.917969 33.664062 40.910156 C 33.582031 40.839844 33.457031 40.84375 33.386719 40.925781 C 33.316406 41.007812 33.320312 41.128906 33.402344 41.203125 C 33.484375 41.273438 33.605469 41.265625 33.679688 41.1875 C 33.714844 41.144531 33.730469 41.09375 33.726562 41.042969 C 33.917969 40.96875 34.058594 40.9375 34.152344 40.929688 C 34.203125 41.039062 34.257812 41.140625 34.324219 41.238281 L 34.316406 41.234375 C 34.269531 41.367188 34.042969 41.589844 33.894531 41.726562 C 33.886719 41.71875 33.875 41.714844 33.863281 41.707031 C 33.761719 41.667969 33.648438 41.714844 33.609375 41.816406 C 33.566406 41.917969 33.617188 42.03125 33.71875 42.070312 C 33.816406 42.113281 33.929688 42.0625 33.972656 41.960938 C 33.992188 41.910156 33.988281 41.855469 33.96875 41.808594 C 34.363281 41.476562 34.523438 41.507812 34.523438 41.507812 L 34.515625 41.496094 C 34.636719 41.636719 34.777344 41.761719 34.933594 41.871094 C 34.875 42 34.792969 42.152344 34.730469 42.257812 C 34.71875 42.253906 34.703125 42.253906 34.691406 42.25 C 34.585938 42.242188 34.488281 42.320312 34.480469 42.429688 C 34.46875 42.535156 34.550781 42.632812 34.65625 42.640625 C 34.765625 42.652344 34.859375 42.570312 34.871094 42.464844 C 34.875 42.410156 34.855469 42.359375 34.824219 42.320312 C 34.933594 42.148438 35.027344 42.039062 35.097656 41.972656 C 35.199219 42.03125 35.304688 42.082031 35.414062 42.125 L 35.414062 42.121094 C 35.453125 42.257812 35.402344 42.574219 35.363281 42.769531 C 35.351562 42.769531 35.339844 42.773438 35.328125 42.773438 C 35.222656 42.800781 35.160156 42.910156 35.1875 43.011719 C 35.214844 43.117188 35.320312 43.179688 35.425781 43.152344 C 35.53125 43.125 35.59375 43.019531 35.566406 42.914062 C 35.550781 42.863281 35.515625 42.820312 35.472656 42.792969 C 35.59375 42.289062 35.738281 42.21875 35.738281 42.21875 L 35.734375 42.21875 C 35.886719 42.253906 36.050781 42.273438 36.214844 42.273438 C 36.238281 42.273438 36.261719 42.269531 36.285156 42.269531 C 36.316406 42.410156 36.339844 42.582031 36.351562 42.703125 C 36.339844 42.707031 36.328125 42.714844 36.316406 42.71875 C 36.226562 42.777344 36.195312 42.894531 36.25 42.988281 C 36.308594 43.082031 36.429688 43.109375 36.519531 43.054688 C 36.613281 43 36.640625 42.878906 36.585938 42.785156 C 36.558594 42.738281 36.511719 42.707031 36.460938 42.695312 C 36.449219 42.492188 36.460938 42.351562 36.480469 42.253906 C 36.597656 42.242188 36.710938 42.21875 36.824219 42.1875 L 36.820312 42.1875 C 36.933594 42.273438 37.082031 42.558594 37.164062 42.738281 C 37.15625 42.746094 37.148438 42.753906 37.140625 42.761719 C 37.070312 42.847656 37.085938 42.972656 37.167969 43.039062 C 37.253906 43.105469 37.375 43.09375 37.445312 43.011719 C 37.511719 42.925781 37.5 42.804688 37.414062 42.734375 C 37.371094 42.699219 37.320312 42.6875 37.269531 42.691406 C 37.066406 42.21875 37.140625 42.074219 37.140625 42.074219 L 37.136719 42.074219 C 37.304688 42 37.464844 41.902344 37.609375 41.789062 C 37.71875 41.882812 37.835938 42.007812 37.921875 42.097656 C 37.914062 42.109375 37.910156 42.121094 37.902344 42.132812 C 37.863281 42.230469 37.910156 42.347656 38.011719 42.386719 C 38.109375 42.429688 38.222656 42.378906 38.265625 42.28125 C 38.308594 42.179688 38.257812 42.066406 38.160156 42.023438 C 38.109375 42.003906 38.054688 42.007812 38.007812 42.027344 C 37.875 41.871094 37.800781 41.75 37.757812 41.660156 C 37.84375 41.582031 37.925781 41.492188 38 41.398438 L 37.992188 41.40625 C 38.132812 41.40625 38.421875 41.550781 38.597656 41.640625 C 38.59375 41.652344 38.589844 41.667969 38.589844 41.679688 C 38.585938 41.785156 38.667969 41.878906 38.777344 41.882812 C 38.886719 41.886719 38.976562 41.804688 38.980469 41.695312 C 38.988281 41.589844 38.902344 41.496094 38.796875 41.492188 C 38.742188 41.488281 38.691406 41.511719 38.652344 41.546875 C 38.207031 41.28125 38.183594 41.121094 38.183594 41.121094 L 38.175781 41.128906 C 38.269531 40.96875 38.339844 40.796875 38.390625 40.617188 C 38.535156 40.625 38.703125 40.65625 38.824219 40.679688 C 38.824219 40.691406 38.828125 40.703125 38.832031 40.714844 C 38.855469 40.820312 38.960938 40.882812 39.066406 40.859375 C 39.171875 40.832031 39.234375 40.726562 39.210938 40.621094 C 39.183594 40.515625 39.078125 40.453125 38.972656 40.480469 C 38.917969 40.492188 38.875 40.527344 38.851562 40.570312 C 38.652344 40.523438 38.519531 40.46875 38.433594 40.425781 C 38.457031 40.308594 38.46875 40.1875 38.472656 40.066406 L 38.472656 40.078125 C 38.585938 39.996094 38.902344 39.941406 39.097656 39.910156 C 39.101562 39.921875 39.109375 39.933594 39.113281 39.945312 C 39.175781 40.035156 39.296875 40.058594 39.386719 39.996094 C 39.476562 39.9375 39.5 39.816406 39.441406 39.726562 C 39.378906 39.636719 39.257812 39.613281 39.167969 39.671875 C 39.121094 39.703125 39.09375 39.75 39.085938 39.800781 C 38.570312 39.855469 38.457031 39.738281 38.457031 39.738281 L 38.457031 39.75 C 38.433594 39.5625 38.386719 39.378906 38.324219 39.207031 C 38.445312 39.132812 38.597656 39.054688 38.710938 39 C 38.71875 39.011719 38.726562 39.019531 38.734375 39.027344 C 38.820312 39.097656 38.941406 39.085938 39.011719 39 C 39.082031 38.917969 39.066406 38.792969 38.984375 38.726562 C 38.902344 38.65625 38.777344 38.667969 38.710938 38.753906 C 38.675781 38.792969 38.660156 38.847656 38.667969 38.898438 C 38.476562 38.976562 38.339844 39.015625 38.246094 39.027344 C 38.191406 38.921875 38.132812 38.820312 38.0625 38.722656 L 38.070312 38.726562 C 38.113281 38.59375 38.332031 38.359375 38.472656 38.222656 C 38.484375 38.226562 38.492188 38.234375 38.507812 38.238281 C 38.609375 38.273438 38.71875 38.222656 38.757812 38.117188 C 38.792969 38.019531 38.742188 37.90625 38.636719 37.871094 C 38.535156 37.832031 38.425781 37.886719 38.386719 37.988281 C 38.371094 38.039062 38.375 38.09375 38.398438 38.140625 C 38.015625 38.488281 37.851562 38.464844 37.851562 38.464844 L 37.863281 38.472656 C 37.734375 38.335938 37.589844 38.21875 37.433594 38.117188 C 37.484375 37.980469 37.5625 37.828125 37.621094 37.71875 C 37.632812 37.722656 37.644531 37.722656 37.65625 37.726562 C 37.765625 37.730469 37.855469 37.648438 37.863281 37.539062 C 37.867188 37.433594 37.785156 37.339844 37.679688 37.335938 C 37.570312 37.328125 37.476562 37.410156 37.472656 37.519531 C 37.46875 37.574219 37.488281 37.625 37.523438 37.664062 C 37.417969 37.839844 37.332031 37.949219 37.261719 38.015625 C 37.160156 37.960938 37.050781 37.917969 36.9375 37.878906 L 36.941406 37.878906 C 36.898438 37.746094 36.9375 37.429688 36.964844 37.230469 C 36.980469 37.230469 36.992188 37.230469 37.003906 37.226562 C 37.105469 37.195312 37.164062 37.085938 37.132812 36.980469 C 37.105469 36.878906 36.996094 36.820312 36.890625 36.851562 " fill-opacity="1" fill-rule="nonzero"/><path fill="#f14a60" d="M 43.503906 42.148438 C 43.335938 42.207031 43.238281 42.402344 43.289062 42.585938 C 43.316406 42.683594 43.375 42.757812 43.449219 42.800781 C 43.285156 43.710938 43.046875 43.847656 43.046875 43.847656 L 43.066406 43.851562 C 42.847656 43.808594 42.628906 43.785156 42.402344 43.785156 C 42.316406 43.785156 42.238281 43.789062 42.15625 43.796875 C 42.09375 43.546875 42.046875 43.242188 42.019531 43.019531 C 42.035156 43.011719 42.054688 43 42.070312 42.988281 C 42.21875 42.882812 42.261719 42.664062 42.164062 42.5 C 42.066406 42.339844 41.867188 42.292969 41.71875 42.402344 C 41.570312 42.507812 41.53125 42.726562 41.628906 42.886719 C 41.675781 42.972656 41.753906 43.023438 41.835938 43.039062 C 41.867188 43.40625 41.859375 43.660156 41.835938 43.832031 C 41.644531 43.867188 41.460938 43.914062 41.28125 43.976562 C 41.09375 43.832031 40.832031 43.328125 40.683594 43.015625 C 40.695312 43 40.710938 42.984375 40.722656 42.964844 C 40.828125 42.808594 40.800781 42.589844 40.660156 42.472656 C 40.519531 42.355469 40.316406 42.386719 40.210938 42.542969 C 40.105469 42.695312 40.132812 42.917969 40.273438 43.035156 C 40.347656 43.09375 40.433594 43.113281 40.519531 43.101562 C 40.878906 43.941406 40.761719 44.207031 40.761719 44.207031 L 40.769531 44.203125 C 40.496094 44.351562 40.242188 44.535156 40.015625 44.746094 C 39.828125 44.585938 39.628906 44.371094 39.484375 44.210938 C 39.496094 44.191406 39.503906 44.171875 39.511719 44.152344 C 39.574219 43.96875 39.488281 43.765625 39.320312 43.699219 C 39.15625 43.632812 38.972656 43.726562 38.910156 43.910156 C 38.847656 44.089844 38.933594 44.292969 39.101562 44.359375 C 39.183594 44.394531 39.273438 44.386719 39.351562 44.347656 C 39.574219 44.621094 39.703125 44.832031 39.777344 44.988281 C 39.640625 45.136719 39.515625 45.300781 39.402344 45.476562 L 39.410156 45.460938 C 39.179688 45.46875 38.699219 45.234375 38.40625 45.078125 C 38.410156 45.054688 38.414062 45.035156 38.414062 45.011719 C 38.414062 44.816406 38.273438 44.65625 38.097656 44.65625 C 37.917969 44.652344 37.773438 44.808594 37.773438 45.003906 C 37.769531 45.199219 37.914062 45.359375 38.089844 45.359375 C 38.179688 45.359375 38.261719 45.320312 38.320312 45.253906 C 39.066406 45.695312 39.117188 45.984375 39.117188 45.984375 L 39.121094 45.972656 C 39.023438 46.179688 38.941406 46.394531 38.878906 46.617188 C 38.644531 46.59375 38.367188 46.527344 38.171875 46.476562 C 38.171875 46.453125 38.167969 46.433594 38.164062 46.410156 C 38.128906 46.21875 37.957031 46.097656 37.785156 46.140625 C 37.613281 46.179688 37.5 46.367188 37.539062 46.554688 C 37.574219 46.746094 37.746094 46.867188 37.917969 46.828125 C 38.007812 46.808594 38.078125 46.746094 38.121094 46.667969 C 38.445312 46.769531 38.65625 46.875 38.792969 46.960938 C 38.753906 47.167969 38.726562 47.378906 38.714844 47.59375 L 38.714844 47.578125 C 38.523438 47.71875 38 47.800781 37.679688 47.839844 C 37.671875 47.820312 37.664062 47.800781 37.652344 47.78125 C 37.558594 47.613281 37.363281 47.5625 37.210938 47.664062 C 37.0625 47.765625 37.015625 47.984375 37.105469 48.148438 C 37.199219 48.316406 37.398438 48.367188 37.546875 48.265625 C 37.625 48.210938 37.675781 48.128906 37.691406 48.039062 C 38.539062 47.976562 38.71875 48.195312 38.71875 48.195312 L 38.71875 48.167969 C 38.742188 48.511719 38.808594 48.839844 38.90625 49.152344 C 38.703125 49.285156 38.445312 49.414062 38.257812 49.5 C 38.246094 49.484375 38.234375 49.46875 38.21875 49.453125 C 38.085938 49.324219 37.882812 49.335938 37.765625 49.480469 C 37.648438 49.628906 37.660156 49.847656 37.792969 49.976562 C 37.925781 50.109375 38.125 50.09375 38.242188 49.949219 C 38.304688 49.875 38.328125 49.78125 38.324219 49.6875 C 38.636719 49.558594 38.863281 49.503906 39.023438 49.484375 C 39.101562 49.679688 39.195312 49.867188 39.296875 50.046875 L 39.292969 50.035156 C 39.210938 50.269531 38.835938 50.675781 38.601562 50.917969 C 38.582031 50.90625 38.566406 50.898438 38.546875 50.886719 C 38.382812 50.816406 38.195312 50.902344 38.128906 51.082031 C 38.0625 51.261719 38.140625 51.46875 38.308594 51.542969 C 38.472656 51.613281 38.65625 51.527344 38.722656 51.347656 C 38.757812 51.253906 38.753906 51.15625 38.71875 51.070312 C 39.367188 50.46875 39.628906 50.527344 39.628906 50.527344 L 39.613281 50.503906 C 39.816406 50.757812 40.042969 50.984375 40.296875 51.175781 C 40.203125 51.414062 40.066406 51.6875 39.964844 51.878906 C 39.945312 51.871094 39.925781 51.867188 39.90625 51.867188 C 39.726562 51.847656 39.570312 51.992188 39.554688 52.183594 C 39.539062 52.378906 39.671875 52.550781 39.847656 52.566406 C 40.023438 52.585938 40.179688 52.441406 40.195312 52.25 C 40.203125 52.148438 40.171875 52.054688 40.117188 51.988281 C 40.300781 51.675781 40.453125 51.484375 40.570312 51.367188 C 40.734375 51.46875 40.90625 51.5625 41.085938 51.636719 C 41.148438 51.875 41.066406 52.445312 41.003906 52.796875 C 40.984375 52.796875 40.964844 52.800781 40.945312 52.808594 C 40.773438 52.855469 40.671875 53.046875 40.714844 53.234375 C 40.757812 53.425781 40.933594 53.539062 41.105469 53.488281 C 41.277344 53.441406 41.378906 53.246094 41.335938 53.058594 C 41.3125 52.964844 41.257812 52.886719 41.183594 52.84375 C 41.378906 51.9375 41.621094 51.808594 41.621094 51.808594 L 41.609375 51.804688 C 41.863281 51.867188 42.128906 51.902344 42.402344 51.902344 C 42.4375 51.902344 42.472656 51.898438 42.511719 51.898438 C 42.566406 52.148438 42.601562 52.457031 42.621094 52.679688 C 42.601562 52.6875 42.585938 52.695312 42.566406 52.707031 C 42.414062 52.808594 42.367188 53.023438 42.457031 53.191406 C 42.550781 53.355469 42.746094 53.410156 42.898438 53.308594 C 43.050781 53.207031 43.097656 52.992188 43.007812 52.824219 C 42.960938 52.742188 42.886719 52.6875 42.804688 52.664062 C 42.785156 52.296875 42.800781 52.042969 42.832031 51.871094 C 43.023438 51.847656 43.214844 51.804688 43.394531 51.75 L 43.390625 51.753906 C 43.574219 51.90625 43.816406 52.417969 43.957031 52.738281 C 43.941406 52.753906 43.925781 52.769531 43.914062 52.785156 C 43.800781 52.9375 43.824219 53.160156 43.960938 53.28125 C 44.097656 53.40625 44.300781 53.382812 44.410156 53.230469 C 44.523438 53.078125 44.5 52.859375 44.363281 52.734375 C 44.292969 52.671875 44.207031 52.648438 44.125 52.660156 C 43.789062 51.804688 43.917969 51.542969 43.917969 51.542969 L 43.90625 51.550781 C 44.183594 51.414062 44.445312 51.238281 44.679688 51.035156 C 44.859375 51.203125 45.054688 51.425781 45.191406 51.589844 C 45.183594 51.609375 45.171875 51.628906 45.164062 51.648438 C 45.097656 51.828125 45.175781 52.035156 45.339844 52.109375 C 45.503906 52.183594 45.691406 52.097656 45.757812 51.917969 C 45.824219 51.738281 45.746094 51.53125 45.582031 51.457031 C 45.5 51.421875 45.410156 51.425781 45.332031 51.460938 C 45.117188 51.175781 44.992188 50.960938 44.925781 50.804688 C 45.070312 50.65625 45.199219 50.5 45.320312 50.328125 L 45.3125 50.34375 C 45.539062 50.347656 46.011719 50.601562 46.300781 50.769531 C 46.292969 50.789062 46.292969 50.8125 46.289062 50.835938 C 46.28125 51.027344 46.417969 51.195312 46.59375 51.203125 C 46.773438 51.210938 46.921875 51.0625 46.929688 50.867188 C 46.9375 50.671875 46.800781 50.507812 46.625 50.5 C 46.535156 50.496094 46.453125 50.53125 46.390625 50.59375 C 45.660156 50.125 45.621094 49.832031 45.621094 49.832031 L 45.613281 49.847656 C 45.761719 49.558594 45.878906 49.25 45.960938 48.925781 C 46.195312 48.941406 46.472656 48.996094 46.671875 49.039062 C 46.675781 49.058594 46.675781 49.082031 46.683594 49.105469 C 46.726562 49.292969 46.898438 49.40625 47.070312 49.359375 C 47.242188 49.3125 47.347656 49.121094 47.304688 48.933594 C 47.261719 48.746094 47.085938 48.628906 46.914062 48.675781 C 46.828125 48.703125 46.757812 48.761719 46.714844 48.84375 C 46.390625 48.757812 46.171875 48.660156 46.035156 48.578125 C 46.070312 48.371094 46.089844 48.15625 46.09375 47.933594 L 46.09375 47.957031 C 46.28125 47.8125 46.796875 47.707031 47.117188 47.65625 C 47.128906 47.675781 47.136719 47.695312 47.148438 47.714844 C 47.246094 47.875 47.445312 47.917969 47.59375 47.8125 C 47.738281 47.703125 47.777344 47.484375 47.679688 47.324219 C 47.582031 47.160156 47.382812 47.117188 47.234375 47.226562 C 47.160156 47.28125 47.113281 47.367188 47.097656 47.457031 C 46.257812 47.554688 46.066406 47.34375 46.066406 47.34375 L 46.070312 47.363281 C 46.03125 47.027344 45.957031 46.699219 45.851562 46.390625 C 46.046875 46.253906 46.300781 46.113281 46.484375 46.019531 C 46.496094 46.035156 46.511719 46.050781 46.527344 46.066406 C 46.664062 46.191406 46.867188 46.167969 46.976562 46.019531 C 47.089844 45.867188 47.070312 45.648438 46.933594 45.523438 C 46.796875 45.398438 46.597656 45.421875 46.484375 45.570312 C 46.425781 45.648438 46.402344 45.742188 46.414062 45.835938 C 46.105469 45.976562 45.878906 46.042969 45.722656 46.066406 C 45.636719 45.875 45.539062 45.691406 45.425781 45.515625 L 45.433594 45.527344 C 45.507812 45.289062 45.867188 44.867188 46.097656 44.617188 C 46.113281 44.625 46.132812 44.636719 46.152344 44.644531 C 46.316406 44.710938 46.5 44.617188 46.5625 44.433594 C 46.621094 44.25 46.535156 44.046875 46.367188 43.980469 C 46.203125 43.917969 46.019531 44.011719 45.957031 44.195312 C 45.925781 44.289062 45.933594 44.386719 45.972656 44.46875 C 45.347656 45.097656 45.082031 45.050781 45.082031 45.050781 L 45.097656 45.070312 C 44.886719 44.824219 44.652344 44.609375 44.390625 44.425781 C 44.476562 44.183594 44.605469 43.910156 44.699219 43.710938 C 44.71875 43.71875 44.738281 43.722656 44.761719 43.722656 C 44.9375 43.734375 45.089844 43.585938 45.097656 43.390625 C 45.105469 43.195312 44.972656 43.03125 44.796875 43.019531 C 44.617188 43.007812 44.46875 43.160156 44.457031 43.351562 C 44.453125 43.453125 44.488281 43.542969 44.542969 43.609375 C 44.371094 43.925781 44.226562 44.125 44.113281 44.246094 C 43.945312 44.152344 43.765625 44.066406 43.585938 44 L 43.589844 44 C 43.519531 43.761719 43.578125 43.1875 43.628906 42.835938 C 43.648438 42.835938 43.667969 42.832031 43.6875 42.824219 C 43.859375 42.769531 43.953125 42.574219 43.902344 42.386719 C 43.855469 42.199219 43.675781 42.09375 43.503906 42.148438 " fill-opacity="1" fill-rule="nonzero"/><path fill="#f14a60" d="M 29.125 34.550781 C 29.066406 34.566406 29.035156 34.625 29.054688 34.683594 C 29.0625 34.710938 29.082031 34.734375 29.105469 34.746094 C 29.050781 35.023438 28.972656 35.066406 28.972656 35.066406 L 28.976562 35.066406 C 28.90625 35.054688 28.832031 35.046875 28.757812 35.046875 C 28.730469 35.046875 28.703125 35.046875 28.675781 35.050781 C 28.652344 34.972656 28.636719 34.878906 28.628906 34.8125 C 28.636719 34.8125 28.640625 34.808594 28.648438 34.804688 C 28.695312 34.773438 28.710938 34.707031 28.675781 34.65625 C 28.644531 34.605469 28.578125 34.59375 28.527344 34.625 C 28.480469 34.65625 28.464844 34.722656 28.5 34.773438 C 28.515625 34.800781 28.539062 34.816406 28.566406 34.820312 C 28.578125 34.929688 28.574219 35.007812 28.566406 35.0625 C 28.503906 35.070312 28.441406 35.085938 28.382812 35.105469 C 28.320312 35.058594 28.234375 34.90625 28.183594 34.8125 C 28.1875 34.808594 28.191406 34.800781 28.195312 34.796875 C 28.234375 34.75 28.222656 34.683594 28.175781 34.648438 C 28.128906 34.613281 28.0625 34.621094 28.027344 34.667969 C 27.992188 34.714844 28 34.78125 28.046875 34.816406 C 28.070312 34.835938 28.101562 34.84375 28.128906 34.835938 C 28.25 35.09375 28.210938 35.175781 28.210938 35.175781 L 28.210938 35.171875 C 28.121094 35.21875 28.035156 35.273438 27.960938 35.339844 C 27.898438 35.289062 27.832031 35.222656 27.785156 35.175781 C 27.785156 35.171875 27.789062 35.164062 27.792969 35.15625 C 27.8125 35.101562 27.785156 35.039062 27.730469 35.019531 C 27.675781 35 27.613281 35.027344 27.59375 35.082031 C 27.570312 35.140625 27.601562 35.199219 27.65625 35.222656 C 27.683594 35.230469 27.714844 35.230469 27.738281 35.21875 C 27.8125 35.300781 27.855469 35.363281 27.882812 35.410156 C 27.835938 35.457031 27.792969 35.507812 27.757812 35.558594 L 27.757812 35.554688 C 27.683594 35.558594 27.519531 35.484375 27.425781 35.4375 C 27.425781 35.433594 27.425781 35.425781 27.425781 35.417969 C 27.425781 35.359375 27.378906 35.3125 27.320312 35.308594 C 27.261719 35.308594 27.214844 35.359375 27.210938 35.417969 C 27.210938 35.476562 27.257812 35.523438 27.320312 35.523438 C 27.347656 35.523438 27.375 35.511719 27.394531 35.492188 C 27.644531 35.625 27.660156 35.714844 27.660156 35.714844 L 27.664062 35.710938 C 27.628906 35.773438 27.601562 35.839844 27.582031 35.90625 C 27.503906 35.898438 27.410156 35.878906 27.34375 35.863281 C 27.34375 35.855469 27.34375 35.851562 27.34375 35.84375 C 27.332031 35.785156 27.273438 35.75 27.214844 35.761719 C 27.160156 35.773438 27.121094 35.828125 27.132812 35.886719 C 27.144531 35.945312 27.203125 35.984375 27.261719 35.96875 C 27.289062 35.964844 27.316406 35.945312 27.328125 35.921875 C 27.4375 35.953125 27.507812 35.984375 27.554688 36.011719 C 27.539062 36.074219 27.53125 36.136719 27.527344 36.203125 L 27.527344 36.199219 C 27.460938 36.242188 27.289062 36.265625 27.179688 36.277344 C 27.179688 36.273438 27.175781 36.265625 27.171875 36.257812 C 27.140625 36.210938 27.074219 36.195312 27.023438 36.226562 C 26.976562 36.253906 26.960938 36.320312 26.992188 36.371094 C 27.019531 36.421875 27.085938 36.4375 27.136719 36.40625 C 27.164062 36.390625 27.179688 36.367188 27.1875 36.339844 C 27.46875 36.320312 27.527344 36.386719 27.527344 36.386719 L 27.527344 36.378906 C 27.535156 36.480469 27.558594 36.582031 27.589844 36.675781 C 27.523438 36.71875 27.4375 36.757812 27.375 36.78125 C 27.371094 36.777344 27.367188 36.773438 27.359375 36.765625 C 27.316406 36.726562 27.25 36.734375 27.210938 36.777344 C 27.171875 36.820312 27.175781 36.886719 27.21875 36.925781 C 27.261719 36.96875 27.332031 36.960938 27.371094 36.917969 C 27.390625 36.894531 27.398438 36.867188 27.394531 36.839844 C 27.5 36.800781 27.578125 36.785156 27.628906 36.777344 C 27.65625 36.835938 27.6875 36.894531 27.722656 36.949219 L 27.71875 36.945312 C 27.691406 37.015625 27.566406 37.140625 27.488281 37.214844 C 27.484375 37.210938 27.476562 37.207031 27.46875 37.203125 C 27.414062 37.183594 27.351562 37.207031 27.332031 37.261719 C 27.308594 37.316406 27.335938 37.378906 27.390625 37.402344 C 27.445312 37.425781 27.507812 37.398438 27.53125 37.34375 C 27.542969 37.316406 27.539062 37.285156 27.527344 37.257812 C 27.742188 37.078125 27.832031 37.09375 27.832031 37.09375 L 27.828125 37.085938 C 27.894531 37.164062 27.96875 37.234375 28.054688 37.292969 C 28.023438 37.363281 27.976562 37.445312 27.945312 37.503906 C 27.9375 37.503906 27.929688 37.5 27.921875 37.5 C 27.863281 37.496094 27.8125 37.539062 27.808594 37.597656 C 27.800781 37.65625 27.84375 37.707031 27.90625 37.714844 C 27.964844 37.71875 28.015625 37.675781 28.019531 37.617188 C 28.023438 37.585938 28.011719 37.558594 27.996094 37.535156 C 28.054688 37.445312 28.105469 37.386719 28.144531 37.347656 C 28.199219 37.378906 28.257812 37.40625 28.316406 37.429688 C 28.339844 37.503906 28.3125 37.675781 28.289062 37.785156 C 28.285156 37.785156 28.277344 37.785156 28.269531 37.785156 C 28.214844 37.800781 28.179688 37.859375 28.195312 37.917969 C 28.207031 37.972656 28.265625 38.007812 28.324219 37.992188 C 28.382812 37.980469 28.417969 37.921875 28.402344 37.863281 C 28.394531 37.835938 28.375 37.8125 28.351562 37.796875 C 28.414062 37.523438 28.496094 37.484375 28.496094 37.484375 L 28.492188 37.484375 C 28.578125 37.5 28.664062 37.511719 28.757812 37.511719 C 28.769531 37.511719 28.78125 37.511719 28.792969 37.511719 C 28.8125 37.585938 28.824219 37.679688 28.832031 37.746094 C 28.824219 37.75 28.816406 37.753906 28.8125 37.757812 C 28.761719 37.785156 28.746094 37.851562 28.777344 37.902344 C 28.804688 37.953125 28.871094 37.96875 28.921875 37.9375 C 28.972656 37.910156 28.988281 37.84375 28.957031 37.792969 C 28.941406 37.765625 28.917969 37.75 28.890625 37.742188 C 28.882812 37.632812 28.890625 37.554688 28.902344 37.503906 C 28.964844 37.496094 29.027344 37.484375 29.089844 37.464844 L 29.085938 37.464844 C 29.148438 37.511719 29.226562 37.667969 29.273438 37.765625 C 29.269531 37.769531 29.265625 37.773438 29.261719 37.78125 C 29.222656 37.828125 29.230469 37.894531 29.277344 37.929688 C 29.324219 37.96875 29.390625 37.960938 29.425781 37.914062 C 29.464844 37.871094 29.457031 37.800781 29.410156 37.765625 C 29.386719 37.746094 29.359375 37.738281 29.332031 37.742188 C 29.21875 37.480469 29.261719 37.402344 29.261719 37.402344 L 29.257812 37.40625 C 29.351562 37.363281 29.4375 37.308594 29.515625 37.246094 C 29.578125 37.300781 29.640625 37.367188 29.6875 37.417969 C 29.683594 37.421875 29.679688 37.429688 29.679688 37.433594 C 29.65625 37.488281 29.683594 37.550781 29.738281 37.574219 C 29.792969 37.597656 29.851562 37.570312 29.875 37.515625 C 29.898438 37.460938 29.871094 37.398438 29.816406 37.375 C 29.789062 37.367188 29.761719 37.367188 29.734375 37.378906 C 29.664062 37.292969 29.621094 37.226562 29.597656 37.179688 C 29.644531 37.132812 29.691406 37.085938 29.730469 37.035156 L 29.726562 37.039062 C 29.804688 37.039062 29.960938 37.117188 30.058594 37.167969 C 30.054688 37.171875 30.054688 37.179688 30.054688 37.1875 C 30.050781 37.246094 30.097656 37.296875 30.15625 37.300781 C 30.214844 37.300781 30.265625 37.257812 30.265625 37.199219 C 30.269531 37.140625 30.226562 37.089844 30.164062 37.085938 C 30.136719 37.085938 30.109375 37.09375 30.085938 37.113281 C 29.84375 36.972656 29.832031 36.882812 29.832031 36.882812 L 29.828125 36.886719 C 29.878906 36.800781 29.917969 36.707031 29.945312 36.605469 C 30.023438 36.613281 30.117188 36.628906 30.183594 36.640625 C 30.183594 36.648438 30.183594 36.65625 30.183594 36.660156 C 30.199219 36.71875 30.257812 36.753906 30.3125 36.738281 C 30.371094 36.726562 30.40625 36.667969 30.390625 36.609375 C 30.378906 36.554688 30.320312 36.515625 30.261719 36.53125 C 30.234375 36.539062 30.210938 36.558594 30.195312 36.582031 C 30.085938 36.554688 30.015625 36.527344 29.96875 36.503906 C 29.980469 36.4375 29.988281 36.375 29.988281 36.308594 L 29.988281 36.3125 C 30.050781 36.269531 30.222656 36.238281 30.332031 36.222656 C 30.332031 36.226562 30.335938 36.234375 30.339844 36.238281 C 30.371094 36.289062 30.4375 36.300781 30.488281 36.269531 C 30.539062 36.238281 30.550781 36.171875 30.519531 36.121094 C 30.484375 36.070312 30.417969 36.058594 30.371094 36.089844 C 30.34375 36.109375 30.328125 36.132812 30.324219 36.160156 C 30.042969 36.191406 29.980469 36.128906 29.980469 36.128906 L 29.980469 36.132812 C 29.96875 36.03125 29.941406 35.929688 29.90625 35.839844 C 29.972656 35.796875 30.058594 35.753906 30.117188 35.726562 C 30.121094 35.730469 30.128906 35.734375 30.132812 35.738281 C 30.179688 35.777344 30.246094 35.769531 30.285156 35.726562 C 30.320312 35.679688 30.316406 35.613281 30.269531 35.574219 C 30.222656 35.535156 30.15625 35.542969 30.117188 35.589844 C 30.097656 35.613281 30.09375 35.640625 30.09375 35.667969 C 29.992188 35.710938 29.917969 35.730469 29.863281 35.738281 C 29.835938 35.679688 29.800781 35.625 29.765625 35.570312 L 29.769531 35.574219 C 29.792969 35.503906 29.914062 35.375 29.988281 35.296875 C 29.996094 35.300781 30 35.304688 30.007812 35.308594 C 30.0625 35.328125 30.125 35.296875 30.144531 35.242188 C 30.164062 35.1875 30.136719 35.125 30.078125 35.105469 C 30.023438 35.085938 29.964844 35.113281 29.941406 35.171875 C 29.933594 35.199219 29.933594 35.230469 29.949219 35.253906 C 29.738281 35.445312 29.652344 35.429688 29.652344 35.429688 L 29.65625 35.4375 C 29.585938 35.363281 29.507812 35.296875 29.421875 35.242188 C 29.449219 35.167969 29.492188 35.082031 29.523438 35.023438 C 29.53125 35.027344 29.535156 35.027344 29.542969 35.027344 C 29.601562 35.03125 29.652344 34.984375 29.65625 34.925781 C 29.660156 34.867188 29.613281 34.816406 29.554688 34.8125 C 29.496094 34.8125 29.445312 34.855469 29.441406 34.914062 C 29.441406 34.945312 29.453125 34.972656 29.472656 34.992188 C 29.414062 35.089844 29.363281 35.148438 29.328125 35.1875 C 29.269531 35.15625 29.210938 35.132812 29.152344 35.113281 C 29.128906 35.039062 29.148438 34.863281 29.167969 34.757812 C 29.171875 34.757812 29.179688 34.757812 29.1875 34.753906 C 29.242188 34.738281 29.273438 34.679688 29.257812 34.621094 C 29.242188 34.566406 29.179688 34.53125 29.125 34.550781 " fill-opacity="1" fill-rule="nonzero"/></svg>