<svg xmlns="http://www.w3.org/2000/svg" xmlns:xlink="http://www.w3.org/1999/xlink" width="150" zoomAndPan="magnify" viewBox="0 0 112.5 112.499997" height="150" preserveAspectRatio="xMidYMid meet" version="1.0"><defs><clipPath id="8813d5ffce"><path d="M 0 0 L 112.003906 0 L 112.003906 112.003906 L 0 112.003906 Z M 0 0 " clip-rule="nonzero"/></clipPath></defs><g clip-path="url(#8813d5ffce)"><path fill="#000000" d="M 112.5 0 L 0 0 L 0 112.5 L 112.5 112.5 Z M 107.8125 4.6875 L 107.8125 25.78125 L 4.6875 25.78125 L 4.6875 4.6875 Z M 39.84375 91.40625 L 39.84375 79.6875 L 72.65625 79.6875 L 72.65625 91.40625 Z M 72.65625 96.09375 L 72.65625 107.8125 L 39.84375 107.8125 L 39.84375 96.09375 Z M 39.84375 58.59375 L 39.84375 46.875 L 72.65625 46.875 L 72.65625 58.59375 Z M 72.65625 63.28125 L 72.65625 75 L 39.84375 75 L 39.84375 63.28125 Z M 39.84375 42.1875 L 39.84375 30.46875 L 72.65625 30.46875 L 72.65625 42.1875 Z M 35.15625 42.1875 L 4.6875 42.1875 L 4.6875 30.46875 L 35.15625 30.46875 Z M 35.15625 46.875 L 35.15625 58.59375 L 4.6875 58.59375 L 4.6875 46.875 Z M 35.15625 63.28125 L 35.15625 75 L 4.6875 75 L 4.6875 63.28125 Z M 35.15625 79.6875 L 35.15625 91.40625 L 4.6875 91.40625 L 4.6875 79.6875 Z M 77.34375 79.6875 L 107.8125 79.6875 L 107.8125 91.40625 L 77.34375 91.40625 Z M 77.34375 75 L 77.34375 63.28125 L 107.8125 63.28125 L 107.8125 75 Z M 77.34375 58.59375 L 77.34375 46.875 L 107.8125 46.875 L 107.8125 58.59375 Z M 77.34375 42.1875 L 77.34375 30.46875 L 107.8125 30.46875 L 107.8125 42.1875 Z M 4.6875 96.09375 L 35.15625 96.09375 L 35.15625 107.8125 L 4.6875 107.8125 Z M 77.34375 107.8125 L 77.34375 96.09375 L 107.8125 96.09375 L 107.8125 107.8125 Z M 77.34375 107.8125 " fill-opacity="1" fill-rule="nonzero"/></g></svg>