<svg xmlns="http://www.w3.org/2000/svg" xmlns:xlink="http://www.w3.org/1999/xlink" width="150" zoomAndPan="magnify" viewBox="0 0 112.5 112.499997" height="150" preserveAspectRatio="xMidYMid meet" version="1.0"><defs><clipPath id="06804eca6d"><path d="M 0 0 L 112.003906 0 L 112.003906 112.003906 L 0 112.003906 Z M 0 0 " clip-rule="nonzero"/></clipPath></defs><g clip-path="url(#06804eca6d)"><path fill="#000000" d="M 110.636719 108.75 L 108.761719 108.75 L 108.761719 76.875 C 108.761719 76.625 108.714844 76.386719 108.617188 76.15625 C 108.523438 75.929688 108.386719 75.726562 108.210938 75.550781 C 108.035156 75.375 107.832031 75.238281 107.605469 75.144531 C 107.375 75.046875 107.136719 75 106.886719 75 L 95.636719 75 C 95.386719 75 95.148438 75.046875 94.917969 75.144531 C 94.691406 75.238281 94.488281 75.375 94.3125 75.550781 C 94.136719 75.726562 94 75.929688 93.90625 76.15625 C 93.808594 76.386719 93.761719 76.625 93.761719 76.875 L 93.761719 108.75 L 86.261719 108.75 L 86.261719 1.875 C 86.261719 1.625 86.214844 1.386719 86.117188 1.15625 C 86.023438 0.929688 85.886719 0.726562 85.710938 0.550781 C 85.535156 0.375 85.332031 0.238281 85.105469 0.144531 C 84.875 0.046875 84.636719 0 84.386719 0 L 73.136719 0 C 72.886719 0 72.648438 0.046875 72.417969 0.144531 C 72.191406 0.238281 71.988281 0.375 71.8125 0.550781 C 71.636719 0.726562 71.5 0.929688 71.40625 1.15625 C 71.308594 1.386719 71.261719 1.625 71.261719 1.875 L 71.261719 108.75 L 63.761719 108.75 L 63.761719 22.5 C 63.761719 22.25 63.714844 22.011719 63.617188 21.78125 C 63.523438 21.554688 63.386719 21.351562 63.210938 21.175781 C 63.035156 21 62.832031 20.863281 62.605469 20.769531 C 62.375 20.671875 62.136719 20.625 61.886719 20.625 L 50.636719 20.625 C 50.386719 20.625 50.148438 20.671875 49.917969 20.769531 C 49.691406 20.863281 49.488281 21 49.3125 21.175781 C 49.136719 21.351562 49 21.554688 48.90625 21.78125 C 48.808594 22.011719 48.761719 22.25 48.761719 22.5 L 48.761719 108.75 L 41.261719 108.75 L 41.261719 58.125 C 41.261719 57.875 41.214844 57.636719 41.117188 57.40625 C 41.023438 57.179688 40.886719 56.976562 40.710938 56.800781 C 40.535156 56.625 40.332031 56.488281 40.105469 56.394531 C 39.875 56.296875 39.636719 56.25 39.386719 56.25 L 28.136719 56.25 C 27.886719 56.25 27.648438 56.296875 27.417969 56.394531 C 27.191406 56.488281 26.988281 56.625 26.8125 56.800781 C 26.636719 56.976562 26.5 57.179688 26.40625 57.40625 C 26.308594 57.636719 26.261719 57.875 26.261719 58.125 L 26.261719 108.75 L 18.761719 108.75 L 18.761719 39.375 C 18.761719 39.125 18.714844 38.886719 18.617188 38.65625 C 18.523438 38.429688 18.386719 38.226562 18.210938 38.050781 C 18.035156 37.875 17.832031 37.738281 17.605469 37.644531 C 17.375 37.546875 17.136719 37.5 16.886719 37.5 L 5.636719 37.5 C 5.386719 37.5 5.148438 37.546875 4.917969 37.644531 C 4.691406 37.738281 4.488281 37.875 4.3125 38.050781 C 4.136719 38.226562 4 38.429688 3.90625 38.65625 C 3.808594 38.886719 3.761719 39.125 3.761719 39.375 L 3.761719 108.75 L 1.886719 108.75 C 1.636719 108.75 1.398438 108.796875 1.167969 108.894531 C 0.941406 108.988281 0.738281 109.125 0.5625 109.300781 C 0.386719 109.476562 0.25 109.679688 0.15625 109.90625 C 0.0585938 110.136719 0.0117188 110.375 0.0117188 110.625 C 0.0117188 110.875 0.0585938 111.113281 0.15625 111.34375 C 0.25 111.570312 0.386719 111.773438 0.5625 111.949219 C 0.738281 112.125 0.941406 112.261719 1.167969 112.355469 C 1.398438 112.453125 1.636719 112.5 1.886719 112.5 L 110.636719 112.5 C 110.886719 112.5 111.125 112.453125 111.355469 112.355469 C 111.582031 112.261719 111.785156 112.125 111.960938 111.949219 C 112.136719 111.773438 112.273438 111.570312 112.367188 111.34375 C 112.464844 111.113281 112.511719 110.875 112.511719 110.625 C 112.511719 110.375 112.464844 110.136719 112.367188 109.90625 C 112.273438 109.679688 112.136719 109.476562 111.960938 109.300781 C 111.785156 109.125 111.582031 108.988281 111.355469 108.894531 C 111.125 108.796875 110.886719 108.75 110.636719 108.75 Z M 110.636719 108.75 " fill-opacity="1" fill-rule="nonzero"/></g></svg>