<svg xmlns="http://www.w3.org/2000/svg" xmlns:xlink="http://www.w3.org/1999/xlink" width="150" zoomAndPan="magnify" viewBox="0 0 112.5 112.499997" height="150" preserveAspectRatio="xMidYMid meet" version="1.0"><defs><clipPath id="0a77be7d4a"><path d="M 0 48 L 112.003906 48 L 112.003906 90.398438 L 0 90.398438 Z M 0 48 " clip-rule="nonzero"/></clipPath><clipPath id="5bc68e3b6e"><path d="M 32 22.148438 L 60 22.148438 L 60 65 L 32 65 Z M 32 22.148438 " clip-rule="nonzero"/></clipPath></defs><g clip-path="url(#0a77be7d4a)"><path fill="#040606" d="M 106.359375 82.273438 C 105.351562 82.699219 104.300781 83.078125 103.203125 83.414062 C 102.101562 83.753906 100.953125 84.046875 99.753906 84.296875 C 98.554688 84.546875 97.300781 84.753906 95.996094 84.914062 C 94.019531 85.160156 92.003906 85.300781 89.949219 85.359375 C 87.886719 85.421875 85.789062 85.402344 83.65625 85.320312 C 81.519531 85.246094 79.347656 85.113281 77.140625 84.953125 C 74.929688 84.792969 72.691406 84.601562 70.414062 84.410156 C 68.164062 84.21875 65.894531 84.027344 63.617188 83.863281 C 61.335938 83.699219 59.042969 83.5625 56.757812 83.480469 C 54.46875 83.398438 52.179688 83.375 49.90625 83.4375 C 47.628906 83.5 45.363281 83.644531 43.121094 83.910156 C 41.707031 84.078125 40.335938 84.285156 39 84.539062 C 37.660156 84.792969 36.359375 85.085938 35.085938 85.425781 C 33.808594 85.769531 32.566406 86.15625 31.347656 86.589844 C 30.125 87.023438 28.929688 87.507812 27.757812 88.039062 L 3.191406 55.304688 C 4.300781 54.859375 5.429688 54.457031 6.578125 54.097656 C 7.726562 53.742188 8.894531 53.425781 10.089844 53.148438 C 11.28125 52.878906 12.5 52.644531 13.75 52.449219 C 14.996094 52.257812 16.273438 52.105469 17.585938 51.988281 C 19.5625 51.8125 21.542969 51.730469 23.53125 51.714844 C 25.515625 51.699219 27.515625 51.75 29.53125 51.847656 C 31.542969 51.945312 33.574219 52.089844 35.628906 52.253906 C 37.679688 52.421875 39.757812 52.609375 41.855469 52.800781 C 43.929688 52.992188 46.015625 53.183594 48.109375 53.355469 C 50.199219 53.519531 52.289062 53.664062 54.375 53.765625 C 56.453125 53.863281 58.523438 53.914062 60.566406 53.894531 C 62.609375 53.875 64.621094 53.785156 66.59375 53.597656 C 67.828125 53.484375 69.019531 53.335938 70.167969 53.152344 C 71.316406 52.96875 72.417969 52.75 73.488281 52.5 C 74.546875 52.25 75.574219 51.960938 76.5625 51.640625 C 77.546875 51.320312 78.496094 50.96875 79.414062 50.578125 L 109.242188 80.871094 C 108.324219 81.382812 107.363281 81.847656 106.359375 82.273438 Z M 112.441406 81.246094 C 112.40625 81.175781 112.351562 81.101562 112.28125 81.03125 L 80.832031 49.34375 C 80.777344 49.292969 80.710938 49.238281 80.632812 49.191406 C 80.554688 49.140625 80.46875 49.09375 80.371094 49.050781 C 80.277344 49.007812 80.171875 48.972656 80.0625 48.9375 C 79.953125 48.902344 79.839844 48.878906 79.71875 48.855469 C 79.65625 48.847656 79.59375 48.835938 79.53125 48.828125 C 79.46875 48.820312 79.40625 48.816406 79.347656 48.8125 C 79.285156 48.8125 79.226562 48.8125 79.167969 48.8125 C 79.105469 48.8125 79.050781 48.8125 78.996094 48.820312 C 78.949219 48.820312 78.902344 48.828125 78.859375 48.835938 C 78.816406 48.84375 78.773438 48.851562 78.734375 48.859375 C 78.695312 48.871094 78.65625 48.878906 78.621094 48.894531 C 78.582031 48.902344 78.550781 48.917969 78.515625 48.933594 C 77.585938 49.375 76.621094 49.773438 75.621094 50.132812 C 74.609375 50.488281 73.566406 50.8125 72.476562 51.089844 C 71.382812 51.367188 70.246094 51.605469 69.0625 51.804688 C 67.875 52.003906 66.640625 52.160156 65.355469 52.28125 C 63.503906 52.453125 61.625 52.535156 59.714844 52.550781 C 57.796875 52.570312 55.855469 52.519531 53.886719 52.425781 C 51.914062 52.328125 49.914062 52.191406 47.886719 52.023438 C 45.855469 51.859375 43.796875 51.671875 41.707031 51.476562 C 39.640625 51.285156 37.554688 51.09375 35.457031 50.925781 C 33.359375 50.753906 31.253906 50.605469 29.144531 50.503906 C 27.035156 50.402344 24.925781 50.347656 22.820312 50.363281 C 20.707031 50.375 18.605469 50.464844 16.511719 50.648438 C 15.035156 50.777344 13.601562 50.949219 12.203125 51.167969 C 10.800781 51.386719 9.441406 51.652344 8.109375 51.960938 C 6.773438 52.273438 5.46875 52.636719 4.191406 53.042969 C 2.910156 53.457031 1.65625 53.917969 0.421875 54.429688 C 0.324219 54.46875 0.246094 54.515625 0.183594 54.566406 C 0.121094 54.617188 0.0742188 54.675781 0.046875 54.734375 C 0.0234375 54.792969 0.0117188 54.855469 0.0234375 54.917969 C 0.03125 54.984375 0.0625 55.046875 0.109375 55.113281 L 25.777344 89.714844 C 25.835938 89.789062 25.90625 89.859375 25.988281 89.921875 C 26.070312 89.988281 26.164062 90.046875 26.273438 90.101562 C 26.378906 90.15625 26.496094 90.207031 26.617188 90.246094 C 26.742188 90.289062 26.875 90.320312 27.011719 90.347656 C 27.085938 90.363281 27.164062 90.371094 27.238281 90.378906 C 27.3125 90.390625 27.390625 90.390625 27.464844 90.394531 C 27.539062 90.398438 27.609375 90.398438 27.683594 90.394531 C 27.753906 90.390625 27.824219 90.386719 27.890625 90.378906 C 27.949219 90.371094 28.003906 90.363281 28.054688 90.351562 C 28.109375 90.34375 28.160156 90.328125 28.210938 90.316406 C 28.261719 90.300781 28.308594 90.285156 28.355469 90.265625 C 28.398438 90.25 28.441406 90.230469 28.484375 90.210938 C 29.691406 89.59375 30.929688 89.035156 32.191406 88.535156 C 33.449219 88.035156 34.738281 87.59375 36.058594 87.207031 C 37.375 86.820312 38.730469 86.488281 40.121094 86.210938 C 41.507812 85.929688 42.9375 85.703125 44.414062 85.527344 C 46.53125 85.277344 48.664062 85.132812 50.816406 85.070312 C 52.960938 85.007812 55.125 85.035156 57.3125 85.109375 C 59.496094 85.1875 61.703125 85.320312 63.941406 85.480469 C 66.171875 85.644531 68.433594 85.835938 70.722656 86.03125 C 72.980469 86.21875 75.253906 86.410156 77.53125 86.574219 C 79.800781 86.734375 82.074219 86.871094 84.332031 86.949219 C 86.585938 87.023438 88.820312 87.046875 91.023438 86.980469 C 93.21875 86.914062 95.378906 86.761719 97.480469 86.496094 C 98.957031 86.308594 100.371094 86.074219 101.71875 85.785156 C 103.070312 85.496094 104.351562 85.160156 105.582031 84.765625 C 106.804688 84.378906 107.96875 83.933594 109.082031 83.441406 C 110.191406 82.949219 111.242188 82.402344 112.25 81.808594 C 112.324219 81.761719 112.382812 81.707031 112.425781 81.648438 C 112.464844 81.589844 112.484375 81.527344 112.488281 81.457031 C 112.488281 81.386719 112.472656 81.320312 112.441406 81.246094 " fill-opacity="1" fill-rule="nonzero"/></g><path fill="#040606" d="M 86.738281 66.957031 C 86.085938 67.152344 85.414062 67.332031 84.722656 67.488281 C 84.03125 67.648438 83.316406 67.785156 82.585938 67.90625 C 81.851562 68.027344 81.09375 68.128906 80.316406 68.214844 C 79.601562 68.289062 78.875 68.351562 78.136719 68.398438 C 77.398438 68.445312 76.648438 68.476562 75.890625 68.496094 C 75.128906 68.515625 74.355469 68.519531 73.574219 68.515625 C 72.792969 68.507812 72 68.496094 71.199219 68.46875 L 64.363281 56.929688 C 64.789062 56.914062 65.210938 56.898438 65.632812 56.878906 C 66.054688 56.859375 66.476562 56.835938 66.898438 56.808594 C 67.320312 56.78125 67.742188 56.753906 68.160156 56.71875 C 68.582031 56.6875 69 56.648438 69.421875 56.609375 C 70.191406 56.535156 70.945312 56.449219 71.683594 56.355469 C 72.417969 56.257812 73.136719 56.148438 73.839844 56.035156 C 74.542969 55.914062 75.234375 55.785156 75.90625 55.644531 C 76.582031 55.503906 77.238281 55.355469 77.886719 55.1875 L 88.648438 66.316406 C 88.027344 66.546875 87.390625 66.761719 86.738281 66.957031 Z M 99.246094 79.988281 C 98.582031 80.207031 97.898438 80.402344 97.195312 80.578125 C 96.488281 80.753906 95.761719 80.910156 95.015625 81.046875 C 94.261719 81.183594 93.492188 81.300781 92.691406 81.398438 C 91.644531 81.523438 90.566406 81.617188 89.46875 81.675781 C 88.367188 81.734375 87.238281 81.769531 86.089844 81.769531 C 84.941406 81.777344 83.769531 81.757812 82.578125 81.71875 C 81.382812 81.675781 80.171875 81.617188 78.941406 81.542969 L 71.640625 69.210938 C 72.457031 69.238281 73.265625 69.253906 74.066406 69.257812 C 74.863281 69.257812 75.65625 69.253906 76.4375 69.234375 C 77.214844 69.210938 77.984375 69.179688 78.746094 69.128906 C 79.507812 69.078125 80.253906 69.015625 80.992188 68.9375 C 81.777344 68.851562 82.535156 68.75 83.273438 68.628906 C 84.015625 68.507812 84.730469 68.371094 85.425781 68.214844 C 86.121094 68.0625 86.796875 67.886719 87.457031 67.695312 C 88.113281 67.503906 88.753906 67.292969 89.378906 67.066406 L 101.1875 79.277344 C 100.558594 79.535156 99.910156 79.773438 99.246094 79.988281 Z M 75.523438 81.308594 C 74.890625 81.261719 74.25 81.207031 73.609375 81.15625 C 72.96875 81.105469 72.320312 81.050781 71.675781 80.996094 C 71.023438 80.941406 70.371094 80.882812 69.714844 80.828125 C 68.386719 80.714844 67.046875 80.601562 65.703125 80.492188 C 64.363281 80.382812 63.011719 80.28125 61.65625 80.183594 C 60.300781 80.089844 58.9375 80.007812 57.570312 79.9375 C 56.203125 79.871094 54.832031 79.820312 53.457031 79.789062 L 45.628906 67.332031 C 46.6875 67.382812 47.742188 67.445312 48.792969 67.515625 C 49.84375 67.582031 50.894531 67.660156 51.941406 67.742188 C 52.984375 67.824219 54.027344 67.910156 55.0625 68 C 56.101562 68.085938 57.132812 68.175781 58.160156 68.269531 C 59.203125 68.359375 60.234375 68.449219 61.253906 68.539062 C 62.277344 68.625 63.289062 68.710938 64.296875 68.789062 C 65.296875 68.867188 66.292969 68.9375 67.277344 69.003906 C 68.261719 69.0625 69.234375 69.117188 70.195312 69.160156 L 77.410156 81.445312 C 76.785156 81.402344 76.15625 81.355469 75.523438 81.308594 Z M 49.046875 79.769531 C 48.074219 79.785156 47.101562 79.8125 46.128906 79.859375 C 45.152344 79.902344 44.175781 79.960938 43.195312 80.035156 C 42.214844 80.113281 41.230469 80.207031 40.246094 80.320312 C 39.375 80.417969 38.519531 80.53125 37.683594 80.65625 C 36.839844 80.78125 36.015625 80.921875 35.203125 81.074219 C 34.390625 81.226562 33.589844 81.394531 32.796875 81.574219 C 32.003906 81.757812 31.222656 81.953125 30.449219 82.164062 L 27.742188 78.644531 L 48.074219 73.5625 L 51.945312 79.765625 C 50.980469 79.753906 50.015625 79.753906 49.046875 79.769531 Z M 22.828125 68.738281 C 23.597656 68.570312 24.378906 68.417969 25.171875 68.277344 C 25.964844 68.144531 26.765625 68.015625 27.582031 67.902344 C 28.398438 67.792969 29.230469 67.695312 30.078125 67.605469 C 31.261719 67.484375 32.441406 67.390625 33.625 67.320312 C 34.800781 67.253906 35.976562 67.210938 37.148438 67.1875 C 38.320312 67.164062 39.492188 67.160156 40.660156 67.175781 C 41.820312 67.1875 42.988281 67.222656 44.144531 67.265625 L 47.570312 72.753906 L 27.121094 77.839844 L 20.535156 69.28125 C 21.289062 69.085938 22.054688 68.902344 22.828125 68.738281 Z M 13.125 56.210938 C 13.855469 56.023438 14.59375 55.859375 15.347656 55.710938 C 16.101562 55.5625 16.867188 55.4375 17.648438 55.324219 C 18.425781 55.21875 19.21875 55.125 20.035156 55.050781 C 20.789062 54.980469 21.546875 54.925781 22.316406 54.890625 C 23.085938 54.851562 23.859375 54.828125 24.640625 54.816406 C 25.425781 54.804688 26.210938 54.804688 27.007812 54.816406 C 27.804688 54.828125 28.605469 54.851562 29.414062 54.882812 L 32.84375 66.597656 C 32.566406 66.613281 32.289062 66.632812 32.007812 66.652344 C 31.730469 66.671875 31.449219 66.695312 31.171875 66.714844 C 30.890625 66.738281 30.609375 66.761719 30.332031 66.789062 C 30.050781 66.816406 29.769531 66.839844 29.488281 66.871094 C 28.640625 66.957031 27.808594 67.054688 26.992188 67.164062 C 26.175781 67.277344 25.371094 67.398438 24.582031 67.535156 C 23.789062 67.671875 23.007812 67.820312 22.238281 67.984375 C 21.464844 68.144531 20.699219 68.320312 19.941406 68.507812 L 10.953125 56.828125 C 11.667969 56.601562 12.390625 56.398438 13.125 56.210938 Z M 33.617188 55.113281 C 34.550781 55.179688 35.492188 55.25 36.445312 55.328125 C 37.390625 55.402344 38.347656 55.484375 39.3125 55.574219 C 40.273438 55.65625 41.242188 55.746094 42.21875 55.832031 C 42.933594 55.898438 43.648438 55.964844 44.367188 56.027344 C 45.085938 56.089844 45.804688 56.15625 46.527344 56.214844 C 47.246094 56.277344 47.96875 56.339844 48.691406 56.398438 C 49.414062 56.453125 50.136719 56.507812 50.863281 56.5625 L 52.03125 67.027344 C 50.578125 66.910156 49.121094 66.808594 47.65625 66.714844 C 46.191406 66.625 44.71875 66.550781 43.242188 66.5 C 41.765625 66.449219 40.277344 66.417969 38.789062 66.417969 C 37.292969 66.421875 35.792969 66.453125 34.289062 66.519531 L 30.839844 54.945312 C 31.757812 54.992188 32.683594 55.050781 33.617188 55.113281 Z M 54.96875 56.8125 C 55.863281 56.859375 56.761719 56.894531 57.65625 56.921875 C 58.554688 56.949219 59.449219 56.964844 60.347656 56.976562 C 61.242188 56.980469 62.136719 56.976562 63.03125 56.960938 L 69.757812 68.414062 C 68.824219 68.371094 67.875 68.316406 66.917969 68.257812 C 65.960938 68.195312 64.996094 68.125 64.019531 68.050781 C 63.042969 67.972656 62.054688 67.890625 61.058594 67.808594 C 60.0625 67.71875 59.058594 67.632812 58.050781 67.542969 C 57.671875 67.511719 57.292969 67.476562 56.917969 67.441406 C 56.539062 67.410156 56.160156 67.375 55.78125 67.34375 C 55.402344 67.308594 55.023438 67.277344 54.644531 67.242188 C 54.261719 67.210938 53.882812 67.179688 53.5 67.148438 L 52.28125 56.65625 C 53.175781 56.714844 54.070312 56.769531 54.96875 56.8125 Z M 78.628906 54.578125 C 78.59375 54.558594 78.554688 54.535156 78.511719 54.515625 C 78.472656 54.496094 78.425781 54.476562 78.375 54.457031 C 78.328125 54.441406 78.273438 54.425781 78.21875 54.414062 C 78.179688 54.402344 78.144531 54.398438 78.105469 54.390625 C 78.066406 54.386719 78.03125 54.378906 77.992188 54.375 C 77.957031 54.375 77.921875 54.375 77.882812 54.375 C 77.847656 54.375 77.8125 54.375 77.78125 54.378906 C 77.769531 54.378906 77.757812 54.382812 77.746094 54.382812 C 77.730469 54.386719 77.71875 54.386719 77.707031 54.390625 C 77.695312 54.390625 77.683594 54.394531 77.671875 54.394531 C 77.660156 54.398438 77.648438 54.402344 77.640625 54.402344 C 76.964844 54.585938 76.277344 54.75 75.574219 54.902344 C 74.871094 55.054688 74.152344 55.195312 73.417969 55.320312 C 72.683594 55.449219 71.929688 55.5625 71.160156 55.664062 C 70.390625 55.769531 69.597656 55.859375 68.789062 55.9375 C 66.601562 56.148438 64.394531 56.253906 62.175781 56.28125 C 59.949219 56.308594 57.71875 56.261719 55.484375 56.160156 C 53.25 56.0625 51.015625 55.910156 48.789062 55.734375 C 46.558594 55.554688 44.339844 55.355469 42.140625 55.152344 C 40.140625 54.972656 38.164062 54.792969 36.21875 54.632812 C 34.269531 54.476562 32.351562 54.339844 30.464844 54.246094 C 28.574219 54.15625 26.714844 54.101562 24.890625 54.117188 C 23.054688 54.128906 21.253906 54.203125 19.488281 54.367188 C 18.597656 54.445312 17.730469 54.546875 16.878906 54.667969 C 16.027344 54.789062 15.195312 54.929688 14.375 55.09375 C 13.550781 55.257812 12.746094 55.445312 11.949219 55.652344 C 11.152344 55.859375 10.367188 56.089844 9.589844 56.34375 C 9.535156 56.359375 9.488281 56.382812 9.453125 56.410156 C 9.414062 56.4375 9.386719 56.46875 9.367188 56.5 C 9.351562 56.53125 9.34375 56.566406 9.347656 56.601562 C 9.351562 56.636719 9.367188 56.671875 9.398438 56.710938 L 29.390625 82.835938 C 29.417969 82.871094 29.449219 82.902344 29.484375 82.929688 C 29.519531 82.957031 29.558594 82.988281 29.605469 83.007812 C 29.648438 83.035156 29.699219 83.054688 29.75 83.078125 C 29.800781 83.09375 29.855469 83.113281 29.910156 83.125 C 29.953125 83.136719 29.996094 83.144531 30.039062 83.148438 C 30.085938 83.160156 30.128906 83.164062 30.171875 83.167969 C 30.210938 83.171875 30.253906 83.171875 30.296875 83.171875 C 30.335938 83.171875 30.375 83.167969 30.414062 83.160156 C 30.429688 83.160156 30.445312 83.160156 30.460938 83.15625 C 30.476562 83.152344 30.492188 83.148438 30.507812 83.148438 C 30.519531 83.144531 30.535156 83.140625 30.550781 83.136719 C 30.566406 83.136719 30.578125 83.128906 30.59375 83.125 C 31.40625 82.890625 32.226562 82.675781 33.054688 82.472656 C 33.886719 82.273438 34.726562 82.089844 35.582031 81.925781 C 36.433594 81.757812 37.296875 81.605469 38.179688 81.46875 C 39.0625 81.335938 39.960938 81.214844 40.878906 81.113281 C 43.339844 80.824219 45.792969 80.664062 48.242188 80.597656 C 50.679688 80.53125 53.113281 80.558594 55.535156 80.640625 C 57.953125 80.722656 60.359375 80.871094 62.753906 81.042969 C 65.140625 81.214844 67.515625 81.417969 69.867188 81.617188 C 72 81.800781 74.101562 81.980469 76.164062 82.132812 C 78.222656 82.285156 80.242188 82.410156 82.21875 82.488281 C 84.191406 82.566406 86.117188 82.59375 87.988281 82.550781 C 89.855469 82.503906 91.667969 82.386719 93.417969 82.171875 C 94.296875 82.066406 95.144531 81.9375 95.964844 81.785156 C 96.785156 81.632812 97.574219 81.457031 98.339844 81.261719 C 99.109375 81.066406 99.847656 80.84375 100.566406 80.601562 C 101.285156 80.355469 101.980469 80.089844 102.65625 79.800781 C 102.707031 79.777344 102.75 79.753906 102.777344 79.722656 C 102.808594 79.691406 102.824219 79.65625 102.832031 79.621094 C 102.839844 79.585938 102.835938 79.546875 102.820312 79.507812 C 102.804688 79.46875 102.777344 79.429688 102.742188 79.390625 L 78.71875 54.652344 C 78.691406 54.628906 78.664062 54.601562 78.628906 54.578125 " fill-opacity="1" fill-rule="nonzero"/><g clip-path="url(#5bc68e3b6e)"><path fill="#040606" d="M 46.234375 44.640625 C 41.304688 44.640625 37.308594 40.640625 37.308594 35.710938 C 37.308594 30.777344 41.304688 26.78125 46.234375 26.78125 C 51.160156 26.78125 55.15625 30.777344 55.15625 35.710938 C 55.15625 40.640625 51.160156 44.640625 46.234375 44.640625 Z M 46.234375 22.148438 C 38.75 22.148438 32.683594 28.21875 32.683594 35.710938 C 32.683594 51.160156 46.234375 64.199219 46.234375 64.199219 C 46.234375 64.199219 59.78125 51.160156 59.78125 35.710938 C 59.78125 28.21875 53.714844 22.148438 46.234375 22.148438 " fill-opacity="1" fill-rule="nonzero"/></g></svg>