<svg xmlns="http://www.w3.org/2000/svg" xmlns:xlink="http://www.w3.org/1999/xlink" width="150" zoomAndPan="magnify" viewBox="0 0 112.5 112.499997" height="150" preserveAspectRatio="xMidYMid meet" version="1.0"><path stroke-linecap="butt" transform="matrix(3.515625, 0, 0, 3.515625, 0.0000015, 0.0000301628)" fill="none" stroke-linejoin="miter" d="M 28.000003 26.999994 L 5 26.999994 L 5 3.999992 " stroke="#000000" stroke-width="2" stroke-opacity="1" stroke-miterlimit="10"/><path fill="#000000" d="M 35.15625 70.3125 C 35.15625 70.777344 35.066406 71.226562 34.886719 71.65625 C 34.710938 72.089844 34.457031 72.46875 34.125 72.796875 C 33.796875 73.128906 33.417969 73.382812 32.984375 73.558594 C 32.554688 73.738281 32.105469 73.828125 31.640625 73.828125 C 31.175781 73.828125 30.726562 73.738281 30.296875 73.558594 C 29.863281 73.382812 29.484375 73.128906 29.15625 72.796875 C 28.824219 72.46875 28.570312 72.089844 28.394531 71.65625 C 28.214844 71.226562 28.125 70.777344 28.125 70.3125 C 28.125 69.847656 28.214844 69.398438 28.394531 68.96875 C 28.570312 68.535156 28.824219 68.15625 29.15625 67.828125 C 29.484375 67.496094 29.863281 67.242188 30.296875 67.066406 C 30.726562 66.886719 31.175781 66.796875 31.640625 66.796875 C 32.105469 66.796875 32.554688 66.886719 32.984375 67.066406 C 33.417969 67.242188 33.796875 67.496094 34.125 67.828125 C 34.457031 68.15625 34.710938 68.535156 34.886719 68.96875 C 35.066406 69.398438 35.15625 69.847656 35.15625 70.3125 Z M 35.15625 70.3125 " fill-opacity="1" fill-rule="nonzero"/><path fill="#000000" d="M 52.734375 66.796875 C 52.734375 67.261719 52.644531 67.710938 52.464844 68.140625 C 52.289062 68.574219 52.035156 68.953125 51.703125 69.28125 C 51.375 69.613281 50.996094 69.867188 50.5625 70.042969 C 50.132812 70.222656 49.683594 70.3125 49.21875 70.3125 C 48.753906 70.3125 48.304688 70.222656 47.875 70.042969 C 47.441406 69.867188 47.0625 69.613281 46.734375 69.28125 C 46.402344 68.953125 46.148438 68.574219 45.972656 68.140625 C 45.792969 67.710938 45.703125 67.261719 45.703125 66.796875 C 45.703125 66.332031 45.792969 65.882812 45.972656 65.453125 C 46.148438 65.019531 46.402344 64.640625 46.734375 64.3125 C 47.0625 63.980469 47.441406 63.726562 47.875 63.550781 C 48.304688 63.371094 48.753906 63.28125 49.21875 63.28125 C 49.683594 63.28125 50.132812 63.371094 50.5625 63.550781 C 50.996094 63.726562 51.375 63.980469 51.703125 64.3125 C 52.035156 64.640625 52.289062 65.019531 52.464844 65.453125 C 52.644531 65.882812 52.734375 66.332031 52.734375 66.796875 Z M 52.734375 66.796875 " fill-opacity="1" fill-rule="nonzero"/><path fill="#000000" d="M 52.734375 80.859375 C 52.734375 81.324219 52.644531 81.773438 52.464844 82.203125 C 52.289062 82.636719 52.035156 83.015625 51.703125 83.34375 C 51.375 83.675781 50.996094 83.929688 50.5625 84.105469 C 50.132812 84.285156 49.683594 84.375 49.21875 84.375 C 48.753906 84.375 48.304688 84.285156 47.875 84.105469 C 47.441406 83.929688 47.0625 83.675781 46.734375 83.34375 C 46.402344 83.015625 46.148438 82.636719 45.972656 82.203125 C 45.792969 81.773438 45.703125 81.324219 45.703125 80.859375 C 45.703125 80.394531 45.792969 79.945312 45.972656 79.515625 C 46.148438 79.082031 46.402344 78.703125 46.734375 78.375 C 47.0625 78.042969 47.441406 77.789062 47.875 77.613281 C 48.304688 77.433594 48.753906 77.34375 49.21875 77.34375 C 49.683594 77.34375 50.132812 77.433594 50.5625 77.613281 C 50.996094 77.789062 51.375 78.042969 51.703125 78.375 C 52.035156 78.703125 52.289062 79.082031 52.464844 79.515625 C 52.644531 79.945312 52.734375 80.394531 52.734375 80.859375 Z M 52.734375 80.859375 " fill-opacity="1" fill-rule="nonzero"/><path fill="#000000" d="M 49.21875 49.21875 C 49.21875 49.683594 49.128906 50.132812 48.949219 50.5625 C 48.773438 50.996094 48.519531 51.375 48.1875 51.703125 C 47.859375 52.035156 47.480469 52.289062 47.046875 52.464844 C 46.617188 52.644531 46.167969 52.734375 45.703125 52.734375 C 45.238281 52.734375 44.789062 52.644531 44.359375 52.464844 C 43.925781 52.289062 43.546875 52.035156 43.21875 51.703125 C 42.886719 51.375 42.632812 50.996094 42.457031 50.5625 C 42.277344 50.132812 42.1875 49.683594 42.1875 49.21875 C 42.1875 48.753906 42.277344 48.304688 42.457031 47.875 C 42.632812 47.441406 42.886719 47.0625 43.21875 46.734375 C 43.546875 46.402344 43.925781 46.148438 44.359375 45.972656 C 44.789062 45.792969 45.238281 45.703125 45.703125 45.703125 C 46.167969 45.703125 46.617188 45.792969 47.046875 45.972656 C 47.480469 46.148438 47.859375 46.402344 48.1875 46.734375 C 48.519531 47.0625 48.773438 47.441406 48.949219 47.875 C 49.128906 48.304688 49.21875 48.753906 49.21875 49.21875 Z M 49.21875 49.21875 " fill-opacity="1" fill-rule="nonzero"/><path fill="#000000" d="M 66.796875 59.765625 C 66.796875 60.230469 66.707031 60.679688 66.527344 61.109375 C 66.351562 61.542969 66.097656 61.921875 65.765625 62.25 C 65.4375 62.582031 65.058594 62.835938 64.625 63.011719 C 64.195312 63.191406 63.746094 63.28125 63.28125 63.28125 C 62.816406 63.28125 62.367188 63.191406 61.9375 63.011719 C 61.503906 62.835938 61.125 62.582031 60.796875 62.25 C 60.464844 61.921875 60.210938 61.542969 60.035156 61.109375 C 59.855469 60.679688 59.765625 60.230469 59.765625 59.765625 C 59.765625 59.300781 59.855469 58.851562 60.035156 58.421875 C 60.210938 57.988281 60.464844 57.609375 60.796875 57.28125 C 61.125 56.949219 61.503906 56.695312 61.9375 56.519531 C 62.367188 56.339844 62.816406 56.25 63.28125 56.25 C 63.746094 56.25 64.195312 56.339844 64.625 56.519531 C 65.058594 56.695312 65.4375 56.949219 65.765625 57.28125 C 66.097656 57.609375 66.351562 57.988281 66.527344 58.421875 C 66.707031 58.851562 66.796875 59.300781 66.796875 59.765625 Z M 66.796875 59.765625 " fill-opacity="1" fill-rule="nonzero"/><path fill="#000000" d="M 84.375 56.25 C 84.375 56.714844 84.285156 57.164062 84.105469 57.59375 C 83.929688 58.027344 83.675781 58.40625 83.34375 58.734375 C 83.015625 59.066406 82.636719 59.320312 82.203125 59.496094 C 81.773438 59.675781 81.324219 59.765625 80.859375 59.765625 C 80.394531 59.765625 79.945312 59.675781 79.515625 59.496094 C 79.082031 59.320312 78.703125 59.066406 78.375 58.734375 C 78.042969 58.40625 77.789062 58.027344 77.613281 57.59375 C 77.433594 57.164062 77.34375 56.714844 77.34375 56.25 C 77.34375 55.785156 77.433594 55.335938 77.613281 54.90625 C 77.789062 54.472656 78.042969 54.09375 78.375 53.765625 C 78.703125 53.433594 79.082031 53.179688 79.515625 53.003906 C 79.945312 52.824219 80.394531 52.734375 80.859375 52.734375 C 81.324219 52.734375 81.773438 52.824219 82.203125 53.003906 C 82.636719 53.179688 83.015625 53.433594 83.34375 53.765625 C 83.675781 54.09375 83.929688 54.472656 84.105469 54.90625 C 84.285156 55.335938 84.375 55.785156 84.375 56.25 Z M 84.375 56.25 " fill-opacity="1" fill-rule="nonzero"/><path fill="#000000" d="M 66.796875 38.671875 C 66.796875 39.136719 66.707031 39.585938 66.527344 40.015625 C 66.351562 40.449219 66.097656 40.828125 65.765625 41.15625 C 65.4375 41.488281 65.058594 41.742188 64.625 41.917969 C 64.195312 42.097656 63.746094 42.1875 63.28125 42.1875 C 62.816406 42.1875 62.367188 42.097656 61.9375 41.917969 C 61.503906 41.742188 61.125 41.488281 60.796875 41.15625 C 60.464844 40.828125 60.210938 40.449219 60.035156 40.015625 C 59.855469 39.585938 59.765625 39.136719 59.765625 38.671875 C 59.765625 38.207031 59.855469 37.757812 60.035156 37.328125 C 60.210938 36.894531 60.464844 36.515625 60.796875 36.1875 C 61.125 35.855469 61.503906 35.601562 61.9375 35.425781 C 62.367188 35.246094 62.816406 35.15625 63.28125 35.15625 C 63.746094 35.15625 64.195312 35.246094 64.625 35.425781 C 65.058594 35.601562 65.4375 35.855469 65.765625 36.1875 C 66.097656 36.515625 66.351562 36.894531 66.527344 37.328125 C 66.707031 37.757812 66.796875 38.207031 66.796875 38.671875 Z M 66.796875 38.671875 " fill-opacity="1" fill-rule="nonzero"/><path fill="#000000" d="M 91.40625 38.671875 C 91.40625 39.136719 91.316406 39.585938 91.136719 40.015625 C 90.960938 40.449219 90.707031 40.828125 90.375 41.15625 C 90.046875 41.488281 89.667969 41.742188 89.234375 41.917969 C 88.804688 42.097656 88.355469 42.1875 87.890625 42.1875 C 87.425781 42.1875 86.976562 42.097656 86.546875 41.917969 C 86.113281 41.742188 85.734375 41.488281 85.40625 41.15625 C 85.074219 40.828125 84.820312 40.449219 84.644531 40.015625 C 84.464844 39.585938 84.375 39.136719 84.375 38.671875 C 84.375 38.207031 84.464844 37.757812 84.644531 37.328125 C 84.820312 36.894531 85.074219 36.515625 85.40625 36.1875 C 85.734375 35.855469 86.113281 35.601562 86.546875 35.425781 C 86.976562 35.246094 87.425781 35.15625 87.890625 35.15625 C 88.355469 35.15625 88.804688 35.246094 89.234375 35.425781 C 89.667969 35.601562 90.046875 35.855469 90.375 36.1875 C 90.707031 36.515625 90.960938 36.894531 91.136719 37.328125 C 91.316406 37.757812 91.40625 38.207031 91.40625 38.671875 Z M 91.40625 38.671875 " fill-opacity="1" fill-rule="nonzero"/><path fill="#000000" d="M 77.34375 22.851562 C 77.34375 23.316406 77.253906 23.765625 77.074219 24.195312 C 76.898438 24.628906 76.644531 25.007812 76.3125 25.335938 C 75.984375 25.667969 75.605469 25.921875 75.171875 26.097656 C 74.742188 26.277344 74.292969 26.367188 73.828125 26.367188 C 73.363281 26.367188 72.914062 26.277344 72.484375 26.097656 C 72.050781 25.921875 71.671875 25.667969 71.34375 25.335938 C 71.011719 25.007812 70.757812 24.628906 70.582031 24.195312 C 70.402344 23.765625 70.3125 23.316406 70.3125 22.851562 C 70.3125 22.386719 70.402344 21.9375 70.582031 21.507812 C 70.757812 21.074219 71.011719 20.695312 71.34375 20.367188 C 71.671875 20.035156 72.050781 19.78125 72.484375 19.605469 C 72.914062 19.425781 73.363281 19.335938 73.828125 19.335938 C 74.292969 19.335938 74.742188 19.425781 75.171875 19.605469 C 75.605469 19.78125 75.984375 20.035156 76.3125 20.367188 C 76.644531 20.695312 76.898438 21.074219 77.074219 21.507812 C 77.253906 21.9375 77.34375 22.386719 77.34375 22.851562 Z M 77.34375 22.851562 " fill-opacity="1" fill-rule="nonzero"/><path fill="#000000" d="M 94.921875 17.578125 C 94.921875 18.042969 94.832031 18.492188 94.652344 18.921875 C 94.476562 19.355469 94.222656 19.734375 93.890625 20.0625 C 93.5625 20.394531 93.183594 20.648438 92.75 20.824219 C 92.320312 21.003906 91.871094 21.09375 91.40625 21.09375 C 90.941406 21.09375 90.492188 21.003906 90.0625 20.824219 C 89.628906 20.648438 89.25 20.394531 88.921875 20.0625 C 88.589844 19.734375 88.335938 19.355469 88.160156 18.921875 C 87.980469 18.492188 87.890625 18.042969 87.890625 17.578125 C 87.890625 17.113281 87.980469 16.664062 88.160156 16.234375 C 88.335938 15.800781 88.589844 15.421875 88.921875 15.09375 C 89.25 14.761719 89.628906 14.507812 90.0625 14.332031 C 90.492188 14.152344 90.941406 14.0625 91.40625 14.0625 C 91.871094 14.0625 92.320312 14.152344 92.75 14.332031 C 93.183594 14.507812 93.5625 14.761719 93.890625 15.09375 C 94.222656 15.421875 94.476562 15.800781 94.652344 16.234375 C 94.832031 16.664062 94.921875 17.113281 94.921875 17.578125 Z M 94.921875 17.578125 " fill-opacity="1" fill-rule="nonzero"/></svg>