<svg xmlns="http://www.w3.org/2000/svg" xmlns:xlink="http://www.w3.org/1999/xlink" width="150" zoomAndPan="magnify" viewBox="0 0 112.5 112.499997" height="150" preserveAspectRatio="xMidYMid meet" version="1.0"><defs><clipPath id="5ffc7b3a17"><path d="M 1.054688 22 L 53 22 L 53 87 L 1.054688 87 Z M 1.054688 22 " clip-rule="nonzero"/></clipPath><clipPath id="3d9112fca8"><path d="M 19 13 L 111.304688 13 L 111.304688 112.003906 L 19 112.003906 Z M 19 13 " clip-rule="nonzero"/></clipPath></defs><path fill="#272525" d="M 53.277344 50.199219 C 53.644531 50.058594 53.9375 49.828125 54.160156 49.507812 C 54.378906 49.183594 54.492188 48.828125 54.492188 48.4375 L 54.492188 1.957031 C 54.492188 1.699219 54.441406 1.457031 54.339844 1.222656 C 54.238281 0.988281 54.097656 0.78125 53.914062 0.601562 C 53.734375 0.421875 53.523438 0.285156 53.285156 0.191406 C 53.050781 0.0976562 52.804688 0.0507812 52.550781 0.0546875 C 49.382812 0.0429688 46.246094 0.332031 43.136719 0.921875 C 40.027344 1.511719 37 2.390625 34.058594 3.558594 C 31.117188 4.726562 28.308594 6.164062 25.640625 7.867188 C 22.972656 9.574219 20.492188 11.515625 18.191406 13.695312 C 18.007812 13.871094 17.863281 14.074219 17.761719 14.304688 C 17.660156 14.539062 17.605469 14.78125 17.601562 15.035156 C 17.597656 15.289062 17.644531 15.53125 17.738281 15.765625 C 17.832031 16.003906 17.96875 16.210938 18.148438 16.390625 L 51.15625 49.761719 C 51.433594 50.039062 51.765625 50.21875 52.152344 50.296875 C 52.535156 50.378906 52.914062 50.347656 53.277344 50.199219 Z M 50.605469 43.738281 L 22.316406 15.128906 C 24.273438 13.425781 26.355469 11.898438 28.570312 10.550781 C 30.78125 9.199219 33.09375 8.046875 35.503906 7.089844 C 37.910156 6.136719 40.382812 5.390625 42.917969 4.851562 C 45.457031 4.316406 48.019531 4 50.605469 3.898438 Z M 50.605469 43.738281 " fill-opacity="1" fill-rule="nonzero"/><g clip-path="url(#5ffc7b3a17)"><path fill="#272525" d="M 52.394531 58.375 C 52.449219 57.792969 52.269531 57.292969 51.855469 56.875 L 18.847656 23.5 C 18.472656 23.121094 18.015625 22.925781 17.484375 22.921875 C 16.953125 22.917969 16.488281 23.097656 16.097656 23.457031 C 6.398438 32.660156 1.0625 45 1.0625 58.203125 C 1.058594 60.699219 1.253906 63.183594 1.644531 65.652344 C 2.03125 68.121094 2.613281 70.542969 3.386719 72.917969 C 4.160156 75.292969 5.117188 77.59375 6.253906 79.816406 C 7.390625 82.042969 8.695312 84.164062 10.167969 86.179688 C 10.558594 86.71875 11.089844 86.988281 11.753906 86.984375 C 12.164062 86.980469 12.539062 86.863281 12.875 86.632812 L 51.585938 59.753906 C 52.066406 59.421875 52.339844 58.960938 52.394531 58.375 Z M 12.25 82.394531 C 9.863281 78.8125 8.050781 74.960938 6.808594 70.839844 C 5.566406 66.71875 4.949219 62.507812 4.953125 58.203125 C 4.953125 46.671875 9.371094 35.859375 17.4375 27.542969 L 47.488281 57.929688 Z M 12.25 82.394531 " fill-opacity="1" fill-rule="nonzero"/></g><g clip-path="url(#3d9112fca8)"><path fill="#272525" d="M 110.839844 56.695312 C 110.730469 55.902344 110.605469 55.121094 110.460938 54.34375 C 110.152344 52.675781 109.753906 51.03125 109.273438 49.40625 C 109.066406 48.710938 108.839844 48.019531 108.605469 47.324219 C 108.089844 45.847656 107.496094 44.371094 106.839844 42.949219 C 106.550781 42.324219 106.253906 41.710938 105.941406 41.101562 C 105.261719 39.777344 104.511719 38.460938 103.699219 37.167969 C 103.34375 36.613281 102.984375 36.0625 102.613281 35.523438 C 101.6875 34.191406 100.683594 32.886719 99.628906 31.652344 C 99.210938 31.160156 98.785156 30.671875 98.34375 30.195312 C 97.375 29.144531 96.332031 28.113281 95.242188 27.117188 C 94.765625 26.683594 94.28125 26.257812 93.785156 25.839844 C 92.664062 24.890625 91.488281 23.988281 90.304688 23.148438 C 89.761719 22.761719 89.214844 22.386719 88.664062 22.035156 C 87.367188 21.1875 86.050781 20.414062 84.761719 19.738281 C 84.160156 19.417969 83.546875 19.113281 82.929688 18.8125 C 81.339844 18.054688 79.714844 17.378906 78.054688 16.789062 C 77.363281 16.558594 76.671875 16.3125 75.976562 16.097656 C 74.363281 15.601562 72.695312 15.171875 71.011719 14.839844 C 70.234375 14.6875 69.453125 14.550781 68.660156 14.429688 C 66.773438 14.144531 64.875 13.96875 62.964844 13.898438 C 62.292969 13.871094 61.621094 13.851562 60.945312 13.851562 C 60.566406 13.847656 60.199219 13.914062 59.847656 14.058594 C 59.5 14.199219 59.1875 14.402344 58.917969 14.664062 C 58.644531 14.929688 58.4375 15.238281 58.289062 15.585938 C 58.136719 15.933594 58.0625 16.296875 58.058594 16.675781 L 58.058594 61.730469 L 20.582031 87.75 C 19.929688 88.199219 19.53125 88.816406 19.398438 89.597656 C 19.269531 90.367188 19.433594 91.070312 19.894531 91.699219 L 20.082031 91.945312 C 20.898438 93.054688 21.800781 94.167969 22.851562 95.359375 C 23.28125 95.84375 23.714844 96.324219 24.15625 96.789062 C 25.128906 97.804688 26.1875 98.824219 27.308594 99.8125 C 27.796875 100.242188 28.292969 100.660156 28.796875 101.070312 C 30.183594 102.199219 31.472656 103.152344 32.742188 104 C 33.207031 104.308594 33.683594 104.597656 34.15625 104.882812 L 34.4375 105.054688 C 35.742188 105.847656 37.089844 106.585938 38.441406 107.257812 C 39.058594 107.558594 39.679688 107.855469 40.308594 108.132812 C 41.691406 108.738281 43.148438 109.300781 44.800781 109.851562 C 45.492188 110.082031 46.183594 110.316406 46.894531 110.507812 C 48.554688 110.988281 50.234375 111.382812 51.933594 111.695312 C 52.730469 111.835938 53.53125 111.945312 54.332031 112.054688 C 56.46875 112.335938 58.617188 112.480469 60.769531 112.492188 L 60.957031 112.492188 C 61.867188 112.492188 62.769531 112.464844 63.660156 112.417969 C 66.0625 112.292969 68.441406 112 70.800781 111.539062 C 71.988281 111.304688 73.179688 111.023438 74.453125 110.675781 C 78.101562 109.691406 81.589844 108.3125 84.925781 106.535156 C 88.257812 104.761719 91.351562 102.636719 94.207031 100.160156 C 98.667969 96.304688 102.335938 91.808594 105.214844 86.660156 C 107.015625 83.40625 108.425781 79.984375 109.441406 76.402344 C 109.800781 75.140625 110.085938 73.96875 110.324219 72.824219 C 110.789062 70.511719 111.089844 68.179688 111.222656 65.824219 C 111.269531 64.949219 111.292969 64.070312 111.292969 63.183594 L 111.292969 63.046875 C 111.277344 60.917969 111.125 58.800781 110.839844 56.695312 Z M 107.335938 65.625 C 107.214844 67.796875 106.9375 69.949219 106.503906 72.078125 C 106.289062 73.132812 106.027344 74.214844 105.691406 75.382812 C 104.757812 78.691406 103.457031 81.847656 101.792969 84.855469 C 100.109375 87.878906 98.109375 90.675781 95.789062 93.246094 C 92.128906 97.308594 87.890625 100.625 83.074219 103.203125 C 79.996094 104.835938 76.773438 106.109375 73.414062 107.023438 C 72.234375 107.34375 71.132812 107.605469 70.042969 107.816406 C 67.867188 108.242188 65.671875 108.511719 63.457031 108.625 C 62.628906 108.671875 61.804688 108.703125 60.96875 108.695312 L 60.832031 108.695312 C 58.828125 108.6875 56.832031 108.550781 54.847656 108.289062 C 54.105469 108.195312 53.367188 108.089844 52.636719 107.957031 C 51.066406 107.671875 49.515625 107.308594 47.984375 106.863281 C 47.335938 106.675781 46.6875 106.472656 46.050781 106.257812 C 44.523438 105.75 43.171875 105.230469 41.90625 104.671875 C 41.320312 104.414062 40.75 104.136719 40.183594 103.863281 C 38.941406 103.25 37.699219 102.5625 36.488281 101.832031 L 36.203125 101.65625 C 35.769531 101.394531 35.339844 101.132812 34.921875 100.855469 C 33.765625 100.085938 32.566406 99.203125 31.28125 98.15625 C 30.820312 97.777344 30.359375 97.386719 29.90625 97 C 28.867188 96.085938 27.890625 95.148438 26.996094 94.203125 C 26.582031 93.773438 26.183594 93.328125 25.792969 92.886719 C 25.003906 91.992188 24.304688 91.140625 23.664062 90.300781 L 61.132812 64.261719 C 61.675781 63.886719 61.949219 63.367188 61.949219 62.707031 L 61.949219 17.695312 L 62.816406 17.730469 C 64.578125 17.792969 66.328125 17.953125 68.074219 18.214844 C 68.804688 18.328125 69.527344 18.453125 70.242188 18.597656 C 71.792969 18.90625 73.332031 19.289062 74.824219 19.753906 C 75.46875 19.949219 76.101562 20.164062 76.730469 20.386719 C 78.261719 20.925781 79.757812 21.542969 81.222656 22.238281 C 81.796875 22.511719 82.359375 22.796875 82.921875 23.089844 C 84.105469 23.714844 85.316406 24.425781 86.519531 25.214844 C 87.027344 25.539062 87.527344 25.878906 88.027344 26.234375 C 89.128906 27.011719 90.214844 27.855469 91.246094 28.722656 C 91.710938 29.105469 92.160156 29.503906 92.597656 29.90625 C 93.601562 30.820312 94.566406 31.777344 95.457031 32.746094 C 95.863281 33.1875 96.257812 33.636719 96.648438 34.089844 C 97.621094 35.234375 98.546875 36.4375 99.402344 37.667969 C 99.75 38.167969 100.078125 38.675781 100.402344 39.183594 C 101.148438 40.363281 101.84375 41.582031 102.46875 42.800781 C 102.753906 43.359375 103.03125 43.921875 103.296875 44.503906 C 103.902344 45.820312 104.449219 47.179688 104.925781 48.542969 C 105.144531 49.171875 105.347656 49.804688 105.539062 50.453125 C 105.988281 51.957031 106.355469 53.480469 106.636719 55.023438 C 106.773438 55.742188 106.890625 56.464844 106.988281 57.191406 C 107.25 59.136719 107.390625 61.089844 107.398438 63.054688 L 107.398438 63.183594 C 107.402344 64.003906 107.375 64.820312 107.335938 65.625 Z M 107.335938 65.625 " fill-opacity="1" fill-rule="nonzero"/></g></svg>