<svg xmlns="http://www.w3.org/2000/svg" xmlns:xlink="http://www.w3.org/1999/xlink" width="150" zoomAndPan="magnify" viewBox="0 0 112.5 112.499997" height="150" preserveAspectRatio="xMidYMid meet" version="1.0"><defs><g/></defs><g fill="#231f20" fill-opacity="1"><g transform="translate(14.608935, 71.53171)"><g><path d="M 6.53125 0 L 6.53125 -1.09375 L 10.9375 -1.65625 L 10.9375 -25.90625 L 9.890625 -25.90625 C 6.390625 -25.90625 4 -25.765625 2.71875 -25.484375 L 2.15625 -21.171875 L 0.765625 -21.171875 L 0.765625 -27.671875 L 25.21875 -27.671875 L 25.21875 -21.171875 L 23.8125 -21.171875 L 23.25 -25.484375 C 22.832031 -25.578125 21.925781 -25.660156 20.53125 -25.734375 C 19.132812 -25.816406 17.609375 -25.859375 15.953125 -25.859375 L 14.9375 -25.859375 L 14.9375 -1.65625 L 19.359375 -1.09375 L 19.359375 0 Z M 6.53125 0 "/></g></g></g><g fill="#231f20" fill-opacity="1"><g transform="translate(39.042119, 71.53171)"><g><path d="M 7.859375 -25.734375 C 7.859375 -25.128906 7.632812 -24.601562 7.1875 -24.15625 C 6.75 -23.71875 6.21875 -23.5 5.59375 -23.5 C 4.988281 -23.5 4.460938 -23.71875 4.015625 -24.15625 C 3.578125 -24.601562 3.359375 -25.128906 3.359375 -25.734375 C 3.359375 -26.347656 3.578125 -26.875 4.015625 -27.3125 C 4.460938 -27.757812 4.988281 -27.984375 5.59375 -27.984375 C 6.21875 -27.984375 6.75 -27.757812 7.1875 -27.3125 C 7.632812 -26.875 7.859375 -26.347656 7.859375 -25.734375 Z M 7.640625 -1.4375 L 10.984375 -0.921875 L 10.984375 0 L 0.890625 0 L 0.890625 -0.921875 L 4.203125 -1.4375 L 4.203125 -17.953125 L 1.453125 -18.46875 L 1.453125 -19.40625 L 7.640625 -19.40625 Z M 7.640625 -1.4375 "/></g></g></g><g fill="#231f20" fill-opacity="1"><g transform="translate(50.833918, 71.53171)"><g><path d="M 6.921875 0.40625 C 5.597656 0.40625 4.609375 0.015625 3.953125 -0.765625 C 3.296875 -1.546875 2.96875 -2.644531 2.96875 -4.0625 L 2.96875 -17.671875 L 0.421875 -17.671875 L 0.421875 -18.59375 L 3 -19.40625 L 5.09375 -23.796875 L 6.40625 -23.796875 L 6.40625 -19.40625 L 10.859375 -19.40625 L 10.859375 -17.671875 L 6.40625 -17.671875 L 6.40625 -4.4375 C 6.40625 -3.539062 6.609375 -2.863281 7.015625 -2.40625 C 7.421875 -1.957031 7.957031 -1.734375 8.625 -1.734375 C 9.425781 -1.734375 10.398438 -1.84375 11.546875 -2.0625 L 11.546875 -0.71875 C 11.054688 -0.394531 10.351562 -0.128906 9.4375 0.078125 C 8.53125 0.296875 7.691406 0.40625 6.921875 0.40625 Z M 6.921875 0.40625 "/></g></g></g><g fill="#231f20" fill-opacity="1"><g transform="translate(62.625717, 71.53171)"><g><path d="M 7.609375 -1.4375 L 10.9375 -0.921875 L 10.9375 0 L 0.84375 0 L 0.84375 -0.921875 L 4.171875 -1.4375 L 4.171875 -27.90625 L 0.84375 -28.390625 L 0.84375 -29.328125 L 7.609375 -29.328125 Z M 7.609375 -1.4375 "/></g></g></g><g fill="#231f20" fill-opacity="1"><g transform="translate(74.417516, 71.53171)"><g><path d="M 5.390625 -9.765625 L 5.390625 -9.390625 C 5.390625 -7.492188 5.597656 -6.019531 6.015625 -4.96875 C 6.441406 -3.914062 7.09375 -3.113281 7.96875 -2.5625 C 8.84375 -2.007812 9.992188 -1.734375 11.421875 -1.734375 C 12.160156 -1.734375 13.039062 -1.796875 14.0625 -1.921875 C 15.09375 -2.046875 15.9375 -2.179688 16.59375 -2.328125 L 16.59375 -1.171875 C 15.9375 -0.742188 15.035156 -0.375 13.890625 -0.0625 C 12.753906 0.25 11.59375 0.40625 10.40625 0.40625 C 7.375 0.40625 5.15625 -0.398438 3.75 -2.015625 C 2.351562 -3.640625 1.65625 -6.25 1.65625 -9.84375 C 1.65625 -13.226562 2.363281 -15.753906 3.78125 -17.421875 C 5.207031 -19.085938 7.242188 -19.921875 9.890625 -19.921875 C 14.867188 -19.921875 17.359375 -17.097656 17.359375 -11.453125 L 17.359375 -9.765625 Z M 9.890625 -18.265625 C 8.453125 -18.265625 7.347656 -17.6875 6.578125 -16.53125 C 5.804688 -15.375 5.421875 -13.664062 5.421875 -11.40625 L 13.765625 -11.40625 C 13.765625 -13.875 13.445312 -15.632812 12.8125 -16.6875 C 12.175781 -17.738281 11.203125 -18.265625 9.890625 -18.265625 Z M 9.890625 -18.265625 "/></g></g></g></svg>