<svg xmlns="http://www.w3.org/2000/svg" xmlns:xlink="http://www.w3.org/1999/xlink" width="150" zoomAndPan="magnify" viewBox="0 0 112.5 112.499997" height="150" preserveAspectRatio="xMidYMid meet" version="1.0"><defs><clipPath id="21ec4b54a9"><path d="M 11.25 11.25 L 101.25 11.25 L 101.25 14 L 11.25 14 Z M 11.25 11.25 " clip-rule="nonzero"/></clipPath><clipPath id="35da8aa012"><path d="M 11.25 23 L 101.25 23 L 101.25 26 L 11.25 26 Z M 11.25 23 " clip-rule="nonzero"/></clipPath><clipPath id="bf0b89a9e8"><path d="M 11.25 36 L 101.25 36 L 101.25 39 L 11.25 39 Z M 11.25 36 " clip-rule="nonzero"/></clipPath><clipPath id="c18161202e"><path d="M 11.25 48 L 101.25 48 L 101.25 51 L 11.25 51 Z M 11.25 48 " clip-rule="nonzero"/></clipPath><clipPath id="a21af58047"><path d="M 11.25 61 L 101.25 61 L 101.25 64 L 11.25 64 Z M 11.25 61 " clip-rule="nonzero"/></clipPath><clipPath id="a1f95af4d9"><path d="M 11.25 73 L 101.25 73 L 101.25 76 L 11.25 76 Z M 11.25 73 " clip-rule="nonzero"/></clipPath><clipPath id="d509398030"><path d="M 11.25 86 L 101.25 86 L 101.25 89 L 11.25 89 Z M 11.25 86 " clip-rule="nonzero"/></clipPath><clipPath id="2d6952bf4e"><path d="M 11.25 98 L 57 98 L 57 100.5 L 11.25 100.5 Z M 11.25 98 " clip-rule="nonzero"/></clipPath></defs><g clip-path="url(#21ec4b54a9)"><path stroke-linecap="round" transform="matrix(0.19428, 0, 0, 0.194869, 6.368483, 5.598795)" fill="none" stroke-linejoin="round" d="M 483.005567 33.991359 L 30.494501 33.991359 " stroke="#000000" stroke-width="10" stroke-opacity="1" stroke-miterlimit="4"/></g><g clip-path="url(#35da8aa012)"><path stroke-linecap="round" transform="matrix(0.19428, 0, 0, 0.194869, 6.368483, 5.598795)" fill="none" stroke-linejoin="round" d="M 483.005567 97.996707 L 30.494501 97.996707 " stroke="#000000" stroke-width="10" stroke-opacity="1" stroke-miterlimit="4"/></g><g clip-path="url(#bf0b89a9e8)"><path stroke-linecap="round" transform="matrix(0.19428, 0, 0, 0.194869, 6.368483, 5.598795)" fill="none" stroke-linejoin="round" d="M 483.005567 162.002055 L 30.494501 162.002055 " stroke="#000000" stroke-width="10" stroke-opacity="1" stroke-miterlimit="4"/></g><g clip-path="url(#c18161202e)"><path stroke-linecap="round" transform="matrix(0.19428, 0, 0, 0.194869, 6.368483, 5.598795)" fill="none" stroke-linejoin="round" d="M 483.005567 226.007404 L 30.494501 226.007404 " stroke="#000000" stroke-width="10" stroke-opacity="1" stroke-miterlimit="4"/></g><g clip-path="url(#a21af58047)"><path stroke-linecap="round" transform="matrix(0.19428, 0, 0, 0.194869, 6.368483, 5.598795)" fill="none" stroke-linejoin="round" d="M 483.005567 289.992706 L 30.494501 289.992706 " stroke="#000000" stroke-width="10" stroke-opacity="1" stroke-miterlimit="4"/></g><g clip-path="url(#a1f95af4d9)"><path stroke-linecap="round" transform="matrix(0.19428, 0, 0, 0.194869, 6.368483, 5.598795)" fill="none" stroke-linejoin="round" d="M 483.005567 353.998054 L 30.494501 353.998054 " stroke="#000000" stroke-width="10" stroke-opacity="1" stroke-miterlimit="4"/></g><g clip-path="url(#d509398030)"><path stroke-linecap="round" transform="matrix(0.19428, 0, 0, 0.194869, 6.368483, 5.598795)" fill="none" stroke-linejoin="round" d="M 483.005567 418.003403 L 30.494501 418.003403 " stroke="#000000" stroke-width="10" stroke-opacity="1" stroke-miterlimit="4"/></g><g clip-path="url(#2d6952bf4e)"><path stroke-linecap="round" transform="matrix(0.19428, 0, 0, 0.194869, 6.368483, 5.598795)" fill="none" stroke-linejoin="round" d="M 255.503447 482.008751 L 30.494501 482.008751 " stroke="#000000" stroke-width="10" stroke-opacity="1" stroke-miterlimit="4"/></g></svg>