<svg xmlns="http://www.w3.org/2000/svg" xmlns:xlink="http://www.w3.org/1999/xlink" width="150" zoomAndPan="magnify" viewBox="0 0 112.5 112.499997" height="150" preserveAspectRatio="xMidYMid meet" version="1.0"><defs><clipPath id="13e20feb48"><path d="M 33.75 33.75 L 78.75 33.75 L 78.75 78.75 L 33.75 78.75 Z M 33.75 33.75 " clip-rule="nonzero"/></clipPath></defs><g clip-path="url(#13e20feb48)"><path fill="#ffffff" d="M 63.234375 50.042969 C 62.804688 50.042969 62.457031 49.695312 62.457031 49.265625 C 62.457031 49.265625 62.457031 36.097656 62.457031 36.097656 C 62.457031 34.8125 61.414062 33.769531 60.128906 33.769531 L 52.371094 33.769531 C 51.085938 33.769531 50.042969 34.8125 50.042969 36.097656 L 50.042969 49.265625 C 50.042969 49.695312 49.695312 50.042969 49.265625 50.042969 C 49.265625 50.042969 36.097656 50.042969 36.097656 50.042969 C 34.8125 50.042969 33.769531 51.085938 33.769531 52.371094 L 33.769531 60.128906 C 33.769531 61.414062 34.8125 62.457031 36.097656 62.457031 L 49.265625 62.457031 C 49.695312 62.457031 50.042969 62.804688 50.042969 63.234375 C 50.042969 63.234375 50.042969 76.402344 50.042969 76.402344 C 50.042969 77.6875 51.085938 78.730469 52.371094 78.730469 L 60.128906 78.730469 C 61.414062 78.730469 62.457031 77.6875 62.457031 76.402344 L 62.457031 63.234375 C 62.457031 62.804688 62.804688 62.457031 63.234375 62.457031 C 63.234375 62.457031 76.402344 62.457031 76.402344 62.457031 C 77.6875 62.457031 78.730469 61.414062 78.730469 60.128906 L 78.730469 52.371094 C 78.730469 51.085938 77.6875 50.042969 76.402344 50.042969 Z M 63.234375 50.042969 " fill-opacity="1" fill-rule="evenodd"/></g></svg>