<svg xmlns="http://www.w3.org/2000/svg" xmlns:xlink="http://www.w3.org/1999/xlink" width="150" zoomAndPan="magnify" viewBox="0 0 112.5 112.499997" height="150" preserveAspectRatio="xMidYMid meet" version="1.0"><defs><clipPath id="1e3b01e37e"><path d="M 1.351562 34.488281 L 82.394531 34.488281 L 82.394531 112.003906 L 1.351562 112.003906 Z M 1.351562 34.488281 " clip-rule="nonzero"/></clipPath><clipPath id="bb1dacd9ea"><path d="M 9 84.230469 L 38.847656 84.230469 L 38.847656 112.003906 L 9 112.003906 Z M 9 84.230469 " clip-rule="nonzero"/></clipPath><clipPath id="f1fce08969"><path d="M 49 0 L 110.835938 0 L 110.835938 75 L 49 75 Z M 49 0 " clip-rule="nonzero"/></clipPath><clipPath id="fd15a655b6"><path d="M 62 52 L 110.835938 52 L 110.835938 64 L 62 64 Z M 62 52 " clip-rule="nonzero"/></clipPath><clipPath id="0f1d8d2c5d"><path d="M 95 56 L 110.835938 56 L 110.835938 72 L 95 72 Z M 95 56 " clip-rule="nonzero"/></clipPath></defs><path fill="#ee865b" d="M 49.308594 54.972656 C 49.308594 54.972656 57.9375 52.472656 61.144531 52.308594 C 64.355469 52.148438 73.027344 53.128906 76.011719 53.625 C 79 54.121094 78.441406 57.980469 74.242188 59.394531 C 69.5 60.992188 64.242188 60.121094 61.695312 60.675781 C 59.148438 61.230469 51.46875 66.886719 51.46875 66.886719 L 49.308594 54.972656 " fill-opacity="1" fill-rule="nonzero"/><path fill="#e77c51" d="M 52.878906 65.363281 C 52.878906 65.363281 59.226562 61.96875 61.578125 62.070312 C 63.929688 62.167969 70.183594 63.476562 72.328125 64.039062 C 74.46875 64.601562 73.804688 67.378906 70.648438 68.125 C 68.507812 68.628906 66.292969 68.472656 64.457031 68.316406 C 63.230469 68.214844 62.171875 68.109375 61.414062 68.203125 C 59.519531 68.433594 54.523438 70.808594 54.523438 70.808594 L 52.878906 65.363281 " fill-opacity="1" fill-rule="nonzero"/><path fill="#f19268" d="M 50.503906 47.621094 C 50.503906 47.621094 60.039062 44.855469 63.582031 44.679688 C 67.132812 44.496094 76.714844 45.582031 80.015625 46.128906 C 83.3125 46.675781 82.699219 50.945312 78.058594 52.507812 C 72.816406 54.269531 67.003906 53.308594 64.191406 53.917969 C 61.375 54.53125 51.863281 57.679688 51.863281 57.679688 L 50.503906 47.621094 " fill-opacity="1" fill-rule="nonzero"/><g clip-path="url(#1e3b01e37e)"><path fill="#f89f70" d="M 14.800781 112.5 C 20.039062 103.667969 28.574219 89.507812 30.078125 88.457031 C 32.277344 86.917969 33.214844 86.542969 38.464844 84.640625 C 43.71875 82.738281 55.25 72.160156 55.308594 70.445312 C 55.363281 68.730469 54.246094 65.550781 53.148438 62.464844 C 52.046875 59.382812 49.972656 56.878906 50.027344 55.164062 C 50.085938 53.449219 55.886719 47.207031 59.132812 46.195312 C 62.375 45.183594 72.246094 44.945312 76.941406 44.429688 C 81.636719 43.917969 83.578125 37.816406 80.839844 37.101562 C 78.101562 36.382812 62.742188 33.59375 57.96875 34.832031 C 53.195312 36.074219 32.546875 49.8125 30.78125 51.46875 C 29.015625 53.128906 14.789062 78.53125 14.15625 80.128906 C 13.527344 81.730469 1.351562 92.761719 1.351562 92.761719 L 1.351562 112.5 L 14.800781 112.5 " fill-opacity="1" fill-rule="nonzero"/></g><path fill="#d67659" d="M 72.6875 43.355469 C 69.941406 43.402344 66.140625 44.503906 63.675781 42.886719 C 61.917969 41.730469 60.902344 40.34375 60.460938 38.257812 C 60.277344 37.410156 60.261719 36.636719 60.179688 35.914062 C 59.699219 35.671875 59.21875 35.425781 58.699219 35.214844 C 58.378906 35.085938 58.03125 34.992188 57.675781 34.921875 C 56.820312 35.191406 55.578125 35.769531 54.09375 36.554688 C 54.265625 37.171875 54.234375 37.878906 53.914062 38.609375 C 52.996094 40.695312 51.433594 41.703125 49.894531 43.261719 C 48.207031 44.972656 46.992188 47.035156 46.652344 49.457031 C 46.3125 51.875 47.664062 54.042969 48.652344 56.144531 C 49.429688 57.796875 50.03125 59.460938 50.472656 61.230469 C 51.527344 65.453125 49.679688 75.960938 43.855469 81.464844 C 49.054688 78.074219 55.285156 71.039062 55.308594 70.445312 C 55.363281 68.730469 54.246094 65.550781 53.148438 62.464844 C 52.046875 59.382812 49.972656 56.878906 50.027344 55.164062 C 50.085938 53.449219 55.886719 47.207031 59.132812 46.195312 C 62.375 45.183594 72.246094 44.945312 76.941406 44.429688 C 78.320312 44.28125 79.457031 43.648438 80.3125 42.8125 C 77.613281 43.339844 74.652344 43.324219 72.6875 43.355469 " fill-opacity="1" fill-rule="nonzero"/><g clip-path="url(#bb1dacd9ea)"><path fill="#d67659" d="M 15.074219 112.5 C 20.734375 103.382812 29.859375 88.609375 30.078125 88.457031 C 32.277344 86.917969 33.214844 86.542969 38.464844 84.640625 C 38.558594 84.605469 38.660156 84.5625 38.761719 84.519531 C 38.539062 84.488281 38.316406 84.453125 38.09375 84.421875 C 37.3125 84.773438 36.414062 84.996094 35.375 85.066406 C 33.992188 85.160156 32.453125 85.230469 30.921875 85.140625 C 30.113281 85.695312 27.464844 88.652344 23.984375 93.027344 C 21.789062 95.789062 14.269531 105.625 9.023438 112.5 L 15.074219 112.5 " fill-opacity="1" fill-rule="nonzero"/></g><path fill="#e4e4e4" d="M 49.632812 12.402344 L 49.238281 4.882812 C 49.183594 3.84375 49.941406 2.960938 50.929688 2.90625 L 105.675781 0.0078125 C 105.703125 0.00390625 105.734375 0.00390625 105.765625 0.00390625 C 106.320312 0.00390625 106.820312 0.269531 107.152344 0.691406 C 106.867188 0.496094 106.53125 0.382812 106.167969 0.382812 C 106.136719 0.382812 106.105469 0.382812 106.074219 0.386719 L 51.332031 3.285156 C 50.34375 3.339844 49.585938 4.222656 49.640625 5.261719 L 50.015625 12.335938 L 49.632812 12.402344 " fill-opacity="1" fill-rule="nonzero"/><g clip-path="url(#f1fce08969)"><path fill="#ffffff" d="M 95.742188 71.886719 L 55.0625 74.042969 C 54.070312 74.097656 53.226562 73.296875 53.171875 72.257812 L 49.640625 5.261719 C 49.585938 4.222656 50.34375 3.339844 51.332031 3.285156 L 106.074219 0.386719 C 107.066406 0.332031 107.914062 1.128906 107.964844 2.167969 L 110.828125 56.511719 L 95.742188 71.886719 " fill-opacity="1" fill-rule="nonzero"/></g><path fill="#aeacac" d="M 56.929688 17.746094 C 56.964844 18.367188 56.488281 18.898438 55.867188 18.929688 C 55.246094 18.964844 54.71875 18.488281 54.683594 17.863281 C 54.652344 17.242188 55.128906 16.710938 55.75 16.679688 C 56.367188 16.648438 56.898438 17.125 56.929688 17.746094 " fill-opacity="1" fill-rule="nonzero"/><path fill="#aeacac" d="M 56.574219 10.992188 C 56.605469 11.613281 56.128906 12.144531 55.511719 12.175781 C 54.890625 12.210938 54.359375 11.730469 54.328125 11.109375 C 54.296875 10.488281 54.773438 9.957031 55.390625 9.925781 C 56.011719 9.890625 56.542969 10.371094 56.574219 10.992188 " fill-opacity="1" fill-rule="nonzero"/><path fill="#cccbcc" d="M 56.277344 10.953125 C 56.304688 11.496094 55.890625 11.957031 55.355469 11.984375 C 54.816406 12.011719 54.355469 11.597656 54.328125 11.058594 C 54.296875 10.515625 54.710938 10.054688 55.25 10.027344 C 55.789062 10 56.25 10.414062 56.277344 10.953125 " fill-opacity="1" fill-rule="nonzero"/><path fill="#cccbcc" d="M 56.632812 17.710938 C 56.660156 18.253906 56.25 18.714844 55.710938 18.742188 C 55.171875 18.769531 54.710938 18.355469 54.683594 17.816406 C 54.652344 17.273438 55.066406 16.8125 55.605469 16.785156 C 56.144531 16.757812 56.605469 17.171875 56.632812 17.710938 " fill-opacity="1" fill-rule="nonzero"/><path fill="#aeacac" d="M 57.285156 24.5 C 57.320312 25.125 56.84375 25.652344 56.222656 25.6875 C 55.601562 25.71875 55.074219 25.242188 55.042969 24.621094 C 55.007812 24 55.484375 23.46875 56.105469 23.433594 C 56.722656 23.402344 57.253906 23.878906 57.285156 24.5 " fill-opacity="1" fill-rule="nonzero"/><path fill="#aeacac" d="M 57.640625 31.257812 C 57.675781 31.875 57.199219 32.40625 56.578125 32.441406 C 55.957031 32.472656 55.429688 31.996094 55.398438 31.375 C 55.363281 30.753906 55.839844 30.222656 56.460938 30.191406 C 57.078125 30.15625 57.609375 30.632812 57.640625 31.257812 " fill-opacity="1" fill-rule="nonzero"/><path fill="#aeacac" d="M 58 38.011719 C 58.03125 38.632812 57.554688 39.164062 56.933594 39.195312 C 56.316406 39.230469 55.785156 38.75 55.753906 38.128906 C 55.71875 37.507812 56.195312 36.976562 56.816406 36.945312 C 57.4375 36.910156 57.964844 37.390625 58 38.011719 " fill-opacity="1" fill-rule="nonzero"/><path fill="#aeacac" d="M 58.355469 44.765625 C 58.386719 45.386719 57.910156 45.917969 57.289062 45.949219 C 56.671875 45.984375 56.140625 45.507812 56.109375 44.882812 C 56.074219 44.261719 56.550781 43.730469 57.171875 43.699219 C 57.792969 43.664062 58.320312 44.144531 58.355469 44.765625 " fill-opacity="1" fill-rule="nonzero"/><path fill="#aeacac" d="M 58.710938 51.519531 C 58.742188 52.140625 58.265625 52.671875 57.648438 52.703125 C 57.027344 52.738281 56.496094 52.261719 56.464844 51.636719 C 56.433594 51.015625 56.90625 50.484375 57.527344 50.453125 C 58.148438 50.417969 58.675781 50.898438 58.710938 51.519531 " fill-opacity="1" fill-rule="nonzero"/><path fill="#aeacac" d="M 59.066406 58.273438 C 59.097656 58.894531 58.621094 59.425781 58.003906 59.460938 C 57.382812 59.492188 56.851562 59.015625 56.820312 58.394531 C 56.789062 57.769531 57.265625 57.242188 57.882812 57.207031 C 58.503906 57.175781 59.035156 57.652344 59.066406 58.273438 " fill-opacity="1" fill-rule="nonzero"/><path fill="#aeacac" d="M 59.421875 65.027344 C 59.453125 65.652344 58.976562 66.179688 58.359375 66.214844 C 57.738281 66.246094 57.210938 65.769531 57.175781 65.148438 C 57.144531 64.527344 57.621094 63.996094 58.238281 63.960938 C 58.859375 63.929688 59.390625 64.40625 59.421875 65.027344 " fill-opacity="1" fill-rule="nonzero"/><path fill="#cccbcc" d="M 56.988281 24.457031 C 57.019531 24.996094 56.605469 25.457031 56.066406 25.484375 C 55.527344 25.515625 55.066406 25.101562 55.035156 24.5625 C 55.007812 24.019531 55.421875 23.558594 55.960938 23.53125 C 56.5 23.5 56.960938 23.914062 56.988281 24.457031 " fill-opacity="1" fill-rule="nonzero"/><path fill="#cccbcc" d="M 57.34375 31.203125 C 57.371094 31.742188 56.957031 32.203125 56.421875 32.230469 C 55.882812 32.257812 55.421875 31.84375 55.394531 31.304688 C 55.363281 30.765625 55.777344 30.304688 56.316406 30.273438 C 56.855469 30.246094 57.316406 30.660156 57.34375 31.203125 " fill-opacity="1" fill-rule="nonzero"/><path fill="#cccbcc" d="M 57.699219 37.96875 C 57.730469 38.507812 57.316406 38.96875 56.777344 38.996094 C 56.238281 39.023438 55.777344 38.609375 55.75 38.070312 C 55.722656 37.527344 56.132812 37.066406 56.671875 37.039062 C 57.210938 37.011719 57.671875 37.425781 57.699219 37.96875 " fill-opacity="1" fill-rule="nonzero"/><path fill="#cccbcc" d="M 58.054688 44.71875 C 58.085938 45.261719 57.671875 45.722656 57.132812 45.75 C 56.59375 45.78125 56.132812 45.363281 56.105469 44.824219 C 56.078125 44.285156 56.492188 43.824219 57.027344 43.796875 C 57.570312 43.765625 58.027344 44.179688 58.054688 44.71875 " fill-opacity="1" fill-rule="nonzero"/><path fill="#cccbcc" d="M 58.410156 51.460938 C 58.441406 52 58.027344 52.460938 57.488281 52.492188 C 56.949219 52.519531 56.488281 52.105469 56.460938 51.5625 C 56.433594 51.023438 56.84375 50.5625 57.382812 50.535156 C 57.921875 50.507812 58.382812 50.917969 58.410156 51.460938 " fill-opacity="1" fill-rule="nonzero"/><path fill="#cccbcc" d="M 58.773438 58.289062 C 58.800781 58.832031 58.386719 59.292969 57.847656 59.320312 C 57.308594 59.347656 56.847656 58.933594 56.820312 58.394531 C 56.792969 57.851562 57.207031 57.390625 57.746094 57.363281 C 58.285156 57.335938 58.742188 57.75 58.773438 58.289062 " fill-opacity="1" fill-rule="nonzero"/><path fill="#cccbcc" d="M 59.121094 64.964844 C 59.152344 65.503906 58.738281 65.964844 58.199219 65.992188 C 57.660156 66.023438 57.199219 65.609375 57.171875 65.066406 C 57.144531 64.527344 57.554688 64.066406 58.09375 64.039062 C 58.636719 64.007812 59.09375 64.425781 59.121094 64.964844 " fill-opacity="1" fill-rule="nonzero"/><g clip-path="url(#fd15a655b6)"><path fill="#48b2b8" d="M 62.726562 63.496094 L 105.976562 61.203125 L 110.828125 56.511719 L 110.625 52.601562 L 62.289062 55.164062 L 62.726562 63.496094 " fill-opacity="1" fill-rule="nonzero"/></g><path fill="#cccbcc" d="M 78.96875 32.179688 L 61.671875 33.097656 L 60.628906 13.304688 L 77.925781 12.386719 L 78.96875 32.179688 " fill-opacity="1" fill-rule="nonzero"/><path fill="#706d6e" d="M 86.003906 12.605469 C 85.484375 12.921875 84.960938 13.78125 84.511719 14.8125 C 84.871094 14.863281 85.261719 14.941406 85.617188 15.066406 L 86.003906 12.605469 M 85.039062 18.746094 L 85.558594 15.460938 C 85.089844 15.28125 84.738281 15.21875 84.34375 15.203125 C 83.753906 16.695312 83.351562 18.421875 83.402344 19.351562 C 83.417969 19.636719 83.496094 19.765625 83.554688 19.84375 C 83.070312 19.871094 82.359375 19.890625 82.308594 18.960938 C 82.265625 18.15625 82.722656 16.660156 83.425781 15.253906 C 82.875 15.316406 82.507812 15.460938 82.410156 15.773438 C 82.453125 15.769531 82.53125 15.917969 82.539062 16.042969 C 82.550781 16.257812 82.335938 16.402344 82.058594 16.417969 C 81.757812 16.433594 81.496094 16.277344 81.480469 15.929688 C 81.445312 15.324219 82.1875 14.789062 83.238281 14.734375 C 83.363281 14.726562 83.515625 14.726562 83.703125 14.734375 C 84.527344 13.257812 85.625 11.988281 86.664062 11.933594 C 86.871094 11.925781 87.160156 11.945312 87.378906 12.023438 L 86.324219 18.675781 L 85.039062 18.746094 " fill-opacity="1" fill-rule="nonzero"/><path fill="#706d6e" d="M 104.238281 16.679688 L 88.03125 17.542969 L 87.964844 16.269531 L 104.171875 15.410156 L 104.238281 16.679688 " fill-opacity="1" fill-rule="nonzero"/><path fill="#706d6e" d="M 104.492188 21.542969 L 81.75 22.746094 L 81.683594 21.476562 L 104.425781 20.269531 L 104.492188 21.542969 " fill-opacity="1" fill-rule="nonzero"/><path fill="#706d6e" d="M 104.761719 26.644531 L 82.019531 27.851562 L 81.953125 26.582031 L 104.695312 25.375 L 104.761719 26.644531 " fill-opacity="1" fill-rule="nonzero"/><path fill="#706d6e" d="M 105.019531 31.496094 L 82.273438 32.703125 L 82.207031 31.429688 L 104.949219 30.222656 L 105.019531 31.496094 " fill-opacity="1" fill-rule="nonzero"/><path fill="#706d6e" d="M 105.273438 36.347656 L 61.964844 38.640625 L 61.898438 37.371094 L 105.207031 35.074219 L 105.273438 36.347656 " fill-opacity="1" fill-rule="nonzero"/><path fill="#706d6e" d="M 105.550781 41.636719 L 62.242188 43.933594 L 62.175781 42.660156 L 105.484375 40.363281 L 105.550781 41.636719 " fill-opacity="1" fill-rule="nonzero"/><path fill="#706d6e" d="M 105.832031 46.929688 L 62.523438 49.226562 L 62.453125 47.953125 L 105.765625 45.65625 L 105.832031 46.929688 " fill-opacity="1" fill-rule="nonzero"/><g clip-path="url(#0f1d8d2c5d)"><path fill="#deddde" d="M 95.742188 71.886719 L 95.074219 59.230469 C 95.019531 58.191406 95.777344 57.308594 96.765625 57.257812 L 110.828125 56.511719 L 95.742188 71.886719 " fill-opacity="1" fill-rule="nonzero"/></g><path fill="#e4e4e4" d="M 53.714844 83.5 C 52.84375 83.5 52.070312 82.835938 51.921875 81.910156 L 50.898438 75.605469 C 51.824219 74.734375 52.660156 73.902344 53.347656 73.167969 C 53.417969 73.238281 53.496094 73.300781 53.582031 73.359375 C 53.914062 73.78125 54.414062 74.046875 54.96875 74.046875 C 55 74.046875 55.03125 74.046875 55.0625 74.042969 L 95.742188 71.886719 L 107.519531 59.882812 L 107.535156 59.976562 L 94.203125 76.902344 L 53.992188 83.476562 C 53.898438 83.492188 53.804688 83.5 53.714844 83.5 M 50.121094 54.742188 C 50.289062 54.269531 50.679688 53.625 51.21875 52.910156 L 51.417969 54.386719 C 50.910156 54.523438 50.464844 54.644531 50.121094 54.742188 M 45.378906 41.652344 L 41.160156 15.691406 C 40.992188 14.667969 41.652344 13.707031 42.628906 13.546875 L 49.632812 12.402344 L 50.996094 38.269531 C 49.234375 39.285156 47.3125 40.449219 45.378906 41.652344 " fill-opacity="1" fill-rule="nonzero"/><path fill="#d57751" d="M 52.152344 60.191406 C 51.136719 58.175781 50.027344 56.496094 50.027344 55.234375 C 50.027344 55.210938 50.027344 55.1875 50.027344 55.164062 C 50.03125 55.042969 50.066406 54.902344 50.121094 54.742188 C 50.464844 54.644531 50.910156 54.523438 51.417969 54.386719 L 51.863281 57.679688 C 51.863281 57.679688 51.914062 57.664062 52.015625 57.632812 L 52.152344 60.191406 " fill-opacity="1" fill-rule="nonzero"/><path fill="#d7825c" d="M 51.863281 57.679688 L 51.417969 54.386719 L 51.21875 52.910156 C 51.378906 52.695312 51.546875 52.476562 51.730469 52.253906 L 52.015625 57.632812 C 51.914062 57.664062 51.863281 57.679688 51.863281 57.679688 " fill-opacity="1" fill-rule="nonzero"/><path fill="#de8e64" d="M 50.898438 75.605469 L 50.886719 75.546875 C 51.777344 74.664062 52.582031 73.816406 53.253906 73.070312 C 53.28125 73.105469 53.316406 73.136719 53.347656 73.167969 C 52.660156 73.902344 51.824219 74.734375 50.898438 75.605469 M 49.980469 69.957031 L 47.25 53.164062 C 47.660156 54.183594 48.195312 55.171875 48.652344 56.144531 C 49.429688 57.796875 50.03125 59.460938 50.472656 61.230469 C 50.957031 63.175781 50.828125 66.449219 49.980469 69.957031 M 46.652344 49.46875 L 45.378906 41.652344 C 47.3125 40.449219 49.234375 39.285156 50.996094 38.269531 L 51.195312 42.03125 C 50.769531 42.421875 50.332031 42.820312 49.894531 43.261719 C 48.207031 44.972656 46.992188 47.035156 46.652344 49.457031 C 46.652344 49.460938 46.652344 49.46875 46.652344 49.46875 " fill-opacity="1" fill-rule="nonzero"/><path fill="#c16a4f" d="M 50.886719 75.546875 L 49.980469 69.957031 C 50.828125 66.449219 50.957031 63.175781 50.472656 61.230469 C 50.03125 59.460938 49.429688 57.796875 48.652344 56.144531 C 48.195312 55.171875 47.660156 54.183594 47.25 53.164062 L 46.652344 49.46875 C 46.652344 49.46875 46.652344 49.460938 46.652344 49.457031 C 46.992188 47.035156 48.207031 44.972656 49.894531 43.261719 C 50.332031 42.820312 50.769531 42.421875 51.195312 42.03125 L 51.730469 52.253906 C 51.546875 52.476562 51.378906 52.695312 51.21875 52.910156 C 50.679688 53.625 50.289062 54.269531 50.121094 54.742188 C 50.066406 54.902344 50.03125 55.042969 50.027344 55.164062 C 50.027344 55.1875 50.027344 55.210938 50.027344 55.234375 C 50.027344 56.496094 51.136719 58.175781 52.152344 60.191406 L 52.765625 71.878906 C 52.792969 72.34375 52.972656 72.757812 53.253906 73.070312 C 52.582031 73.816406 51.777344 74.664062 50.886719 75.546875 " fill-opacity="1" fill-rule="nonzero"/><path fill="#cdcccc" d="M 53.582031 73.359375 C 53.496094 73.300781 53.417969 73.238281 53.347656 73.167969 C 53.367188 73.144531 53.386719 73.121094 53.410156 73.097656 C 53.460938 73.191406 53.519531 73.277344 53.582031 73.359375 M 50.996094 38.269531 L 49.632812 12.402344 L 50.015625 12.335938 L 51.367188 38.054688 C 51.246094 38.125 51.121094 38.195312 50.996094 38.269531 " fill-opacity="1" fill-rule="nonzero"/><path fill="#bf6b48" d="M 52.582031 61.085938 C 52.441406 60.78125 52.296875 60.480469 52.152344 60.191406 L 52.015625 57.632812 C 52.105469 57.601562 52.234375 57.558594 52.394531 57.507812 L 52.582031 61.085938 " fill-opacity="1" fill-rule="nonzero"/><path fill="#c17552" d="M 52.015625 57.632812 L 51.730469 52.253906 C 51.847656 52.109375 51.96875 51.964844 52.09375 51.820312 L 52.394531 57.507812 C 52.234375 57.558594 52.105469 57.601562 52.015625 57.632812 " fill-opacity="1" fill-rule="nonzero"/><path fill="#c77f59" d="M 53.347656 73.167969 C 53.316406 73.136719 53.28125 73.105469 53.253906 73.070312 C 53.285156 73.035156 53.316406 73.003906 53.34375 72.96875 C 53.363281 73.015625 53.386719 73.058594 53.410156 73.097656 C 53.386719 73.121094 53.367188 73.144531 53.347656 73.167969 M 51.195312 42.03125 L 50.996094 38.269531 C 51.121094 38.195312 51.246094 38.125 51.367188 38.054688 L 51.558594 41.691406 C 51.441406 41.804688 51.316406 41.917969 51.195312 42.03125 " fill-opacity="1" fill-rule="nonzero"/><path fill="#ad5f47" d="M 53.253906 73.070312 C 52.972656 72.757812 52.792969 72.34375 52.765625 71.878906 L 52.152344 60.191406 C 52.296875 60.480469 52.441406 60.78125 52.582031 61.085938 L 53.171875 72.257812 C 53.183594 72.511719 53.246094 72.753906 53.34375 72.96875 C 53.316406 73.003906 53.285156 73.035156 53.253906 73.070312 M 51.730469 52.253906 L 51.195312 42.03125 C 51.316406 41.917969 51.441406 41.804688 51.558594 41.691406 L 52.09375 51.820312 C 51.96875 51.964844 51.847656 52.109375 51.730469 52.253906 " fill-opacity="1" fill-rule="nonzero"/><path fill="#e4e4e4" d="M 54.96875 74.046875 C 54.414062 74.046875 53.914062 73.78125 53.582031 73.359375 C 53.519531 73.277344 53.460938 73.191406 53.410156 73.097656 C 53.386719 73.058594 53.363281 73.015625 53.34375 72.96875 C 53.246094 72.753906 53.183594 72.511719 53.171875 72.257812 L 52.582031 61.085938 L 52.394531 57.507812 L 52.09375 51.820312 L 51.558594 41.691406 L 51.367188 38.054688 L 50.015625 12.335938 L 54.476562 11.609375 C 54.667969 11.953125 55.035156 12.179688 55.449219 12.179688 C 55.46875 12.179688 55.492188 12.179688 55.511719 12.175781 C 56.035156 12.148438 56.457031 11.765625 56.554688 11.269531 L 96.734375 4.699219 C 96.828125 4.683594 96.921875 4.679688 97.015625 4.679688 C 97.882812 4.679688 98.65625 5.339844 98.808594 6.269531 L 100.324219 15.613281 L 87.964844 16.269531 L 88.03125 17.542969 L 100.53125 16.878906 L 101.109375 20.445312 L 81.683594 21.476562 L 81.75 22.746094 L 101.316406 21.710938 L 101.9375 25.519531 L 81.953125 26.582031 L 82.019531 27.851562 L 102.140625 26.785156 L 102.71875 30.34375 L 82.207031 31.429688 L 82.273438 32.703125 L 102.925781 31.609375 L 103.503906 35.164062 L 61.898438 37.371094 L 61.964844 38.640625 L 103.707031 36.429688 L 104.359375 40.425781 L 62.175781 42.660156 L 62.242188 43.933594 L 104.5625 41.691406 L 105.214844 45.6875 L 62.453125 47.953125 L 62.523438 49.226562 L 105.417969 46.953125 L 106.375 52.828125 L 62.289062 55.164062 L 62.726562 63.496094 L 95.210938 61.773438 L 95.742188 71.886719 L 107.519531 59.882812 L 95.742188 71.886719 L 55.0625 74.042969 C 55.03125 74.046875 55 74.046875 54.96875 74.046875 M 57.175781 65.101562 C 57.175781 65.117188 57.175781 65.132812 57.175781 65.148438 C 57.207031 65.75 57.703125 66.214844 58.296875 66.214844 C 58.316406 66.214844 58.335938 66.214844 58.359375 66.214844 C 58.976562 66.179688 59.453125 65.652344 59.421875 65.027344 C 59.390625 64.425781 58.894531 63.960938 58.300781 63.960938 C 58.28125 63.960938 58.257812 63.960938 58.238281 63.960938 C 58 63.976562 57.785156 64.0625 57.609375 64.199219 C 57.328125 64.386719 57.152344 64.707031 57.171875 65.066406 C 57.171875 65.078125 57.171875 65.089844 57.175781 65.101562 M 56.820312 58.394531 C 56.851562 58.996094 57.347656 59.460938 57.941406 59.460938 C 57.964844 59.460938 57.984375 59.460938 58.003906 59.460938 C 58.621094 59.425781 59.097656 58.894531 59.066406 58.273438 C 59.035156 57.671875 58.535156 57.207031 57.945312 57.207031 C 57.925781 57.207031 57.902344 57.207031 57.882812 57.207031 C 57.265625 57.242188 56.792969 57.765625 56.820312 58.382812 C 56.820312 58.382812 56.820312 58.386719 56.820312 58.386719 C 56.820312 58.386719 56.820312 58.390625 56.820312 58.394531 M 56.460938 51.597656 C 56.460938 51.613281 56.464844 51.625 56.464844 51.636719 C 56.496094 52.238281 56.992188 52.707031 57.585938 52.707031 C 57.609375 52.707031 57.628906 52.707031 57.648438 52.703125 C 58.265625 52.671875 58.742188 52.140625 58.710938 51.519531 C 58.679688 50.917969 58.179688 50.453125 57.589844 50.453125 C 57.570312 50.453125 57.546875 50.453125 57.527344 50.453125 C 57.265625 50.46875 57.03125 50.570312 56.847656 50.730469 C 56.597656 50.921875 56.441406 51.226562 56.460938 51.5625 C 56.460938 51.574219 56.460938 51.585938 56.460938 51.597656 M 56.105469 44.851562 C 56.105469 44.863281 56.109375 44.875 56.109375 44.882812 C 56.140625 45.484375 56.636719 45.953125 57.230469 45.953125 C 57.25 45.953125 57.269531 45.953125 57.289062 45.949219 C 57.910156 45.917969 58.386719 45.386719 58.355469 44.765625 C 58.320312 44.164062 57.824219 43.695312 57.230469 43.695312 C 57.210938 43.695312 57.191406 43.699219 57.171875 43.699219 C 56.84375 43.71875 56.550781 43.875 56.359375 44.113281 C 56.191406 44.300781 56.09375 44.550781 56.105469 44.824219 C 56.105469 44.835938 56.105469 44.84375 56.105469 44.851562 M 55.75 38.097656 C 55.75 38.109375 55.753906 38.117188 55.753906 38.128906 C 55.785156 38.730469 56.28125 39.195312 56.875 39.195312 C 56.894531 39.195312 56.914062 39.195312 56.933594 39.195312 C 57.554688 39.164062 58.03125 38.632812 58 38.011719 C 57.964844 37.410156 57.46875 36.941406 56.875 36.941406 C 56.855469 36.941406 56.835938 36.941406 56.816406 36.945312 C 56.488281 36.960938 56.203125 37.117188 56.011719 37.347656 C 55.835938 37.539062 55.734375 37.792969 55.75 38.070312 C 55.75 38.078125 55.75 38.085938 55.75 38.097656 M 77.925781 12.386719 L 60.628906 13.304688 L 61.671875 33.097656 L 78.96875 32.179688 L 77.925781 12.386719 M 55.394531 31.339844 C 55.394531 31.351562 55.394531 31.363281 55.398438 31.375 C 55.429688 31.976562 55.925781 32.441406 56.519531 32.441406 C 56.539062 32.441406 56.558594 32.441406 56.578125 32.441406 C 57.199219 32.40625 57.675781 31.875 57.640625 31.257812 C 57.609375 30.652344 57.113281 30.1875 56.523438 30.1875 C 56.5 30.1875 56.480469 30.1875 56.460938 30.191406 C 56.175781 30.207031 55.921875 30.324219 55.734375 30.507812 C 55.511719 30.699219 55.375 30.988281 55.394531 31.304688 C 55.394531 31.316406 55.394531 31.328125 55.394531 31.339844 M 55.039062 24.601562 C 55.039062 24.605469 55.042969 24.613281 55.042969 24.621094 C 55.074219 25.222656 55.570312 25.6875 56.164062 25.6875 C 56.183594 25.6875 56.203125 25.6875 56.222656 25.6875 C 56.84375 25.652344 57.320312 25.125 57.285156 24.5 C 57.253906 23.898438 56.757812 23.433594 56.164062 23.433594 C 56.144531 23.433594 56.125 23.433594 56.105469 23.433594 C 55.78125 23.453125 55.5 23.601562 55.304688 23.832031 C 55.125 24.019531 55.023438 24.28125 55.035156 24.5625 C 55.039062 24.574219 55.039062 24.585938 55.039062 24.601562 M 83.425781 15.253906 C 82.722656 16.660156 82.265625 18.15625 82.308594 18.960938 C 82.351562 19.742188 82.863281 19.851562 83.308594 19.851562 C 83.394531 19.851562 83.476562 19.847656 83.554688 19.84375 C 83.496094 19.765625 83.417969 19.636719 83.402344 19.351562 C 83.351562 18.421875 83.753906 16.695312 84.34375 15.203125 C 84.738281 15.21875 85.089844 15.28125 85.558594 15.460938 L 85.039062 18.746094 L 86.324219 18.675781 L 87.378906 12.023438 C 87.195312 11.957031 86.960938 11.933594 86.773438 11.933594 C 86.734375 11.933594 86.699219 11.933594 86.664062 11.933594 C 85.625 11.988281 84.527344 13.257812 83.703125 14.734375 C 83.601562 14.730469 83.507812 14.730469 83.425781 14.730469 C 83.355469 14.730469 83.296875 14.730469 83.238281 14.734375 C 82.1875 14.789062 81.445312 15.324219 81.480469 15.929688 C 81.496094 16.261719 81.734375 16.417969 82.015625 16.417969 C 82.03125 16.417969 82.042969 16.417969 82.058594 16.417969 C 82.335938 16.402344 82.550781 16.257812 82.539062 16.042969 C 82.53125 15.917969 82.453125 15.773438 82.410156 15.773438 C 82.507812 15.460938 82.875 15.316406 83.425781 15.253906 M 54.683594 17.832031 C 54.683594 17.84375 54.683594 17.855469 54.683594 17.863281 C 54.71875 18.46875 55.214844 18.933594 55.808594 18.933594 C 55.828125 18.933594 55.847656 18.933594 55.867188 18.929688 C 56.488281 18.898438 56.964844 18.367188 56.929688 17.746094 C 56.898438 17.144531 56.402344 16.679688 55.808594 16.679688 C 55.789062 16.679688 55.769531 16.679688 55.75 16.679688 C 55.375 16.699219 55.054688 16.898438 54.867188 17.191406 C 54.742188 17.363281 54.671875 17.582031 54.683594 17.816406 C 54.683594 17.820312 54.683594 17.828125 54.683594 17.832031 M 85.617188 15.066406 C 85.261719 14.941406 84.871094 14.863281 84.511719 14.8125 C 84.960938 13.78125 85.484375 12.921875 86.003906 12.605469 L 85.617188 15.066406 " fill-opacity="1" fill-rule="nonzero"/><path fill="#9d9b9b" d="M 55.808594 18.933594 C 55.214844 18.933594 54.71875 18.46875 54.683594 17.863281 C 54.683594 17.855469 54.683594 17.84375 54.683594 17.832031 C 54.71875 18.347656 55.148438 18.742188 55.65625 18.742188 C 55.671875 18.742188 55.691406 18.742188 55.710938 18.742188 C 56.25 18.714844 56.660156 18.253906 56.632812 17.710938 C 56.605469 17.191406 56.175781 16.785156 55.660156 16.785156 C 55.640625 16.785156 55.625 16.785156 55.605469 16.785156 C 55.300781 16.800781 55.035156 16.957031 54.867188 17.191406 C 55.054688 16.898438 55.375 16.699219 55.75 16.679688 C 55.769531 16.679688 55.789062 16.679688 55.808594 16.679688 C 56.402344 16.679688 56.898438 17.144531 56.929688 17.746094 C 56.964844 18.367188 56.488281 18.898438 55.867188 18.929688 C 55.847656 18.933594 55.828125 18.933594 55.808594 18.933594 " fill-opacity="1" fill-rule="nonzero"/><path fill="#9d9b9b" d="M 55.449219 12.179688 C 55.035156 12.179688 54.667969 11.953125 54.476562 11.609375 L 54.527344 11.601562 C 54.703125 11.835938 54.988281 11.984375 55.300781 11.984375 C 55.316406 11.984375 55.335938 11.984375 55.355469 11.984375 C 55.761719 11.960938 56.101562 11.691406 56.226562 11.324219 L 56.554688 11.269531 C 56.457031 11.765625 56.035156 12.148438 55.511719 12.175781 C 55.492188 12.179688 55.46875 12.179688 55.449219 12.179688 " fill-opacity="1" fill-rule="nonzero"/><path fill="#b7b6b6" d="M 55.300781 11.984375 C 54.988281 11.984375 54.703125 11.835938 54.527344 11.601562 L 56.226562 11.324219 C 56.101562 11.691406 55.761719 11.960938 55.355469 11.984375 C 55.335938 11.984375 55.316406 11.984375 55.300781 11.984375 " fill-opacity="1" fill-rule="nonzero"/><path fill="#b7b6b6" d="M 55.65625 18.742188 C 55.148438 18.742188 54.71875 18.347656 54.683594 17.832031 C 54.683594 17.828125 54.683594 17.820312 54.683594 17.816406 C 54.671875 17.582031 54.742188 17.363281 54.867188 17.191406 C 55.035156 16.957031 55.300781 16.800781 55.605469 16.785156 C 55.625 16.785156 55.640625 16.785156 55.660156 16.785156 C 56.175781 16.785156 56.605469 17.191406 56.632812 17.710938 C 56.660156 18.253906 56.25 18.714844 55.710938 18.742188 C 55.691406 18.742188 55.671875 18.742188 55.65625 18.742188 " fill-opacity="1" fill-rule="nonzero"/><path fill="#9d9b9b" d="M 56.164062 25.6875 C 55.570312 25.6875 55.074219 25.222656 55.042969 24.621094 C 55.042969 24.613281 55.039062 24.605469 55.039062 24.601562 C 55.085938 25.105469 55.507812 25.488281 56.011719 25.488281 C 56.027344 25.488281 56.046875 25.488281 56.066406 25.484375 C 56.605469 25.457031 57.019531 24.996094 56.988281 24.457031 C 56.960938 23.933594 56.53125 23.527344 56.015625 23.527344 C 55.996094 23.527344 55.980469 23.527344 55.960938 23.53125 C 55.703125 23.542969 55.472656 23.65625 55.304688 23.832031 C 55.5 23.601562 55.78125 23.453125 56.105469 23.433594 C 56.125 23.433594 56.144531 23.433594 56.164062 23.433594 C 56.757812 23.433594 57.253906 23.898438 57.285156 24.5 C 57.320312 25.125 56.84375 25.652344 56.222656 25.6875 C 56.203125 25.6875 56.183594 25.6875 56.164062 25.6875 " fill-opacity="1" fill-rule="nonzero"/><path fill="#9d9b9b" d="M 56.519531 32.441406 C 55.925781 32.441406 55.429688 31.976562 55.398438 31.375 C 55.394531 31.363281 55.394531 31.351562 55.394531 31.339844 C 55.441406 31.84375 55.863281 32.230469 56.367188 32.230469 C 56.386719 32.230469 56.402344 32.230469 56.421875 32.230469 C 56.957031 32.203125 57.371094 31.742188 57.34375 31.203125 C 57.316406 30.679688 56.886719 30.273438 56.371094 30.273438 C 56.351562 30.273438 56.335938 30.273438 56.316406 30.273438 C 56.09375 30.285156 55.890625 30.371094 55.734375 30.507812 C 55.921875 30.324219 56.175781 30.207031 56.460938 30.191406 C 56.480469 30.1875 56.5 30.1875 56.523438 30.1875 C 57.113281 30.1875 57.609375 30.652344 57.640625 31.257812 C 57.675781 31.875 57.199219 32.40625 56.578125 32.441406 C 56.558594 32.441406 56.539062 32.441406 56.519531 32.441406 " fill-opacity="1" fill-rule="nonzero"/><path fill="#9d9b9b" d="M 56.875 39.195312 C 56.28125 39.195312 55.785156 38.730469 55.753906 38.128906 C 55.753906 38.117188 55.75 38.109375 55.75 38.097656 C 55.792969 38.605469 56.21875 38.996094 56.722656 38.996094 C 56.742188 38.996094 56.757812 38.996094 56.777344 38.996094 C 57.316406 38.96875 57.730469 38.507812 57.699219 37.96875 C 57.671875 37.441406 57.242188 37.039062 56.726562 37.039062 C 56.707031 37.039062 56.691406 37.039062 56.671875 37.039062 C 56.410156 37.054688 56.175781 37.171875 56.011719 37.347656 C 56.203125 37.117188 56.488281 36.960938 56.816406 36.945312 C 56.835938 36.941406 56.855469 36.941406 56.875 36.941406 C 57.46875 36.941406 57.964844 37.410156 58 38.011719 C 58.03125 38.632812 57.554688 39.164062 56.933594 39.195312 C 56.914062 39.195312 56.894531 39.195312 56.875 39.195312 " fill-opacity="1" fill-rule="nonzero"/><path fill="#9d9b9b" d="M 57.230469 45.953125 C 56.636719 45.953125 56.140625 45.484375 56.109375 44.882812 C 56.109375 44.875 56.105469 44.863281 56.105469 44.851562 C 56.148438 45.363281 56.574219 45.753906 57.078125 45.753906 C 57.097656 45.753906 57.113281 45.753906 57.132812 45.75 C 57.671875 45.722656 58.085938 45.261719 58.054688 44.71875 C 58.027344 44.199219 57.597656 43.792969 57.082031 43.792969 C 57.0625 43.792969 57.046875 43.792969 57.027344 43.796875 C 56.761719 43.808594 56.523438 43.929688 56.359375 44.113281 C 56.550781 43.875 56.84375 43.71875 57.171875 43.699219 C 57.191406 43.699219 57.210938 43.695312 57.230469 43.695312 C 57.824219 43.695312 58.320312 44.164062 58.355469 44.765625 C 58.386719 45.386719 57.910156 45.917969 57.289062 45.949219 C 57.269531 45.953125 57.25 45.953125 57.230469 45.953125 " fill-opacity="1" fill-rule="nonzero"/><path fill="#9d9b9b" d="M 57.585938 52.707031 C 56.992188 52.707031 56.496094 52.238281 56.464844 51.636719 C 56.464844 51.625 56.460938 51.613281 56.460938 51.597656 C 56.507812 52.105469 56.929688 52.492188 57.433594 52.492188 C 57.453125 52.492188 57.46875 52.492188 57.488281 52.492188 C 58.027344 52.460938 58.441406 52 58.410156 51.460938 C 58.382812 50.9375 57.953125 50.53125 57.4375 50.53125 C 57.417969 50.53125 57.402344 50.53125 57.382812 50.535156 C 57.179688 50.546875 56.996094 50.617188 56.847656 50.730469 C 57.03125 50.570312 57.265625 50.46875 57.527344 50.453125 C 57.546875 50.453125 57.570312 50.453125 57.589844 50.453125 C 58.179688 50.453125 58.679688 50.917969 58.710938 51.519531 C 58.742188 52.140625 58.265625 52.671875 57.648438 52.703125 C 57.628906 52.707031 57.609375 52.707031 57.585938 52.707031 " fill-opacity="1" fill-rule="nonzero"/><path fill="#9d9b9b" d="M 57.941406 59.460938 C 57.347656 59.460938 56.851562 58.996094 56.820312 58.394531 C 56.847656 58.914062 57.277344 59.320312 57.796875 59.320312 C 57.8125 59.320312 57.828125 59.320312 57.847656 59.320312 C 58.386719 59.292969 58.800781 58.832031 58.773438 58.289062 C 58.742188 57.769531 58.3125 57.363281 57.796875 57.363281 C 57.78125 57.363281 57.761719 57.363281 57.746094 57.363281 C 57.210938 57.390625 56.796875 57.847656 56.820312 58.382812 C 56.792969 57.765625 57.265625 57.242188 57.882812 57.207031 C 57.902344 57.207031 57.925781 57.207031 57.945312 57.207031 C 58.535156 57.207031 59.035156 57.671875 59.066406 58.273438 C 59.097656 58.894531 58.621094 59.425781 58.003906 59.460938 C 57.984375 59.460938 57.964844 59.460938 57.941406 59.460938 " fill-opacity="1" fill-rule="nonzero"/><path fill="#9d9b9b" d="M 58.296875 66.214844 C 57.703125 66.214844 57.207031 65.75 57.175781 65.148438 C 57.175781 65.132812 57.175781 65.117188 57.175781 65.101562 C 57.21875 65.609375 57.640625 65.996094 58.144531 65.996094 C 58.164062 65.996094 58.179688 65.996094 58.199219 65.992188 C 58.738281 65.964844 59.152344 65.503906 59.121094 64.964844 C 59.097656 64.441406 58.664062 64.035156 58.148438 64.035156 C 58.128906 64.035156 58.113281 64.035156 58.09375 64.039062 C 57.914062 64.046875 57.746094 64.105469 57.609375 64.199219 C 57.785156 64.0625 58 63.976562 58.238281 63.960938 C 58.257812 63.960938 58.28125 63.960938 58.300781 63.960938 C 58.894531 63.960938 59.390625 64.425781 59.421875 65.027344 C 59.453125 65.652344 58.976562 66.179688 58.359375 66.214844 C 58.335938 66.214844 58.316406 66.214844 58.296875 66.214844 " fill-opacity="1" fill-rule="nonzero"/><path fill="#b7b6b6" d="M 56.011719 25.488281 C 55.507812 25.488281 55.085938 25.105469 55.039062 24.601562 C 55.039062 24.585938 55.039062 24.574219 55.035156 24.5625 C 55.023438 24.28125 55.125 24.019531 55.304688 23.832031 C 55.472656 23.65625 55.703125 23.542969 55.960938 23.53125 C 55.980469 23.527344 55.996094 23.527344 56.015625 23.527344 C 56.53125 23.527344 56.960938 23.933594 56.988281 24.457031 C 57.019531 24.996094 56.605469 25.457031 56.066406 25.484375 C 56.046875 25.488281 56.027344 25.488281 56.011719 25.488281 " fill-opacity="1" fill-rule="nonzero"/><path fill="#b7b6b6" d="M 56.367188 32.230469 C 55.863281 32.230469 55.441406 31.84375 55.394531 31.339844 C 55.394531 31.328125 55.394531 31.316406 55.394531 31.304688 C 55.375 30.988281 55.511719 30.699219 55.734375 30.507812 C 55.890625 30.371094 56.09375 30.285156 56.316406 30.273438 C 56.335938 30.273438 56.351562 30.273438 56.371094 30.273438 C 56.886719 30.273438 57.316406 30.679688 57.34375 31.203125 C 57.371094 31.742188 56.957031 32.203125 56.421875 32.230469 C 56.402344 32.230469 56.386719 32.230469 56.367188 32.230469 " fill-opacity="1" fill-rule="nonzero"/><path fill="#b7b6b6" d="M 56.722656 38.996094 C 56.21875 38.996094 55.792969 38.605469 55.75 38.097656 C 55.75 38.085938 55.75 38.078125 55.75 38.070312 C 55.734375 37.792969 55.835938 37.539062 56.011719 37.347656 C 56.175781 37.171875 56.410156 37.054688 56.671875 37.039062 C 56.691406 37.039062 56.707031 37.039062 56.726562 37.039062 C 57.242188 37.039062 57.671875 37.441406 57.699219 37.96875 C 57.730469 38.507812 57.316406 38.96875 56.777344 38.996094 C 56.757812 38.996094 56.742188 38.996094 56.722656 38.996094 " fill-opacity="1" fill-rule="nonzero"/><path fill="#b7b6b6" d="M 57.078125 45.753906 C 56.574219 45.753906 56.148438 45.363281 56.105469 44.851562 C 56.105469 44.84375 56.105469 44.835938 56.105469 44.824219 C 56.09375 44.550781 56.191406 44.300781 56.359375 44.113281 C 56.523438 43.929688 56.761719 43.808594 57.027344 43.796875 C 57.046875 43.792969 57.0625 43.792969 57.082031 43.792969 C 57.597656 43.792969 58.027344 44.199219 58.054688 44.71875 C 58.085938 45.261719 57.671875 45.722656 57.132812 45.75 C 57.113281 45.753906 57.097656 45.753906 57.078125 45.753906 " fill-opacity="1" fill-rule="nonzero"/><path fill="#b7b6b6" d="M 57.433594 52.492188 C 56.929688 52.492188 56.507812 52.105469 56.460938 51.597656 C 56.460938 51.585938 56.460938 51.574219 56.460938 51.5625 C 56.441406 51.226562 56.597656 50.921875 56.847656 50.730469 C 56.996094 50.617188 57.179688 50.546875 57.382812 50.535156 C 57.402344 50.53125 57.417969 50.53125 57.4375 50.53125 C 57.953125 50.53125 58.382812 50.9375 58.410156 51.460938 C 58.441406 52 58.027344 52.460938 57.488281 52.492188 C 57.46875 52.492188 57.453125 52.492188 57.433594 52.492188 " fill-opacity="1" fill-rule="nonzero"/><path fill="#b7b6b6" d="M 57.796875 59.320312 C 57.277344 59.320312 56.847656 58.914062 56.820312 58.394531 C 56.820312 58.390625 56.820312 58.386719 56.820312 58.386719 C 56.820312 58.386719 56.820312 58.382812 56.820312 58.382812 C 56.796875 57.847656 57.210938 57.390625 57.746094 57.363281 C 57.761719 57.363281 57.78125 57.363281 57.796875 57.363281 C 58.3125 57.363281 58.742188 57.769531 58.773438 58.289062 C 58.800781 58.832031 58.386719 59.292969 57.847656 59.320312 C 57.828125 59.320312 57.8125 59.320312 57.796875 59.320312 " fill-opacity="1" fill-rule="nonzero"/><path fill="#b7b6b6" d="M 58.144531 65.996094 C 57.640625 65.996094 57.21875 65.609375 57.175781 65.101562 C 57.171875 65.089844 57.171875 65.078125 57.171875 65.066406 C 57.152344 64.707031 57.328125 64.386719 57.609375 64.199219 C 57.746094 64.105469 57.914062 64.046875 58.09375 64.039062 C 58.113281 64.035156 58.128906 64.035156 58.148438 64.035156 C 58.664062 64.035156 59.097656 64.441406 59.121094 64.964844 C 59.152344 65.503906 58.738281 65.964844 58.199219 65.992188 C 58.179688 65.996094 58.164062 65.996094 58.144531 65.996094 " fill-opacity="1" fill-rule="nonzero"/><path fill="#419ea5" d="M 62.726562 63.496094 L 62.289062 55.164062 L 106.375 52.828125 L 107.003906 56.714844 L 96.765625 57.257812 C 95.777344 57.308594 95.019531 58.191406 95.074219 59.230469 L 95.210938 61.773438 L 62.726562 63.496094 " fill-opacity="1" fill-rule="nonzero"/><path fill="#b7b6b6" d="M 61.671875 33.097656 L 60.628906 13.304688 L 77.925781 12.386719 L 78.96875 32.179688 L 61.671875 33.097656 " fill-opacity="1" fill-rule="nonzero"/><path fill="#666464" d="M 83.308594 19.851562 C 82.863281 19.851562 82.351562 19.742188 82.308594 18.960938 C 82.265625 18.15625 82.722656 16.660156 83.425781 15.253906 C 82.875 15.316406 82.507812 15.460938 82.410156 15.773438 C 82.453125 15.773438 82.53125 15.917969 82.539062 16.042969 C 82.550781 16.257812 82.335938 16.402344 82.058594 16.417969 C 82.042969 16.417969 82.03125 16.417969 82.015625 16.417969 C 81.734375 16.417969 81.496094 16.261719 81.480469 15.929688 C 81.445312 15.324219 82.1875 14.789062 83.238281 14.734375 C 83.296875 14.730469 83.355469 14.730469 83.425781 14.730469 C 83.507812 14.730469 83.601562 14.730469 83.703125 14.734375 C 84.527344 13.257812 85.625 11.988281 86.664062 11.933594 C 86.699219 11.933594 86.734375 11.933594 86.773438 11.933594 C 86.960938 11.933594 87.195312 11.957031 87.378906 12.023438 L 86.324219 18.675781 L 85.039062 18.746094 L 85.558594 15.460938 C 85.089844 15.28125 84.738281 15.21875 84.34375 15.203125 C 83.753906 16.695312 83.351562 18.421875 83.402344 19.351562 C 83.417969 19.636719 83.496094 19.765625 83.554688 19.84375 C 83.476562 19.847656 83.394531 19.851562 83.308594 19.851562 M 86.003906 12.605469 C 85.484375 12.921875 84.960938 13.78125 84.511719 14.8125 C 84.871094 14.863281 85.261719 14.941406 85.617188 15.066406 L 86.003906 12.605469 " fill-opacity="1" fill-rule="nonzero"/><path fill="#666464" d="M 88.03125 17.542969 L 87.964844 16.269531 L 100.324219 15.613281 L 100.53125 16.878906 L 88.03125 17.542969 " fill-opacity="1" fill-rule="nonzero"/><path fill="#666464" d="M 81.75 22.746094 L 81.683594 21.476562 L 101.109375 20.445312 L 101.316406 21.710938 L 81.75 22.746094 " fill-opacity="1" fill-rule="nonzero"/><path fill="#666464" d="M 82.019531 27.851562 L 81.953125 26.582031 L 101.9375 25.519531 L 102.140625 26.785156 L 82.019531 27.851562 " fill-opacity="1" fill-rule="nonzero"/><path fill="#666464" d="M 82.273438 32.703125 L 82.207031 31.429688 L 102.71875 30.34375 L 102.925781 31.609375 L 82.273438 32.703125 " fill-opacity="1" fill-rule="nonzero"/><path fill="#666464" d="M 61.964844 38.640625 L 61.898438 37.371094 L 103.503906 35.164062 L 103.707031 36.429688 L 61.964844 38.640625 " fill-opacity="1" fill-rule="nonzero"/><path fill="#666464" d="M 62.242188 43.933594 L 62.175781 42.660156 L 104.359375 40.425781 L 104.5625 41.691406 L 62.242188 43.933594 " fill-opacity="1" fill-rule="nonzero"/><path fill="#666464" d="M 62.523438 49.226562 L 62.453125 47.953125 L 105.214844 45.6875 L 105.417969 46.953125 L 62.523438 49.226562 " fill-opacity="1" fill-rule="nonzero"/><path fill="#c8c7c7" d="M 95.742188 71.886719 L 95.210938 61.773438 L 95.074219 59.230469 C 95.019531 58.191406 95.777344 57.308594 96.765625 57.257812 L 107.003906 56.714844 L 107.519531 59.882812 L 95.742188 71.886719 " fill-opacity="1" fill-rule="nonzero"/><path fill="#ffffff" d="M 94.054688 77.515625 L 53.847656 84.089844 C 52.867188 84.25 51.941406 83.546875 51.773438 82.519531 L 41.015625 16.304688 C 40.847656 15.277344 41.503906 14.316406 42.480469 14.15625 L 96.585938 5.3125 C 97.566406 5.152344 98.492188 5.855469 98.660156 6.878906 L 107.386719 60.589844 L 94.054688 77.515625 " fill-opacity="1" fill-rule="nonzero"/><path fill="#aeacac" d="M 49.613281 27.921875 C 49.710938 28.535156 49.296875 29.117188 48.683594 29.214844 C 48.070312 29.316406 47.492188 28.898438 47.394531 28.285156 C 47.292969 27.667969 47.710938 27.089844 48.320312 26.992188 C 48.933594 26.890625 49.511719 27.308594 49.613281 27.921875 " fill-opacity="1" fill-rule="nonzero"/><path fill="#aeacac" d="M 48.527344 21.246094 C 48.628906 21.859375 48.210938 22.441406 47.597656 22.539062 C 46.988281 22.640625 46.40625 22.222656 46.308594 21.609375 C 46.207031 20.996094 46.625 20.414062 47.238281 20.3125 C 47.847656 20.214844 48.425781 20.628906 48.527344 21.246094 " fill-opacity="1" fill-rule="nonzero"/><path fill="#cccbcc" d="M 48.226562 21.242188 C 48.3125 21.773438 47.953125 22.277344 47.421875 22.363281 C 46.886719 22.453125 46.386719 22.089844 46.300781 21.554688 C 46.210938 21.019531 46.574219 20.519531 47.105469 20.429688 C 47.636719 20.34375 48.140625 20.707031 48.226562 21.242188 " fill-opacity="1" fill-rule="nonzero"/><path fill="#cccbcc" d="M 49.3125 27.917969 C 49.398438 28.453125 49.039062 28.957031 48.507812 29.042969 C 47.972656 29.132812 47.472656 28.769531 47.382812 28.234375 C 47.296875 27.703125 47.660156 27.199219 48.191406 27.109375 C 48.722656 27.023438 49.226562 27.386719 49.3125 27.917969 " fill-opacity="1" fill-rule="nonzero"/><path fill="#aeacac" d="M 50.695312 34.597656 C 50.796875 35.210938 50.378906 35.792969 49.769531 35.890625 C 49.15625 35.992188 48.578125 35.574219 48.476562 34.960938 C 48.378906 34.347656 48.792969 33.765625 49.40625 33.667969 C 50.019531 33.566406 50.597656 33.984375 50.695312 34.597656 " fill-opacity="1" fill-rule="nonzero"/><path fill="#aeacac" d="M 51.78125 41.273438 C 51.882812 41.886719 51.464844 42.46875 50.851562 42.566406 C 50.242188 42.667969 49.664062 42.25 49.5625 41.636719 C 49.464844 41.023438 49.878906 40.441406 50.492188 40.34375 C 51.105469 40.242188 51.683594 40.660156 51.78125 41.273438 " fill-opacity="1" fill-rule="nonzero"/><path fill="#aeacac" d="M 52.867188 47.949219 C 52.964844 48.5625 52.550781 49.144531 51.9375 49.242188 C 51.328125 49.34375 50.746094 48.929688 50.648438 48.3125 C 50.546875 47.699219 50.964844 47.117188 51.578125 47.019531 C 52.1875 46.917969 52.765625 47.335938 52.867188 47.949219 " fill-opacity="1" fill-rule="nonzero"/><path fill="#aeacac" d="M 53.953125 54.625 C 54.050781 55.242188 53.632812 55.820312 53.023438 55.917969 C 52.410156 56.019531 51.832031 55.601562 51.734375 54.988281 C 51.632812 54.375 52.046875 53.796875 52.660156 53.695312 C 53.273438 53.59375 53.851562 54.011719 53.953125 54.625 " fill-opacity="1" fill-rule="nonzero"/><path fill="#aeacac" d="M 55.035156 61.300781 C 55.136719 61.917969 54.71875 62.496094 54.105469 62.597656 C 53.496094 62.695312 52.917969 62.28125 52.816406 61.664062 C 52.71875 61.050781 53.132812 60.46875 53.746094 60.371094 C 54.359375 60.269531 54.9375 60.6875 55.035156 61.300781 " fill-opacity="1" fill-rule="nonzero"/><path fill="#aeacac" d="M 56.121094 67.976562 C 56.21875 68.59375 55.804688 69.171875 55.191406 69.273438 C 54.578125 69.371094 54.003906 68.953125 53.902344 68.339844 C 53.800781 67.726562 54.21875 67.148438 54.832031 67.046875 C 55.441406 66.945312 56.019531 67.363281 56.121094 67.976562 " fill-opacity="1" fill-rule="nonzero"/><path fill="#aeacac" d="M 57.207031 74.652344 C 57.304688 75.269531 56.890625 75.847656 56.277344 75.949219 C 55.664062 76.046875 55.085938 75.632812 54.988281 75.015625 C 54.886719 74.402344 55.304688 73.820312 55.914062 73.722656 C 56.527344 73.621094 57.105469 74.039062 57.207031 74.652344 " fill-opacity="1" fill-rule="nonzero"/><path fill="#cccbcc" d="M 50.394531 34.585938 C 50.484375 35.121094 50.121094 35.625 49.589844 35.710938 C 49.058594 35.796875 48.554688 35.4375 48.46875 34.902344 C 48.382812 34.367188 48.742188 33.863281 49.273438 33.777344 C 49.808594 33.691406 50.308594 34.050781 50.394531 34.585938 " fill-opacity="1" fill-rule="nonzero"/><path fill="#cccbcc" d="M 51.480469 41.253906 C 51.566406 41.785156 51.203125 42.289062 50.671875 42.375 C 50.140625 42.464844 49.636719 42.101562 49.550781 41.566406 C 49.464844 41.035156 49.828125 40.53125 50.359375 40.441406 C 50.890625 40.355469 51.394531 40.71875 51.480469 41.253906 " fill-opacity="1" fill-rule="nonzero"/><path fill="#cccbcc" d="M 52.566406 47.9375 C 52.652344 48.472656 52.292969 48.976562 51.757812 49.0625 C 51.226562 49.152344 50.722656 48.789062 50.636719 48.253906 C 50.550781 47.71875 50.910156 47.214844 51.445312 47.128906 C 51.976562 47.042969 52.476562 47.402344 52.566406 47.9375 " fill-opacity="1" fill-rule="nonzero"/><path fill="#cccbcc" d="M 53.652344 54.613281 C 53.738281 55.148438 53.375 55.652344 52.84375 55.738281 C 52.3125 55.824219 51.808594 55.464844 51.722656 54.929688 C 51.636719 54.394531 51.996094 53.890625 52.527344 53.804688 C 53.0625 53.71875 53.5625 54.082031 53.652344 54.613281 " fill-opacity="1" fill-rule="nonzero"/><path fill="#cccbcc" d="M 54.734375 61.273438 C 54.820312 61.808594 54.457031 62.3125 53.925781 62.398438 C 53.394531 62.488281 52.890625 62.125 52.804688 61.589844 C 52.71875 61.058594 53.078125 60.554688 53.609375 60.46875 C 54.144531 60.378906 54.644531 60.742188 54.734375 61.273438 " fill-opacity="1" fill-rule="nonzero"/><path fill="#cccbcc" d="M 55.828125 68.027344 C 55.917969 68.558594 55.554688 69.0625 55.023438 69.148438 C 54.492188 69.234375 53.988281 68.875 53.902344 68.339844 C 53.816406 67.808594 54.175781 67.304688 54.710938 67.214844 C 55.242188 67.128906 55.742188 67.492188 55.828125 68.027344 " fill-opacity="1" fill-rule="nonzero"/><path fill="#cccbcc" d="M 56.902344 74.621094 C 56.988281 75.15625 56.628906 75.660156 56.09375 75.746094 C 55.5625 75.832031 55.0625 75.472656 54.972656 74.9375 C 54.886719 74.402344 55.25 73.902344 55.78125 73.8125 C 56.3125 73.726562 56.816406 74.085938 56.902344 74.621094 " fill-opacity="1" fill-rule="nonzero"/><path fill="#7caa80" d="M 60.328125 72.769531 L 103.070312 65.78125 L 107.386719 60.589844 L 106.757812 56.722656 L 58.988281 64.535156 L 60.328125 72.769531 " fill-opacity="1" fill-rule="nonzero"/><path fill="#706d6e" d="M 100.632812 47.007812 L 77.925781 50.71875 L 77.71875 49.460938 L 100.429688 45.75 L 100.632812 47.007812 " fill-opacity="1" fill-rule="nonzero"/><path fill="#706d6e" d="M 101.382812 51.605469 L 78.671875 55.320312 L 78.46875 54.0625 L 101.179688 50.347656 L 101.382812 51.605469 " fill-opacity="1" fill-rule="nonzero"/><path fill="#deddde" d="M 94.054688 77.515625 L 92.023438 65.007812 C 91.855469 63.980469 92.511719 63.019531 93.492188 62.859375 L 107.386719 60.589844 L 94.054688 77.515625 " fill-opacity="1" fill-rule="nonzero"/><path fill="#c2e1ed" d="M 58.933594 22.3125 L 52.839844 23.308594 L 52.402344 20.613281 L 58.496094 19.617188 L 58.933594 22.3125 " fill-opacity="1" fill-rule="nonzero"/><path fill="#cccbcc" d="M 58.933594 22.3125 L 58.902344 22.117188 L 53.003906 23.078125 L 52.628906 20.777344 L 58.332031 19.84375 L 58.738281 22.34375 L 58.933594 22.3125 L 58.902344 22.117188 L 58.933594 22.3125 L 59.128906 22.28125 L 58.65625 19.390625 L 52.175781 20.449219 L 52.679688 23.535156 L 59.160156 22.476562 L 59.128906 22.28125 L 58.933594 22.3125 " fill-opacity="1" fill-rule="nonzero"/><path fill="#d9f3fd" d="M 65.023438 21.316406 L 58.933594 22.3125 L 58.496094 19.617188 L 64.585938 18.621094 L 65.023438 21.316406 " fill-opacity="1" fill-rule="nonzero"/><path fill="#cccbcc" d="M 65.023438 21.316406 L 64.992188 21.121094 L 59.097656 22.085938 L 58.722656 19.78125 L 64.421875 18.847656 L 64.828125 21.347656 L 65.023438 21.316406 L 64.992188 21.121094 L 65.023438 21.316406 L 65.21875 21.285156 L 64.75 18.394531 L 58.269531 19.453125 L 58.769531 22.539062 L 65.25 21.480469 L 65.21875 21.285156 L 65.023438 21.316406 " fill-opacity="1" fill-rule="nonzero"/><path fill="#c2e1ed" d="M 71.113281 20.320312 L 65.023438 21.316406 L 64.585938 18.621094 L 70.675781 17.625 L 71.113281 20.320312 " fill-opacity="1" fill-rule="nonzero"/><path fill="#cccbcc" d="M 71.113281 20.320312 L 71.082031 20.125 L 65.183594 21.085938 L 64.8125 18.785156 L 70.511719 17.851562 L 70.917969 20.351562 L 71.113281 20.320312 L 71.082031 20.125 L 71.113281 20.320312 L 71.308594 20.289062 L 70.839844 17.398438 L 64.359375 18.457031 L 64.859375 21.542969 L 71.339844 20.484375 L 71.308594 20.289062 L 71.113281 20.320312 " fill-opacity="1" fill-rule="nonzero"/><path fill="#d9f3fd" d="M 77.203125 19.324219 L 71.113281 20.320312 L 70.675781 17.625 L 76.769531 16.628906 L 77.203125 19.324219 " fill-opacity="1" fill-rule="nonzero"/><path fill="#cccbcc" d="M 77.203125 19.324219 L 77.171875 19.128906 L 71.277344 20.09375 L 70.902344 17.789062 L 76.605469 16.855469 L 77.011719 19.355469 L 77.203125 19.324219 L 77.171875 19.128906 L 77.203125 19.324219 L 77.398438 19.292969 L 76.929688 16.402344 L 70.449219 17.460938 L 70.949219 20.546875 L 77.433594 19.488281 L 77.398438 19.292969 L 77.203125 19.324219 " fill-opacity="1" fill-rule="nonzero"/><path fill="#c2e1ed" d="M 83.296875 18.328125 L 77.203125 19.324219 L 76.769531 16.628906 L 82.859375 15.632812 L 83.296875 18.328125 " fill-opacity="1" fill-rule="nonzero"/><path fill="#cccbcc" d="M 83.296875 18.328125 L 83.265625 18.132812 L 77.367188 19.097656 L 76.992188 16.792969 L 82.695312 15.863281 L 83.101562 18.359375 L 83.296875 18.328125 L 83.265625 18.132812 L 83.296875 18.328125 L 83.492188 18.296875 L 83.019531 15.40625 L 76.542969 16.464844 L 77.042969 19.550781 L 83.523438 18.492188 L 83.492188 18.296875 L 83.296875 18.328125 " fill-opacity="1" fill-rule="nonzero"/><path fill="#d9f3fd" d="M 89.386719 17.332031 L 83.296875 18.328125 L 82.859375 15.632812 L 88.949219 14.636719 L 89.386719 17.332031 " fill-opacity="1" fill-rule="nonzero"/><path fill="#cccbcc" d="M 89.386719 17.332031 L 89.355469 17.136719 L 83.457031 18.101562 L 83.085938 15.796875 L 88.785156 14.863281 L 89.191406 17.363281 L 89.386719 17.332031 L 89.355469 17.136719 L 89.386719 17.332031 L 89.582031 17.300781 L 89.109375 14.410156 L 82.628906 15.46875 L 83.132812 18.554688 L 89.613281 17.496094 L 89.582031 17.300781 L 89.386719 17.332031 " fill-opacity="1" fill-rule="nonzero"/><path fill="#c2e1ed" d="M 95.476562 16.335938 L 89.386719 17.332031 L 88.949219 14.636719 L 95.039062 13.640625 L 95.476562 16.335938 " fill-opacity="1" fill-rule="nonzero"/><path fill="#cccbcc" d="M 95.476562 16.335938 L 95.445312 16.140625 L 89.550781 17.105469 L 89.175781 14.800781 L 94.878906 13.871094 L 95.285156 16.367188 L 95.476562 16.335938 L 95.445312 16.140625 L 95.476562 16.335938 L 95.671875 16.304688 L 95.203125 13.414062 L 88.722656 14.472656 L 89.222656 17.558594 L 95.707031 16.5 L 95.671875 16.304688 L 95.476562 16.335938 " fill-opacity="1" fill-rule="nonzero"/><path fill="#ffffff" d="M 59.371094 25.007812 L 53.277344 26 L 52.839844 23.308594 L 58.933594 22.3125 L 59.371094 25.007812 " fill-opacity="1" fill-rule="nonzero"/><path fill="#cccbcc" d="M 59.371094 25.007812 L 59.339844 24.8125 L 53.441406 25.773438 L 53.066406 23.46875 L 58.769531 22.539062 L 59.175781 25.039062 L 59.371094 25.007812 L 59.339844 24.8125 L 59.371094 25.007812 L 59.566406 24.972656 L 59.097656 22.085938 L 52.613281 23.144531 L 53.117188 26.230469 L 59.597656 25.167969 L 59.566406 24.972656 L 59.371094 25.007812 " fill-opacity="1" fill-rule="nonzero"/><path fill="#ffffff" d="M 65.460938 24.011719 L 59.371094 25.007812 L 58.933594 22.3125 L 65.023438 21.316406 L 65.460938 24.011719 " fill-opacity="1" fill-rule="nonzero"/><path fill="#cccbcc" d="M 65.460938 24.011719 L 65.429688 23.8125 L 59.53125 24.777344 L 59.160156 22.476562 L 64.859375 21.542969 L 65.265625 24.042969 L 65.460938 24.011719 L 65.429688 23.8125 L 65.460938 24.011719 L 65.65625 23.980469 L 65.183594 21.085938 L 58.707031 22.148438 L 59.207031 25.234375 L 65.6875 24.171875 L 65.65625 23.980469 L 65.460938 24.011719 " fill-opacity="1" fill-rule="nonzero"/><path fill="#ffffff" d="M 71.550781 23.015625 L 65.460938 24.011719 L 65.023438 21.316406 L 71.113281 20.320312 L 71.550781 23.015625 " fill-opacity="1" fill-rule="nonzero"/><path fill="#cccbcc" d="M 71.550781 23.015625 L 71.519531 22.820312 L 65.625 23.785156 L 65.25 21.480469 L 70.953125 20.546875 L 71.359375 23.046875 L 71.550781 23.015625 L 71.519531 22.820312 L 71.550781 23.015625 L 71.746094 22.980469 L 71.277344 20.09375 L 64.796875 21.152344 L 65.296875 24.238281 L 71.78125 23.179688 L 71.746094 22.980469 L 71.550781 23.015625 " fill-opacity="1" fill-rule="nonzero"/><path fill="#ffffff" d="M 77.644531 22.019531 L 71.550781 23.015625 L 71.113281 20.320312 L 77.203125 19.324219 L 77.644531 22.019531 " fill-opacity="1" fill-rule="nonzero"/><path fill="#cccbcc" d="M 77.644531 22.019531 L 77.613281 21.824219 L 71.714844 22.785156 L 71.339844 20.484375 L 77.042969 19.550781 L 77.449219 22.050781 L 77.644531 22.019531 L 77.613281 21.824219 L 77.644531 22.019531 L 77.839844 21.988281 L 77.367188 19.097656 L 70.886719 20.15625 L 71.390625 23.242188 L 77.871094 22.183594 L 77.839844 21.988281 L 77.644531 22.019531 " fill-opacity="1" fill-rule="nonzero"/><path fill="#ffffff" d="M 83.734375 21.023438 L 77.644531 22.019531 L 77.203125 19.324219 L 83.296875 18.328125 L 83.734375 21.023438 " fill-opacity="1" fill-rule="nonzero"/><path fill="#cccbcc" d="M 83.734375 21.023438 L 83.703125 20.828125 L 77.804688 21.792969 L 77.433594 19.488281 L 83.132812 18.554688 L 83.539062 21.054688 L 83.734375 21.023438 L 83.703125 20.828125 L 83.734375 21.023438 L 83.929688 20.992188 L 83.457031 18.101562 L 76.976562 19.160156 L 77.480469 22.246094 L 83.960938 21.1875 L 83.929688 20.992188 L 83.734375 21.023438 " fill-opacity="1" fill-rule="nonzero"/><path fill="#ffffff" d="M 89.824219 20.027344 L 83.734375 21.023438 L 83.296875 18.328125 L 89.386719 17.332031 L 89.824219 20.027344 " fill-opacity="1" fill-rule="nonzero"/><path fill="#cccbcc" d="M 89.824219 20.027344 L 89.792969 19.832031 L 83.898438 20.796875 L 83.523438 18.492188 L 89.222656 17.558594 L 89.628906 20.058594 L 89.824219 20.027344 L 89.792969 19.832031 L 89.824219 20.027344 L 90.019531 19.996094 L 89.550781 17.105469 L 83.070312 18.164062 L 83.570312 21.25 L 90.050781 20.191406 L 90.019531 19.996094 L 89.824219 20.027344 " fill-opacity="1" fill-rule="nonzero"/><path fill="#ffffff" d="M 95.914062 19.03125 L 89.824219 20.027344 L 89.386719 17.332031 L 95.476562 16.335938 L 95.914062 19.03125 " fill-opacity="1" fill-rule="nonzero"/><path fill="#cccbcc" d="M 95.914062 19.03125 L 95.882812 18.835938 L 89.988281 19.800781 L 89.613281 17.496094 L 95.316406 16.5625 L 95.71875 19.0625 L 95.914062 19.03125 L 95.882812 18.835938 L 95.914062 19.03125 L 96.109375 19 L 95.640625 16.109375 L 89.160156 17.167969 L 89.660156 20.253906 L 96.140625 19.195312 L 96.109375 19 L 95.914062 19.03125 " fill-opacity="1" fill-rule="nonzero"/><path fill="#ffffff" d="M 59.808594 27.699219 L 53.71875 28.695312 L 53.277344 26 L 59.371094 25.007812 L 59.808594 27.699219 " fill-opacity="1" fill-rule="nonzero"/><path fill="#cccbcc" d="M 59.808594 27.699219 L 59.777344 27.503906 L 53.878906 28.46875 L 53.507812 26.164062 L 59.207031 25.234375 L 59.613281 27.730469 L 59.808594 27.699219 L 59.777344 27.503906 L 59.808594 27.699219 L 60.003906 27.667969 L 59.53125 24.777344 L 53.050781 25.835938 L 53.554688 28.925781 L 60.035156 27.863281 L 60.003906 27.667969 L 59.808594 27.699219 " fill-opacity="1" fill-rule="nonzero"/><path fill="#ffffff" d="M 65.898438 26.707031 L 59.808594 27.699219 L 59.371094 25.007812 L 65.460938 24.011719 L 65.898438 26.707031 " fill-opacity="1" fill-rule="nonzero"/><path fill="#cccbcc" d="M 65.898438 26.707031 L 65.867188 26.507812 L 59.972656 27.472656 L 59.597656 25.167969 L 65.296875 24.238281 L 65.703125 26.738281 L 65.898438 26.707031 L 65.867188 26.507812 L 65.898438 26.707031 L 66.09375 26.671875 L 65.625 23.785156 L 59.144531 24.84375 L 59.644531 27.929688 L 66.125 26.867188 L 66.09375 26.671875 L 65.898438 26.707031 " fill-opacity="1" fill-rule="nonzero"/><path fill="#ffffff" d="M 78.082031 24.714844 L 71.988281 25.707031 L 71.550781 23.015625 L 77.644531 22.019531 L 78.082031 24.714844 " fill-opacity="1" fill-rule="nonzero"/><path fill="#cccbcc" d="M 78.082031 24.714844 L 78.050781 24.519531 L 72.152344 25.480469 L 71.78125 23.179688 L 77.480469 22.246094 L 77.886719 24.746094 L 78.082031 24.714844 L 78.050781 24.519531 L 78.082031 24.714844 L 78.277344 24.679688 L 77.804688 21.792969 L 71.324219 22.851562 L 71.828125 25.9375 L 78.308594 24.875 L 78.277344 24.679688 L 78.082031 24.714844 " fill-opacity="1" fill-rule="nonzero"/><path fill="#ffffff" d="M 84.171875 23.71875 L 78.082031 24.714844 L 77.644531 22.019531 L 83.734375 21.023438 L 84.171875 23.71875 " fill-opacity="1" fill-rule="nonzero"/><path fill="#cccbcc" d="M 84.171875 23.71875 L 84.140625 23.523438 L 78.246094 24.484375 L 77.871094 22.183594 L 83.570312 21.25 L 83.976562 23.75 L 84.171875 23.71875 L 84.140625 23.523438 L 84.171875 23.71875 L 84.367188 23.6875 L 83.898438 20.796875 L 77.417969 21.855469 L 77.917969 24.941406 L 84.398438 23.882812 L 84.367188 23.6875 L 84.171875 23.71875 " fill-opacity="1" fill-rule="nonzero"/><path fill="#ffffff" d="M 90.261719 22.722656 L 84.171875 23.71875 L 83.734375 21.023438 L 89.824219 20.027344 L 90.261719 22.722656 " fill-opacity="1" fill-rule="nonzero"/><path fill="#cccbcc" d="M 90.261719 22.722656 L 90.230469 22.527344 L 84.335938 23.492188 L 83.960938 21.1875 L 89.660156 20.253906 L 90.066406 22.753906 L 90.261719 22.722656 L 90.230469 22.527344 L 90.261719 22.722656 L 90.457031 22.691406 L 89.988281 19.800781 L 83.507812 20.859375 L 84.007812 23.945312 L 90.488281 22.886719 L 90.457031 22.691406 L 90.261719 22.722656 " fill-opacity="1" fill-rule="nonzero"/><path fill="#ffffff" d="M 96.355469 21.726562 L 90.261719 22.722656 L 89.824219 20.027344 L 95.914062 19.03125 L 96.355469 21.726562 " fill-opacity="1" fill-rule="nonzero"/><path fill="#cccbcc" d="M 96.355469 21.726562 L 96.320312 21.53125 L 90.425781 22.496094 L 90.050781 20.191406 L 95.753906 19.257812 L 96.160156 21.757812 L 96.355469 21.726562 L 96.320312 21.53125 L 96.355469 21.726562 L 96.546875 21.695312 L 96.078125 18.804688 L 89.597656 19.863281 L 90.101562 22.949219 L 96.582031 21.890625 L 96.546875 21.695312 L 96.355469 21.726562 " fill-opacity="1" fill-rule="nonzero"/><path fill="#ffffff" d="M 60.246094 30.394531 L 54.15625 31.390625 L 53.71875 28.695312 L 59.808594 27.699219 L 60.246094 30.394531 " fill-opacity="1" fill-rule="nonzero"/><path fill="#cccbcc" d="M 60.246094 30.394531 L 60.214844 30.199219 L 54.320312 31.164062 L 53.945312 28.859375 L 59.644531 27.929688 L 60.050781 30.429688 L 60.246094 30.394531 L 60.214844 30.199219 L 60.246094 30.394531 L 60.441406 30.363281 L 59.972656 27.472656 L 53.492188 28.535156 L 53.992188 31.617188 L 60.472656 30.558594 L 60.441406 30.363281 L 60.246094 30.394531 " fill-opacity="1" fill-rule="nonzero"/><path fill="#ffffff" d="M 66.335938 29.402344 L 60.246094 30.394531 L 59.808594 27.699219 L 65.898438 26.707031 L 66.335938 29.402344 " fill-opacity="1" fill-rule="nonzero"/><path fill="#cccbcc" d="M 66.335938 29.402344 L 66.304688 29.207031 L 60.410156 30.167969 L 60.035156 27.863281 L 65.734375 26.933594 L 66.140625 29.433594 L 66.335938 29.402344 L 66.304688 29.207031 L 66.335938 29.402344 L 66.53125 29.367188 L 66.0625 26.476562 L 59.582031 27.535156 L 60.082031 30.625 L 66.5625 29.5625 L 66.53125 29.367188 L 66.335938 29.402344 " fill-opacity="1" fill-rule="nonzero"/><path fill="#ffffff" d="M 72.429688 28.402344 L 66.335938 29.402344 L 65.898438 26.707031 L 71.988281 25.707031 L 72.429688 28.402344 " fill-opacity="1" fill-rule="nonzero"/><path fill="#cccbcc" d="M 72.429688 28.402344 L 72.394531 28.207031 L 66.5 29.171875 L 66.125 26.867188 L 71.828125 25.9375 L 72.234375 28.4375 L 72.429688 28.402344 L 72.394531 28.207031 L 72.429688 28.402344 L 72.621094 28.371094 L 72.152344 25.480469 L 65.671875 26.542969 L 66.175781 29.628906 L 72.65625 28.566406 L 72.621094 28.371094 L 72.429688 28.402344 " fill-opacity="1" fill-rule="nonzero"/><path fill="#ffffff" d="M 78.519531 27.40625 L 72.429688 28.402344 L 71.988281 25.707031 L 78.082031 24.714844 L 78.519531 27.40625 " fill-opacity="1" fill-rule="nonzero"/><path fill="#cccbcc" d="M 78.519531 27.40625 L 78.488281 27.210938 L 72.589844 28.175781 L 72.214844 25.871094 L 77.917969 24.941406 L 78.324219 27.441406 L 78.519531 27.40625 L 78.488281 27.210938 L 78.519531 27.40625 L 78.714844 27.375 L 78.246094 24.484375 L 71.761719 25.546875 L 72.265625 28.632812 L 78.746094 27.570312 L 78.714844 27.375 L 78.519531 27.40625 " fill-opacity="1" fill-rule="nonzero"/><path fill="#ffffff" d="M 84.609375 26.414062 L 78.519531 27.40625 L 78.082031 24.714844 L 84.171875 23.71875 L 84.609375 26.414062 " fill-opacity="1" fill-rule="nonzero"/><path fill="#cccbcc" d="M 84.609375 26.414062 L 84.578125 26.21875 L 78.683594 27.179688 L 78.308594 24.875 L 84.007812 23.945312 L 84.414062 26.445312 L 84.609375 26.414062 L 84.578125 26.21875 L 84.609375 26.414062 L 84.804688 26.378906 L 84.335938 23.492188 L 77.855469 24.550781 L 78.355469 27.636719 L 84.835938 26.574219 L 84.804688 26.378906 L 84.609375 26.414062 " fill-opacity="1" fill-rule="nonzero"/><path fill="#ffffff" d="M 90.703125 25.417969 L 84.609375 26.414062 L 84.171875 23.71875 L 90.261719 22.722656 L 90.703125 25.417969 " fill-opacity="1" fill-rule="nonzero"/><path fill="#cccbcc" d="M 90.703125 25.417969 L 90.667969 25.21875 L 84.773438 26.183594 L 84.398438 23.882812 L 90.101562 22.949219 L 90.507812 25.449219 L 90.703125 25.417969 L 90.667969 25.21875 L 90.703125 25.417969 L 90.894531 25.382812 L 90.425781 22.496094 L 83.945312 23.554688 L 84.449219 26.640625 L 90.929688 25.582031 L 90.894531 25.382812 L 90.703125 25.417969 " fill-opacity="1" fill-rule="nonzero"/><path fill="#ffffff" d="M 96.792969 24.421875 L 90.703125 25.417969 L 90.261719 22.722656 L 96.355469 21.726562 L 96.792969 24.421875 " fill-opacity="1" fill-rule="nonzero"/><path fill="#cccbcc" d="M 96.792969 24.421875 L 96.761719 24.226562 L 90.863281 25.191406 L 90.488281 22.886719 L 96.191406 21.953125 L 96.597656 24.453125 L 96.792969 24.421875 L 96.761719 24.226562 L 96.792969 24.421875 L 96.988281 24.390625 L 96.515625 21.5 L 90.035156 22.558594 L 90.539062 25.644531 L 97.019531 24.585938 L 96.988281 24.390625 L 96.792969 24.421875 " fill-opacity="1" fill-rule="nonzero"/><path fill="#ffffff" d="M 60.683594 33.089844 L 54.59375 34.085938 L 54.15625 31.390625 L 60.246094 30.394531 L 60.683594 33.089844 " fill-opacity="1" fill-rule="nonzero"/><path fill="#cccbcc" d="M 60.683594 33.089844 L 60.652344 32.894531 L 54.753906 33.859375 L 54.382812 31.554688 L 60.082031 30.625 L 60.488281 33.121094 L 60.683594 33.089844 L 60.652344 32.894531 L 60.683594 33.089844 L 60.878906 33.058594 L 60.410156 30.167969 L 53.929688 31.226562 L 54.429688 34.3125 L 60.910156 33.253906 L 60.878906 33.058594 L 60.683594 33.089844 " fill-opacity="1" fill-rule="nonzero"/><path fill="#ffffff" d="M 66.773438 32.09375 L 60.683594 33.089844 L 60.246094 30.394531 L 66.335938 29.402344 L 66.773438 32.09375 " fill-opacity="1" fill-rule="nonzero"/><path fill="#cccbcc" d="M 66.773438 32.09375 L 66.742188 31.898438 L 60.847656 32.863281 L 60.472656 30.558594 L 66.175781 29.628906 L 66.578125 32.125 L 66.773438 32.09375 L 66.742188 31.898438 L 66.773438 32.09375 L 66.96875 32.0625 L 66.5 29.171875 L 60.019531 30.230469 L 60.519531 33.316406 L 67 32.257812 L 66.96875 32.0625 L 66.773438 32.09375 " fill-opacity="1" fill-rule="nonzero"/><path fill="#ffffff" d="M 72.867188 31.097656 L 66.773438 32.09375 L 66.335938 29.402344 L 72.429688 28.402344 L 72.867188 31.097656 " fill-opacity="1" fill-rule="nonzero"/><path fill="#cccbcc" d="M 72.867188 31.097656 L 72.835938 30.902344 L 66.9375 31.867188 L 66.5625 29.5625 L 72.265625 28.632812 L 72.671875 31.128906 L 72.867188 31.097656 L 72.835938 30.902344 L 72.867188 31.097656 L 73.0625 31.066406 L 72.589844 28.175781 L 66.109375 29.234375 L 66.609375 32.320312 L 73.09375 31.261719 L 73.0625 31.066406 L 72.867188 31.097656 " fill-opacity="1" fill-rule="nonzero"/><path fill="#ffffff" d="M 78.957031 30.101562 L 72.867188 31.097656 L 72.429688 28.402344 L 78.519531 27.40625 L 78.957031 30.101562 " fill-opacity="1" fill-rule="nonzero"/><path fill="#cccbcc" d="M 78.957031 30.101562 L 78.925781 29.90625 L 73.027344 30.871094 L 72.65625 28.566406 L 78.355469 27.636719 L 78.761719 30.136719 L 78.957031 30.101562 L 78.925781 29.90625 L 78.957031 30.101562 L 79.152344 30.070312 L 78.683594 27.179688 L 72.199219 28.242188 L 72.703125 31.324219 L 79.183594 30.265625 L 79.152344 30.070312 L 78.957031 30.101562 " fill-opacity="1" fill-rule="nonzero"/><path fill="#ffffff" d="M 85.046875 29.105469 L 78.957031 30.101562 L 78.519531 27.40625 L 84.609375 26.414062 L 85.046875 29.105469 " fill-opacity="1" fill-rule="nonzero"/><path fill="#cccbcc" d="M 85.046875 29.105469 L 85.015625 28.910156 L 79.121094 29.875 L 78.746094 27.570312 L 84.449219 26.640625 L 84.851562 29.140625 L 85.046875 29.105469 L 85.015625 28.910156 L 85.046875 29.105469 L 85.242188 29.074219 L 84.773438 26.183594 L 78.292969 27.246094 L 78.792969 30.332031 L 85.273438 29.269531 L 85.242188 29.074219 L 85.046875 29.105469 " fill-opacity="1" fill-rule="nonzero"/><path fill="#ffffff" d="M 91.136719 28.109375 L 85.046875 29.105469 L 84.609375 26.414062 L 90.703125 25.417969 L 91.136719 28.109375 " fill-opacity="1" fill-rule="nonzero"/><path fill="#cccbcc" d="M 91.136719 28.109375 L 91.105469 27.914062 L 85.210938 28.878906 L 84.835938 26.574219 L 90.539062 25.644531 L 90.945312 28.140625 L 91.136719 28.109375 L 91.105469 27.914062 L 91.136719 28.109375 L 91.332031 28.078125 L 90.863281 25.1875 L 84.382812 26.25 L 84.882812 29.335938 L 91.363281 28.273438 L 91.332031 28.078125 L 91.136719 28.109375 " fill-opacity="1" fill-rule="nonzero"/><path fill="#ffffff" d="M 97.230469 27.113281 L 91.136719 28.109375 L 90.703125 25.417969 L 96.792969 24.421875 L 97.230469 27.113281 " fill-opacity="1" fill-rule="nonzero"/><path fill="#cccbcc" d="M 97.230469 27.113281 L 97.199219 26.917969 L 91.300781 27.882812 L 90.929688 25.582031 L 96.628906 24.648438 L 97.035156 27.148438 L 97.230469 27.113281 L 97.199219 26.917969 L 97.230469 27.113281 L 97.425781 27.082031 L 96.953125 24.191406 L 90.472656 25.253906 L 90.976562 28.335938 L 97.457031 27.277344 L 97.425781 27.082031 L 97.230469 27.113281 " fill-opacity="1" fill-rule="nonzero"/><path fill="#ffffff" d="M 61.121094 35.785156 L 55.03125 36.78125 L 54.59375 34.085938 L 60.683594 33.089844 L 61.121094 35.785156 " fill-opacity="1" fill-rule="nonzero"/><path fill="#cccbcc" d="M 61.121094 35.785156 L 61.089844 35.589844 L 55.195312 36.554688 L 54.820312 34.25 L 60.519531 33.316406 L 60.925781 35.816406 L 61.121094 35.785156 L 61.089844 35.589844 L 61.121094 35.785156 L 61.316406 35.753906 L 60.847656 32.863281 L 54.367188 33.921875 L 54.867188 37.007812 L 61.347656 35.949219 L 61.316406 35.753906 L 61.121094 35.785156 " fill-opacity="1" fill-rule="nonzero"/><path fill="#ffffff" d="M 67.210938 34.789062 L 61.121094 35.785156 L 60.683594 33.089844 L 66.773438 32.09375 L 67.210938 34.789062 " fill-opacity="1" fill-rule="nonzero"/><path fill="#cccbcc" d="M 67.210938 34.789062 L 67.179688 34.59375 L 61.285156 35.558594 L 60.910156 33.253906 L 66.609375 32.320312 L 67.019531 34.820312 L 67.210938 34.789062 L 67.179688 34.59375 L 67.210938 34.789062 L 67.40625 34.757812 L 66.9375 31.867188 L 60.457031 32.925781 L 60.957031 36.011719 L 67.4375 34.953125 L 67.40625 34.757812 L 67.210938 34.789062 " fill-opacity="1" fill-rule="nonzero"/><path fill="#ffffff" d="M 73.304688 33.792969 L 67.210938 34.789062 L 66.773438 32.09375 L 72.867188 31.097656 L 73.304688 33.792969 " fill-opacity="1" fill-rule="nonzero"/><path fill="#cccbcc" d="M 73.304688 33.792969 L 73.269531 33.597656 L 67.375 34.5625 L 67 32.257812 L 72.703125 31.324219 L 73.109375 33.824219 L 73.304688 33.792969 L 73.269531 33.597656 L 73.304688 33.792969 L 73.5 33.761719 L 73.027344 30.871094 L 66.546875 31.929688 L 67.050781 35.015625 L 73.53125 33.957031 L 73.5 33.761719 L 73.304688 33.792969 " fill-opacity="1" fill-rule="nonzero"/><path fill="#ffffff" d="M 79.394531 32.796875 L 73.304688 33.792969 L 72.867188 31.097656 L 78.957031 30.101562 L 79.394531 32.796875 " fill-opacity="1" fill-rule="nonzero"/><path fill="#cccbcc" d="M 79.394531 32.796875 L 79.363281 32.601562 L 73.464844 33.566406 L 73.09375 31.261719 L 78.792969 30.332031 L 79.199219 32.828125 L 79.394531 32.796875 L 79.363281 32.601562 L 79.394531 32.796875 L 79.589844 32.765625 L 79.121094 29.875 L 72.640625 30.933594 L 73.140625 34.019531 L 79.621094 32.960938 L 79.589844 32.765625 L 79.394531 32.796875 " fill-opacity="1" fill-rule="nonzero"/><path fill="#ffffff" d="M 85.484375 31.800781 L 79.394531 32.796875 L 78.957031 30.101562 L 85.046875 29.105469 L 85.484375 31.800781 " fill-opacity="1" fill-rule="nonzero"/><path fill="#cccbcc" d="M 85.484375 31.800781 L 85.453125 31.605469 L 79.558594 32.570312 L 79.183594 30.265625 L 84.882812 29.335938 L 85.289062 31.835938 L 85.484375 31.800781 L 85.453125 31.605469 L 85.484375 31.800781 L 85.679688 31.769531 L 85.210938 28.878906 L 78.730469 29.941406 L 79.230469 33.023438 L 85.710938 31.964844 L 85.679688 31.769531 L 85.484375 31.800781 " fill-opacity="1" fill-rule="nonzero"/><path fill="#ffffff" d="M 91.578125 30.804688 L 85.484375 31.800781 L 85.046875 29.105469 L 91.136719 28.109375 L 91.578125 30.804688 " fill-opacity="1" fill-rule="nonzero"/><path fill="#cccbcc" d="M 91.578125 30.804688 L 91.542969 30.609375 L 85.648438 31.574219 L 85.273438 29.269531 L 90.976562 28.335938 L 91.382812 30.835938 L 91.578125 30.804688 L 91.542969 30.609375 L 91.578125 30.804688 L 91.773438 30.773438 L 91.300781 27.882812 L 84.820312 28.941406 L 85.320312 32.03125 L 91.804688 30.96875 L 91.773438 30.773438 L 91.578125 30.804688 " fill-opacity="1" fill-rule="nonzero"/><path fill="#ffffff" d="M 97.667969 29.808594 L 91.578125 30.804688 L 91.136719 28.109375 L 97.230469 27.113281 L 97.667969 29.808594 " fill-opacity="1" fill-rule="nonzero"/><path fill="#cccbcc" d="M 97.667969 29.808594 L 97.636719 29.613281 L 91.738281 30.578125 L 91.363281 28.273438 L 97.066406 27.34375 L 97.472656 29.84375 L 97.667969 29.808594 L 97.636719 29.613281 L 97.667969 29.808594 L 97.863281 29.777344 L 97.394531 26.886719 L 90.910156 27.945312 L 91.414062 31.035156 L 97.894531 29.972656 L 97.863281 29.777344 L 97.667969 29.808594 " fill-opacity="1" fill-rule="nonzero"/><path fill="#ffffff" d="M 71.988281 25.707031 L 65.898438 26.707031 L 65.460938 24.011719 L 71.550781 23.015625 L 71.988281 25.707031 " fill-opacity="1" fill-rule="nonzero"/><path fill="#797777" d="M 71.988281 25.707031 L 71.957031 25.511719 L 66.0625 26.476562 L 65.6875 24.171875 L 71.390625 23.242188 L 71.792969 25.742188 L 71.988281 25.707031 L 71.957031 25.511719 L 71.988281 25.707031 L 72.183594 25.675781 L 71.714844 22.785156 L 65.234375 23.847656 L 65.734375 26.933594 L 72.214844 25.875 L 72.183594 25.675781 L 71.988281 25.707031 " fill-opacity="1" fill-rule="nonzero"/><path fill="#797777" d="M 66.738281 26.566406 L 65.898438 26.707031 L 65.761719 25.863281 L 66.601562 25.722656 L 66.738281 26.566406 " fill-opacity="1" fill-rule="nonzero"/><path fill="#aeacac" d="M 75.503906 48.863281 C 74.746094 44.300781 70.449219 41.207031 65.890625 41.953125 L 65.871094 41.957031 L 67.214844 50.21875 L 75.503906 48.863281 " fill-opacity="1" fill-rule="nonzero"/><path fill="#cccbcc" d="M 66.871094 50.824219 L 65.515625 42.480469 C 60.957031 43.238281 57.871094 47.550781 58.613281 52.125 C 59.359375 56.707031 63.664062 59.816406 68.234375 59.070312 C 72.785156 58.324219 75.875 54.03125 75.164062 49.46875 L 66.871094 50.824219 " fill-opacity="1" fill-rule="nonzero"/><path fill="#bfbebe" d="M 84.757812 42.070312 L 81.582031 42.585938 L 81.964844 44.941406 L 85.140625 44.425781 L 84.757812 42.070312 " fill-opacity="1" fill-rule="nonzero"/><path fill="#aeacac" d="M 87.707031 40.164062 L 84.53125 40.683594 L 85.140625 44.425781 L 88.316406 43.90625 L 87.707031 40.164062 " fill-opacity="1" fill-rule="nonzero"/><path fill="#9a9898" d="M 90.390625 36.597656 L 87.214844 37.117188 L 88.316406 43.90625 L 91.492188 43.386719 L 90.390625 36.597656 " fill-opacity="1" fill-rule="nonzero"/><path fill="#8d8b8b" d="M 93.308594 34.484375 L 90.128906 35.003906 L 91.492188 43.386719 L 94.667969 42.867188 L 93.308594 34.484375 " fill-opacity="1" fill-rule="nonzero"/><path fill="#7d7b7b" d="M 97.03125 37.328125 L 93.851562 37.847656 L 94.667969 42.867188 L 97.84375 42.347656 L 97.03125 37.328125 " fill-opacity="1" fill-rule="nonzero"/><path fill="#f89f70" d="M 35.132812 55.941406 C 35.917969 54.546875 42.808594 49.820312 45.679688 47.863281 C 48.84375 45.707031 52.421875 38.191406 54.421875 35.011719 C 55.976562 32.535156 60.613281 35.015625 59.914062 42.378906 C 59.507812 46.648438 57.246094 51.558594 54.480469 55.984375 C 52.945312 58.433594 54.800781 65.238281 51.761719 69.8125 C 49.714844 72.890625 46.992188 74.621094 43.691406 76.261719 " fill-opacity="1" fill-rule="nonzero"/><path fill="#f79169" d="M 44.25 52.472656 C 47.046875 50.140625 48.71875 47.007812 50.253906 43.769531 C 51.96875 40.148438 53.828125 36.59375 56.605469 34.164062 C 55.746094 33.933594 54.921875 34.214844 54.421875 35.011719 C 52.421875 38.191406 48.84375 45.707031 45.679688 47.863281 C 42.9375 49.734375 36.527344 54.128906 35.277344 55.734375 C 38.5 55.390625 41.679688 54.609375 44.25 52.472656 " fill-opacity="1" fill-rule="nonzero"/><path fill="#e68761" d="M 59.808594 38.792969 C 59.640625 38.953125 59.292969 44.53125 56.140625 49.304688 C 53.5 53.300781 53.570312 57.976562 52.257812 62.484375 C 51.117188 66.398438 49.523438 70.816406 47.027344 74.390625 C 48.863281 73.195312 50.453125 71.78125 51.761719 69.8125 C 54.800781 65.238281 52.945312 58.433594 54.480469 55.984375 C 57.246094 51.558594 59.507812 46.648438 59.914062 42.378906 C 60.042969 41.015625 59.988281 39.824219 59.808594 38.792969 " fill-opacity="1" fill-rule="nonzero"/></svg>