<svg xmlns="http://www.w3.org/2000/svg" xmlns:xlink="http://www.w3.org/1999/xlink" width="150" zoomAndPan="magnify" viewBox="0 0 112.5 112.499997" height="150" preserveAspectRatio="xMidYMid meet" version="1.0"><defs><clipPath id="01f2f0cf05"><path d="M 11.671875 0 L 100.921875 0 L 100.921875 112.003906 L 11.671875 112.003906 Z M 11.671875 0 " clip-rule="nonzero"/></clipPath><clipPath id="e184752760"><path d="M 74 0 L 100.921875 0 L 100.921875 27 L 74 27 Z M 74 0 " clip-rule="nonzero"/></clipPath><clipPath id="f6392744f8"><path d="M 74 26 L 100.921875 26 L 100.921875 61 L 74 61 Z M 74 26 " clip-rule="nonzero"/></clipPath></defs><g clip-path="url(#01f2f0cf05)"><path fill="#bcbcbc" d="M 92.019531 112.105469 L 20.574219 112.105469 C 15.699219 112.105469 11.671875 108.082031 11.671875 103.210938 L 11.671875 9.289062 C 11.671875 4.417969 15.699219 0.394531 20.574219 0.394531 L 74.632812 0.394531 L 100.921875 26.230469 L 100.921875 103.210938 C 100.921875 108.082031 96.894531 112.105469 92.019531 112.105469 Z M 92.019531 112.105469 " fill-opacity="1" fill-rule="nonzero"/></g><g clip-path="url(#e184752760)"><path fill="#d6d4d4" d="M 74.632812 0.394531 L 74.632812 26.230469 L 100.921875 26.230469 Z M 74.632812 0.394531 " fill-opacity="1" fill-rule="nonzero"/></g><path fill="#ffffff" d="M 24.816406 36.078125 L 24.816406 83.9375 L 87.777344 83.9375 L 87.777344 36.078125 Z M 84.066406 49.632812 L 45.484375 49.632812 L 45.484375 39.785156 L 83.960938 39.785156 L 83.960938 49.632812 Z M 45.484375 53.445312 L 83.960938 53.445312 L 83.960938 65.199219 L 45.484375 65.199219 Z M 41.773438 65.199219 L 28.632812 65.199219 L 28.632812 53.445312 L 41.773438 53.445312 Z M 41.773438 39.785156 L 41.773438 49.632812 L 28.632812 49.632812 L 28.632812 39.785156 Z M 28.632812 68.902344 L 41.773438 68.902344 L 41.773438 80.128906 L 28.632812 80.128906 Z M 45.484375 80.234375 L 45.484375 68.902344 L 83.960938 68.902344 L 83.960938 80.128906 L 45.484375 80.128906 Z M 45.484375 80.234375 " fill-opacity="1" fill-rule="nonzero"/><g clip-path="url(#f6392744f8)"><path fill="#9a9999" d="M 100.710938 26.230469 L 74.847656 26.230469 L 100.710938 60.007812 Z M 100.710938 26.230469 " fill-opacity="0.7176" fill-rule="nonzero"/></g></svg>